<svg width="418" height="312" viewBox="0 0 418 312" fill="none" xmlns="http://www.w3.org/2000/svg">
<path d="M417.242 273.92H0.241974V274.128H417.242V273.92Z" fill="#6986B3"/>
<path d="M100.029 282.753H71.8884V282.961H100.029V282.753Z" fill="#6986B3"/>
<path d="M65.7727 282.857H49.0752V283.066H65.7727V282.857Z" fill="#6986B3"/>
<path d="M253.037 278.384H173.985V278.592H253.037V278.384Z" fill="#6986B3"/>
<path d="M140.169 288.667H114.964V288.876H140.169V288.667Z" fill="#6986B3"/>
<path d="M345.24 281.256H279.632V281.464H345.24V281.256Z" fill="#6986B3"/>
<path d="M197.912 236.725H36.8671C34.2425 236.725 32.1066 234.589 32.1066 231.965V5.59043C32.1066 2.96583 34.2425 0.829956 36.8671 0.829956H197.912C200.535 0.829956 202.671 2.96583 202.671 5.59043V231.965C202.671 234.589 200.535 236.725 197.912 236.725ZM36.8671 1.03929C34.3567 1.03929 32.3151 3.08092 32.3151 5.59126V231.966C32.3151 234.476 34.3567 236.518 36.8671 236.518H197.912C200.421 236.518 202.463 234.476 202.463 231.966V5.59043C202.463 3.08092 200.421 1.03846 197.912 1.03846L36.8671 1.03929Z" fill="#6986B3"/>
<path d="M378.303 236.725H217.259C214.635 236.725 212.499 234.589 212.499 231.965V5.59043C212.499 2.96583 214.635 0.829956 217.259 0.829956H378.303C380.928 0.829956 383.063 2.96583 383.063 5.59043V231.965C383.064 234.589 380.928 236.725 378.303 236.725ZM217.259 1.03929C214.749 1.03929 212.708 3.08092 212.708 5.59126V231.966C212.708 234.476 214.749 236.518 217.259 236.518H378.303C380.813 236.518 382.854 234.476 382.854 231.966V5.59043C382.854 3.08092 380.813 1.03846 378.303 1.03846L217.259 1.03929Z" fill="#6986B3"/>
<path d="M351.542 176.66H330.292V273.92H351.542V176.66Z" fill="#6986B3"/>
<path d="M347.505 273.92H351.542V262.44H343.274L347.505 273.92Z" fill="#DAF2FF"/>
<path d="M272.122 176.66H250.872V273.92H272.122V176.66Z" fill="#6986B3"/>
<path d="M351.542 176.66H268.599V266.875H351.542V176.66Z" fill="#DAF2FF"/>
<path d="M311.425 222.702V252.523H348.41V222.702H311.425Z" fill="#6986B3"/>
<path d="M271.73 222.701V252.523H308.716V222.701H271.73Z" fill="#6986B3"/>
<path d="M293.882 225.913H286.564C283.386 225.913 280.348 224.606 278.162 222.299H302.284C300.098 224.606 297.06 225.913 293.882 225.913Z" fill="#DAF2FF"/>
<path d="M333.95 225.913H326.633C323.455 225.913 320.416 224.606 318.23 222.299H342.353C340.167 224.606 337.129 225.913 333.95 225.913Z" fill="#DAF2FF"/>
<path d="M311.425 183.457V213.279H348.41V183.457H311.425Z" fill="#6986B3"/>
<path d="M271.73 183.457V213.278H308.715V183.457H271.73Z" fill="#6986B3"/>
<path d="M293.882 186.669H286.564C283.386 186.669 280.348 185.362 278.162 183.055H302.284C300.098 185.362 297.06 186.669 293.882 186.669Z" fill="#DAF2FF"/>
<path d="M333.95 186.669H326.633C323.455 186.669 320.416 185.362 318.23 183.055H342.353C340.167 185.362 337.129 186.669 333.95 186.669Z" fill="#DAF2FF"/>
<path d="M272.636 273.92H268.599V262.44H276.867L272.636 273.92Z" fill="#DAF2FF"/>
<path d="M289.113 161.425C289.113 165.14 291.699 167.731 287.983 167.731C284.267 167.731 275.657 165.14 275.657 161.425C275.657 157.71 278.67 154.697 282.385 154.697C286.1 154.697 289.113 157.709 289.113 161.425Z" fill="#CADEFC"/>
<path d="M300.63 164.631C300.63 168.346 303.216 170.937 299.5 170.937C295.783 170.937 287.174 168.346 287.174 164.631C287.174 160.915 290.186 157.903 293.902 157.903C297.617 157.903 300.63 160.915 300.63 164.631Z" fill="#CADEFC"/>
<path d="M311.663 162.655C311.663 166.371 314.249 168.961 310.533 168.961C306.818 168.961 298.207 166.371 298.207 162.655C298.207 158.94 301.219 155.927 304.935 155.927C308.65 155.927 311.663 158.94 311.663 162.655Z" fill="#CADEFC"/>
<path d="M271.533 163.533C271.533 163.533 272.083 176.66 293.173 176.66C314.262 176.66 314.813 163.533 314.813 163.533H271.533Z" fill="#5579B1"/>
<path d="M352.421 16.7078H245.478V135.05H352.421V16.7078Z" fill="#6986B3"/>
<path d="M363.882 13.0557H238.555C237.969 13.0557 237.493 13.531 237.493 14.1173C237.493 14.7037 237.969 15.179 238.555 15.179H363.882C364.468 15.179 364.943 14.7037 364.943 14.1173C364.943 13.531 364.468 13.0557 363.882 13.0557Z" fill="#6986B3"/>
<path d="M356.959 16.7078H247.598V135.05H356.959V16.7078Z" fill="#5579B1"/>
<path d="M352.421 135.05H245.478V143.482H352.421V135.05Z" fill="#6986B3"/>
<path d="M364.519 135.05H255.158V143.482H364.519V135.05Z" fill="#5579B1"/>
<path d="M350.606 128.697V23.0609L253.951 23.0609V128.697H350.606Z" fill="#F5FCFF"/>
<path d="M275.892 128.697L313.18 23.0612H330.781L293.494 128.697H275.892Z" fill="white"/>
<path d="M297.275 128.697L334.563 23.0612H341.425L304.137 128.697H297.275Z" fill="white"/>
<path d="M350.606 128.697V23.061H349.799V128.697H350.606Z" fill="#6986B3"/>
<path d="M254.025 11.1558H243.091V113.089H254.025V11.1558Z" fill="#EBF3FF"/>
<path d="M258.284 11.1558H249.766V113.089H258.284V11.1558Z" fill="#6986B3"/>
<path d="M264.959 11.1558H254.025V113.089H264.959V11.1558Z" fill="#EBF3FF"/>
<path d="M269.218 11.1558H260.699V113.089H269.218V11.1558Z" fill="#6986B3"/>
<path d="M275.892 11.1558H264.959V113.089H275.892V11.1558Z" fill="#EBF3FF"/>
<path d="M346.537 11.1558H340.236V113.089H346.537V11.1558Z" fill="#EBF3FF"/>
<path d="M348.992 11.1558H344.083V113.089H348.992V11.1558Z" fill="#6986B3"/>
<path d="M352.837 11.1558H346.536V113.089H352.837V11.1558Z" fill="#EBF3FF"/>
<path d="M355.292 11.1558H350.383V113.089H355.292V11.1558Z" fill="#6986B3"/>
<path d="M359.138 11.1558H352.837V113.089H359.138V11.1558Z" fill="#EBF3FF"/>
<path d="M92.2897 43.1022H80.8965V74.1879H92.2897V43.1022Z" fill="#5579B1"/>
<path d="M65.3257 81.3043L61.7111 91.1755H65.3257L87.4792 81.3043H65.3257Z" fill="#F3F8FF"/>
<path d="M61.7111 81.3043V91.1755L83.8647 81.3043H61.7111Z" fill="#6986B3"/>
<path d="M152.2 81.3043L148.586 91.1755H152.2L174.354 81.3043H152.2Z" fill="#F3F8FF"/>
<path d="M148.586 81.3043V91.1755L170.74 81.3043H148.586Z" fill="#6986B3"/>
<path d="M45.4487 81.7681H69.5421V74.2496H45.4487V81.7681Z" fill="#6986B3"/>
<path d="M189.329 74.2495H69.5415V81.768H189.329V74.2495Z" fill="#F3F8FF"/>
<path d="M111.266 74.1878H83.5369L80.1083 36.5186H107.837L111.266 74.1878Z" fill="#6986B3"/>
<path d="M112.702 74.1878H84.9731L81.5445 36.5186H109.273L112.702 74.1878Z" fill="#DAF2FF"/>
<path d="M88.7636 70.0179L86.094 40.6886H105.483L108.152 70.0179H88.7636Z" fill="white"/>
<path d="M123.888 61.9539C123.888 61.9539 124.401 74.187 144.055 74.187C163.709 74.187 164.222 61.9539 164.222 61.9539H123.888Z" fill="#5579B1"/>
<path d="M103.461 271.215H73.0785C71.6674 271.215 70.4698 270.35 70.0269 269.009C69.5841 267.67 70.0294 266.261 71.1628 265.419L71.6599 266.089C70.6416 266.845 70.5582 267.958 70.8192 268.748C71.0803 269.537 71.8109 270.381 73.0794 270.381H103.462C107.331 270.381 110.478 267.235 110.478 263.366V173.408C110.478 169.192 113.907 165.763 118.123 165.763H127.209V166.597H118.123C114.367 166.597 111.312 169.652 111.312 173.408V263.366C111.311 267.694 107.79 271.215 103.461 271.215Z" fill="#6986B3"/>
<path d="M204.954 167.478H150.232V273.919H204.954V167.478Z" fill="#6986B3"/>
<path d="M207.004 167.478H202.491V273.919H207.004V167.478Z" fill="#EBF3FF"/>
<path d="M99.6004 175.462H208.402V167.478H99.6004V175.462Z" fill="#EBF3FF"/>
<path d="M98.9484 167.478H44.2263V273.919H98.9484V167.478Z" fill="#6986B3"/>
<path d="M100.998 167.478H96.4856V273.919H100.998V167.478Z" fill="#EBF3FF"/>
<path d="M82.0015 135.701H132.992L140.382 165.812H89.3916L82.0015 135.701Z" fill="#6986B3"/>
<path d="M89.3916 165.812L89.5976 167.477H140.591L140.385 165.812H89.3916Z" fill="#6986B3"/>
<path d="M83.5711 135.701H134.562L141.952 165.812H90.9611L83.5711 135.701Z" fill="#DAF2FF"/>
<path d="M92.0395 164.437L85.325 137.077H133.483L140.198 164.437H92.0395Z" fill="white"/>
<path d="M104.248 165.812L104.454 167.477H160.604L160.398 165.812H104.248Z" fill="#DAF2FF"/>
<path d="M64.5192 159.891C64.5192 159.891 57.0157 146.955 67.4257 136.658C67.4257 136.658 70.1429 138.428 70.1012 140.809C70.0595 143.191 67.1913 143.793 67.8077 145.779C68.424 147.766 71.132 149.715 69.3547 151.358C67.5775 153.001 69.6408 154.463 69.5207 156.475C69.4006 158.488 64.5192 159.891 64.5192 159.891Z" fill="#DAF2FF"/>
<path d="M65.088 161.072C65.088 161.072 68.1304 146.431 55.0041 139.942C55.0041 139.942 52.9841 142.479 53.7739 144.726C54.5646 146.972 57.4761 146.639 57.5178 148.719C57.5595 150.799 55.6046 153.503 57.8088 154.501C60.0131 155.5 58.5161 157.538 59.265 159.409C60.0139 161.281 65.088 161.072 65.088 161.072Z" fill="#DAF2FF"/>
<path d="M53.5913 157.828C53.5913 157.828 53.8407 167.478 63.4083 167.478C72.976 167.478 73.2253 157.828 73.2253 157.828H53.5913Z" fill="#6986B3"/>
<path d="M188.509 273.92H186.603L181.163 247.103L180.207 242.405L174.272 213.18H151.512L139.18 273.92H137.275L149.841 212.059C149.93 211.625 150.309 211.316 150.756 211.316H175.035C175.475 211.316 175.861 211.625 175.943 212.059L181.157 237.728L182.112 242.419L188.509 273.92Z" fill="#EBF3FF"/>
<path d="M225.046 273.92H223.141L210.802 213.18H188.05L182.114 242.418L181.165 247.102L175.717 273.919H173.812L180.209 242.404L181.158 237.727L186.372 212.058C186.461 211.624 186.846 211.315 187.286 211.315H211.566C212.013 211.315 212.392 211.624 212.481 212.058L225.046 273.92Z" fill="#EBF3FF"/>
<path d="M168.948 212.247H210.765C218.748 212.247 225.266 205.861 225.428 197.879L226.987 134.327C227.108 128.343 222.291 123.426 216.306 123.426H190.093C184.661 123.426 180.095 127.502 179.479 132.899L168.948 212.247Z" fill="#5579B1"/>
<path d="M150.832 204.234H191.754V212.247H147.193C146.039 212.247 145.104 211.312 145.104 210.158V209.961C145.105 206.798 147.669 204.234 150.832 204.234Z" fill="#5579B1"/>
<path d="M208.742 311.586C298.048 311.586 370.445 307.358 370.445 302.142C370.445 296.927 298.048 292.699 208.742 292.699C119.436 292.699 47.0385 296.927 47.0385 302.142C47.0385 307.358 119.436 311.586 208.742 311.586Z" fill="#F0F6FF"/>
<path d="M230.794 97.463L231.338 97.9259C231.537 98.096 231.764 98.2637 231.974 98.4338C232.408 98.7732 232.848 99.1143 233.308 99.4371C234.212 100.099 235.175 100.698 236.133 101.299C238.062 102.489 240.09 103.534 242.191 104.399C244.288 105.271 246.435 106.04 248.643 106.599C249.193 106.747 249.753 106.846 250.309 106.974L251.144 107.157C251.319 107.19 251.177 107.172 251.098 107.195C251.001 107.226 250.846 107.278 250.781 107.343C250.705 107.417 250.709 107.413 250.741 107.395C250.816 107.308 250.993 107.001 251.123 106.609C251.4 105.812 251.572 104.737 251.67 103.649C251.768 102.55 251.801 101.401 251.794 100.239C251.78 97.9125 251.61 95.5356 251.424 93.1504C251.228 90.7643 250.947 88.3707 250.638 85.9755C250.352 83.5811 249.989 81.1717 249.633 78.8014L252.766 78.0825C254.147 82.853 255.239 87.6427 256.076 92.5566C256.505 95.0111 256.819 97.4964 256.991 100.047C257.075 101.324 257.12 102.617 257.082 103.956C257.034 105.299 256.942 106.668 256.532 108.217C256.313 108.991 256.031 109.833 255.403 110.746C255.061 111.206 254.667 111.677 254.077 112.087C253.509 112.488 252.789 112.812 252.084 112.923C251.404 113.061 250.644 113.002 250.218 112.932L249.255 112.777C248.615 112.666 247.967 112.582 247.33 112.447C244.777 111.933 242.261 111.218 239.821 110.296C237.386 109.361 235.031 108.222 232.773 106.906C231.654 106.228 230.553 105.521 229.486 104.744C228.948 104.364 228.424 103.957 227.898 103.544C227.637 103.327 227.38 103.123 227.12 102.891C226.85 102.656 226.626 102.46 226.294 102.142L230.794 97.463Z" fill="#FF8B7B"/>
<path d="M221.729 93.6658C230.88 92.4232 238.275 99.8216 238.275 99.8216L229.881 112.768C229.881 112.768 220.889 107.01 219.313 103.093C217.671 99.0134 217.034 94.303 221.729 93.6658Z" fill="#9FC6FF"/>
<path d="M249.748 79.924L246.71 73.82L254.688 73.7524C254.688 73.7524 254.849 78.0133 252.828 80.4603L249.748 79.924Z" fill="#FF8B7B"/>
<path d="M248.125 67.2572L254.058 68.3122L254.688 73.7524L246.71 73.82L248.125 67.2572Z" fill="#FF8B7B"/>
<path d="M189.281 295.162L196.76 295.883L201.931 278.329L194.453 277.608L189.281 295.162Z" fill="#FF8B7B"/>
<path d="M141.771 269.21L147.31 274.411L159.269 261.269L153.73 256.067L141.771 269.21Z" fill="#FF8B7B"/>
<path d="M149.868 271.917L145.706 264.416C145.554 264.144 145.242 264.027 144.954 264.137L138.546 266.576C137.881 266.828 137.593 267.682 137.953 268.305C139.449 270.894 140.302 272.069 142.133 275.368C143.259 277.397 145.452 282.051 147.008 284.853C148.529 287.593 151.416 286.266 151.02 284.96C149.241 279.104 149.576 275.845 150.078 273.26C150.168 272.794 150.089 272.316 149.868 271.917Z" fill="#14365B"/>
<path d="M197.636 293.604H188.579C188.25 293.604 187.952 293.833 187.864 294.154L185.895 301.321C185.69 302.064 186.237 302.748 187 302.755C190.191 302.783 191.704 302.77 195.687 302.77C198.138 302.77 204.478 302.77 207.861 302.77C211.171 302.77 211.864 299.424 210.494 299.121C204.353 297.762 200.814 295.888 198.919 294.1C198.577 293.777 198.119 293.604 197.636 293.604Z" fill="#14365B"/>
<path d="M201.928 278.333L199.264 287.382H191.57L194.446 277.613L201.928 278.333Z" fill="#EA7063"/>
<path d="M153.726 256.07L159.267 261.273L153.1 268.045L147.559 262.842L153.726 256.07Z" fill="#EA7063"/>
<path d="M230.765 88.4925C230.708 82.431 225.223 80.3085 225.223 80.3085C225.223 80.3085 232.086 67.3123 228.544 58.6937C225.002 50.076 213.39 48.5464 209.697 52.578C203.223 52.2994 201.158 61.6127 201.158 61.6127C201.158 61.6127 195.742 62.5159 194.278 66.4616C192.814 70.4072 197.266 74.8541 197.266 74.8541C197.266 74.8541 191.08 75.7206 188.804 80.4469C186.528 85.1732 187.923 91.5341 194.764 96.9876C204.703 104.911 222.981 94.9719 222.981 94.9719C222.981 94.9719 230.831 95.4598 230.765 88.4925Z" fill="#0F264C"/>
<path d="M229.559 94.5215C229.559 94.5215 232.874 95.9801 221.754 139.985C209.495 138.925 196.826 137.829 190.86 137.313C192.466 124.785 193.151 117.033 189.373 90.7093C189.373 90.7093 195.968 89.8611 202.641 90.1155C207.861 90.3148 212.136 90.5166 216.669 91.3289C222.648 92.4006 229.559 94.5215 229.559 94.5215Z" fill="#9FC6FF"/>
<path d="M221.594 92.3681C219.993 91.9845 218.3 91.6175 216.673 91.3256C212.136 90.5166 207.866 90.3164 202.645 90.1163C201.036 90.0579 199.426 90.0579 197.917 90.0913L198.951 92.0595C199.134 92.4098 203.538 100.625 211.903 105.287L214.205 106.571L216.348 105.045C221.752 101.2 222.553 96.1795 221.594 92.3681Z" fill="white"/>
<path d="M205.398 74.4404C205.893 79.0308 206.061 87.3774 202.642 90.1163C202.642 90.1163 206.551 97.5322 213.935 101.646C220.48 96.9893 216.671 91.3298 216.671 91.3298C211.742 89.6926 212.195 85.9688 213.375 82.5377L205.398 74.4404Z" fill="#FF8B7B"/>
<path d="M208.649 77.7439L213.37 82.5336C213.088 83.345 212.851 84.1732 212.722 84.9863C210.823 84.5418 208.074 82.5686 208.044 80.5378C208.03 79.5245 208.445 78.1976 208.649 77.7439Z" fill="#EA7063"/>
<path d="M205.203 64.0105C204.3 71.534 203.757 74.699 206.817 79.2051C211.419 85.9822 220.858 85.4468 223.991 78.3444C226.811 71.9518 227.814 60.722 221.073 56.4302C214.431 52.201 206.107 56.487 205.203 64.0105Z" fill="#FF8B7B"/>
<path d="M211.028 54.7631C216.826 56.2618 211.097 73.8983 201.819 68.7809C201.819 68.7809 202.236 61.335 204.807 58.1733C207.379 55.0108 211.028 54.7631 211.028 54.7631Z" fill="#0F264C"/>
<path d="M210.402 55.7405C212.904 59.8062 231.463 67.5207 225.224 58.7637C218.986 50.0067 210.402 55.7405 210.402 55.7405Z" fill="#0F264C"/>
<path d="M202.821 70.5123C202.691 72.0778 203.298 73.5573 204.147 74.5281C205.427 75.9892 207.125 75.101 207.656 73.3388C208.134 71.7533 208.044 69.082 206.334 68.2681C204.649 67.4666 202.968 68.7217 202.821 70.5123Z" fill="#FF8B7B"/>
<path d="M221.754 139.985C221.754 139.985 232.207 186.224 225.229 218.822C220.556 240.654 203.702 284.759 203.702 284.759L190.525 284.42C190.525 284.42 203.283 238.135 205.921 219.933C210.433 188.798 199.131 138.029 199.131 138.029L221.754 139.985Z" fill="#0F264C"/>
<path d="M209.701 149.322L203.112 159.714C204.789 170.489 206.457 183.966 206.882 196.935C216.148 180.347 211.761 158.104 209.701 149.322Z" fill="#0A1B35"/>
<path d="M204.787 285.442L188.509 285.026L189.451 280.025L207.224 280.867L204.787 285.442Z" fill="#9FC6FF"/>
<path d="M214.999 139.493C214.999 139.493 208.868 188.53 195.576 215.301C184.84 236.924 156.192 267.705 156.192 267.705L148.867 260.159C148.867 260.159 168.217 226.705 176.197 212.342C195.762 177.121 179.772 150.244 190.861 137.312L214.999 139.493Z" fill="#0F264C"/>
<path d="M156.933 268.715L147.481 259.501L150.616 255.234L160.918 265.884L156.933 268.715Z" fill="#9FC6FF"/>
<path d="M190.555 135.461L188.923 138.106C188.796 138.311 189.031 138.552 189.388 138.583L221.787 141.385C222.065 141.409 222.308 141.292 222.34 141.119L222.858 138.377C222.894 138.187 222.666 138.005 222.362 137.978L191.078 135.272C190.848 135.252 190.636 135.328 190.555 135.461Z" fill="#0053CC"/>
<path d="M194.454 139.322L193.616 139.25C193.449 139.236 193.329 139.138 193.35 139.035L194.054 135.476C194.074 135.372 194.228 135.298 194.395 135.313L195.233 135.386C195.4 135.4 195.52 135.498 195.499 135.602L194.795 139.16C194.774 139.263 194.621 139.336 194.454 139.322Z" fill="#0F264C"/>
<path d="M219.406 141.48L218.568 141.407C218.401 141.393 218.281 141.296 218.302 141.192L219.006 137.633C219.027 137.529 219.18 137.456 219.347 137.47L220.185 137.543C220.352 137.557 220.472 137.654 220.451 137.758L219.747 141.316C219.727 141.422 219.573 141.495 219.406 141.48Z" fill="#0F264C"/>
<path d="M206.93 140.401L206.092 140.328C205.925 140.314 205.805 140.216 205.826 140.113L206.529 136.554C206.55 136.45 206.704 136.377 206.87 136.391L207.709 136.463C207.875 136.478 207.996 136.575 207.975 136.679L207.271 140.237C207.25 140.342 207.097 140.416 206.93 140.401Z" fill="#0F264C"/>
<path d="M216.108 68.1529C215.997 68.7584 216.229 69.3088 216.624 69.3806C217.019 69.4523 217.431 69.0203 217.542 68.4148C217.652 67.8093 217.421 67.2589 217.025 67.1871C216.63 67.1146 216.219 67.5474 216.108 68.1529Z" fill="#0F264C"/>
<path d="M222.956 69.4047C222.845 70.0102 223.076 70.5598 223.472 70.6324C223.868 70.7049 224.279 70.2721 224.389 69.6666C224.5 69.0611 224.269 68.5107 223.873 68.439C223.477 68.3664 223.067 68.7992 222.956 69.4047Z" fill="#0F264C"/>
<path d="M223.692 68.4407L225.224 68.2872C225.224 68.2872 224.269 69.2872 223.692 68.4407Z" fill="#0F264C"/>
<path d="M220.956 70.1145C220.956 70.1145 221.507 72.9101 222.409 74.3754C221.473 74.9759 220.175 74.3863 220.175 74.3863L220.956 70.1145Z" fill="#FF5652"/>
<path d="M217.639 76.3545C217.63 76.3545 217.621 76.3536 217.612 76.352C214.778 75.834 213.835 73.6556 213.797 73.5631C213.764 73.4863 213.801 73.3988 213.878 73.3662C213.952 73.3329 214.041 73.3696 214.074 73.4463C214.083 73.4672 214.997 75.568 217.667 76.0559C217.748 76.0709 217.803 76.1493 217.788 76.2302C217.773 76.3036 217.711 76.3545 217.639 76.3545Z" fill="#0F264C"/>
<path d="M214.478 63.4333C214.388 63.4333 214.298 63.3924 214.24 63.3148C214.139 63.1831 214.164 62.9946 214.296 62.8937C215.859 61.6986 217.407 62.229 217.476 62.2523C217.632 62.3074 217.713 62.4784 217.658 62.6351C217.603 62.7911 217.431 62.8712 217.275 62.8195C217.223 62.8019 215.958 62.3808 214.661 63.3716C214.606 63.4133 214.542 63.4333 214.478 63.4333Z" fill="#0F264C"/>
<path d="M226.821 67.1055C226.734 67.1055 226.647 67.0679 226.588 66.9954C225.546 65.7244 224.188 65.8561 224.173 65.857C224.008 65.8728 223.86 65.7552 223.841 65.5909C223.823 65.4258 223.942 65.2773 224.107 65.259C224.175 65.2532 225.806 65.0922 227.053 66.6142C227.158 66.7427 227.14 66.932 227.011 67.0371C226.955 67.0838 226.888 67.1055 226.821 67.1055Z" fill="#0F264C"/>
<path d="M191.719 101.762C190.444 104.362 189.065 106.653 187.588 108.998C186.086 111.302 184.499 113.551 182.785 115.719C181.082 117.895 179.211 119.951 177.245 121.93C176.223 122.89 175.231 123.871 174.139 124.767L173.337 125.453L173.137 125.624L172.872 125.83C172.69 125.968 172.514 126.111 172.318 126.233C171.561 126.747 170.728 127.168 169.873 127.461C168.152 128.056 166.397 128.15 164.794 128.018C163.188 127.87 161.691 127.507 160.287 127.033C157.481 126.069 154.966 124.757 152.623 123.255C147.94 120.235 143.81 116.748 139.998 112.795L142.211 110.464C144.205 112.065 146.313 113.663 148.46 115.106C150.592 116.58 152.784 117.953 155.029 119.139C157.276 120.306 159.557 121.371 161.834 121.98C164.094 122.612 166.352 122.72 167.911 122.064C168.751 121.727 169.175 121.36 170.218 120.359C171.148 119.527 172.004 118.596 172.883 117.698C174.593 115.835 176.179 113.847 177.732 111.823C179.276 109.79 180.706 107.656 182.07 105.484C182.762 104.404 183.425 103.305 184.072 102.2C184.697 101.103 185.351 99.9434 185.893 98.9067L191.719 101.762Z" fill="#FF8B7B"/>
<path d="M144.255 111.482L141.286 105.344L136.351 111.614C136.351 111.614 139.623 114.348 142.795 114.246L144.255 111.482Z" fill="#FF8B7B"/>
<path d="M138.043 103.555L135.247 108.894L136.352 111.614L141.286 105.344L138.043 103.555Z" fill="#FF8B7B"/>
<path d="M189.374 90.7093C185.588 91.379 180.28 102.242 180.28 102.242L190.674 111.643C190.674 111.643 197.42 102.595 197.016 97.6599C196.671 93.4699 194.198 89.8562 189.374 90.7093Z" fill="#9FC6FF"/>
<path d="M151.329 275.948C151.23 275.948 151.133 275.931 151.035 275.899C150.129 275.595 149.536 273.917 149.261 272.945C149.244 272.887 149.264 272.825 149.311 272.787C149.359 272.749 149.423 272.742 149.475 272.771C149.752 272.916 152.171 274.209 152.25 275.164C152.263 275.31 152.228 275.521 151.992 275.699C151.771 275.865 151.55 275.948 151.329 275.948ZM149.653 273.212C150.073 274.553 150.616 275.441 151.13 275.615C151.352 275.69 151.574 275.639 151.81 275.459C151.946 275.356 151.954 275.256 151.949 275.189C151.902 274.604 150.483 273.682 149.653 273.212Z" fill="#407BFF"/>
<path d="M151.702 273.59C150.843 273.59 149.79 273.316 149.327 273.033C149.281 273.005 149.254 272.955 149.255 272.902C149.256 272.848 149.286 272.799 149.333 272.774C149.415 272.729 151.329 271.676 152.362 272.042C152.631 272.137 152.821 272.317 152.927 272.577C153.091 272.981 152.912 273.215 152.79 273.319C152.56 273.512 152.158 273.59 151.702 273.59ZM149.736 272.904C150.556 273.254 152.148 273.469 152.594 273.089C152.669 273.026 152.742 272.923 152.647 272.69C152.575 272.511 152.448 272.392 152.261 272.326C151.559 272.077 150.281 272.635 149.736 272.904Z" fill="#407BFF"/>
<path d="M201.656 295.069C200.786 295.069 199.838 294.901 199.182 294.755C199.119 294.741 199.072 294.689 199.065 294.625C199.058 294.561 199.093 294.5 199.151 294.472C199.523 294.297 202.807 292.778 203.637 293.34C203.742 293.411 203.866 293.55 203.851 293.805C203.831 294.159 203.68 294.444 203.404 294.653C202.993 294.963 202.349 295.069 201.656 295.069ZM199.699 294.554C200.675 294.737 202.479 294.973 203.223 294.413C203.429 294.256 203.536 294.052 203.551 293.788C203.559 293.666 203.511 293.617 203.469 293.589C203.003 293.271 201.063 293.954 199.699 294.554Z" fill="#407BFF"/>
<path d="M199.215 294.759C199.18 294.759 199.146 294.747 199.118 294.723C199.075 294.687 199.056 294.63 199.068 294.575C199.1 294.436 199.849 291.192 201.629 291.403C202.075 291.456 202.198 291.677 202.221 291.854C202.333 292.679 200.26 294.342 199.271 294.747C199.254 294.755 199.234 294.759 199.215 294.759ZM201.468 291.694C200.33 291.694 199.665 293.58 199.445 294.335C200.515 293.774 201.996 292.422 201.924 291.894C201.919 291.856 201.903 291.739 201.594 291.702C201.55 291.697 201.509 291.694 201.468 291.694Z" fill="#407BFF"/>
<path d="M216.845 67.1888L218.377 67.0354C218.377 67.0354 217.422 68.0354 216.845 67.1888Z" fill="#0F264C"/>
<path opacity="0.6" d="M154.107 19.6566L129.664 177.65L267.207 198.93L291.65 40.9353L154.107 19.6566ZM210.618 109.541C192.998 106.815 180.92 90.3156 183.646 72.6948C186.373 55.0674 202.871 42.9961 220.492 45.7225C238.119 48.4496 250.192 64.9412 247.465 82.5686C244.738 100.189 228.245 112.268 210.618 109.541Z" fill="#0053CC"/>
<path opacity="0.3" d="M263.049 192.928L262.843 192.897L125.093 171.586L125.125 171.38L149.6 13.1798L149.806 13.2115L287.555 34.5219L287.523 34.7279L263.049 192.928ZM125.569 171.237L262.7 192.452L287.08 34.8705L149.948 13.6552L125.569 171.237Z" fill="#0053CC"/>
<path d="M215.575 111.175C213.876 111.175 212.156 111.045 210.427 110.778C192.15 107.95 179.582 90.7801 182.409 72.5039C183.78 63.6493 188.515 55.858 195.744 50.5671C202.972 45.2763 211.829 43.1162 220.682 44.4865C238.959 47.3145 251.527 64.4833 248.701 82.7604C246.14 99.3061 231.824 111.175 215.575 111.175ZM210.809 108.305C227.72 110.922 243.611 99.2903 246.228 82.3776C248.844 65.4649 237.212 49.5764 220.3 46.9593C212.107 45.6916 203.911 47.6907 197.222 52.5863C190.532 57.4827 186.15 64.6926 184.882 72.8867C182.266 89.7993 193.897 105.688 210.809 108.305Z" fill="white"/>
<path d="M184.024 119.325L153.728 114.638L152.674 121.446L182.97 126.134L184.024 119.325Z" fill="#9FC6FF"/>
<path d="M208.507 123.113L188.01 119.942L186.957 126.75L207.454 129.922L208.507 123.113Z" fill="#9FC6FF"/>
<path d="M261.153 145.383L151.593 128.431L150.54 135.239L260.099 152.191L261.153 145.383Z" fill="white"/>
<path d="M203.832 151.335L149.354 142.906L148.3 149.715L202.779 158.144L203.832 151.335Z" fill="white"/>
<path d="M249.596 158.415L213.154 152.777L212.1 159.585L248.543 165.224L249.596 158.415Z" fill="white"/>
<path d="M234.696 170.932L147.115 157.381L146.061 164.189L233.643 177.74L234.696 170.932Z" fill="white"/>
<path d="M293.12 198.929H292.286C292.286 196.853 292.03 194.787 291.527 192.791L292.335 192.587C292.856 194.651 293.12 196.784 293.12 198.929ZM289.851 188.153C288.026 184.333 285.236 181.006 281.782 178.53L282.267 177.852C285.835 180.409 288.718 183.847 290.603 187.793L289.851 188.153Z" fill="#9FC6FF"/>
<path d="M267.207 175.936C254.508 175.936 244.213 186.231 244.213 198.93C244.213 211.629 254.508 221.924 267.207 221.924C279.906 221.924 290.201 211.629 290.201 198.93C290.201 186.231 279.906 175.936 267.207 175.936ZM267.207 218.942C256.155 218.942 247.195 209.982 247.195 198.93C247.195 187.878 256.155 178.918 267.207 178.918C278.259 178.918 287.219 187.878 287.219 198.93C287.218 209.982 278.259 218.942 267.207 218.942Z" fill="#9FC6FF"/>
<path opacity="0.8" d="M267.207 218.942C278.259 218.942 287.219 209.982 287.219 198.93C287.219 187.878 278.259 178.918 267.207 178.918C256.155 178.918 247.195 187.878 247.195 198.93C247.195 209.982 256.155 218.942 267.207 218.942Z" fill="#0053CC"/>
<path d="M264.094 211.591L252.353 199.85L255.301 196.902L264.094 205.695L279.112 190.676L282.061 193.624L264.094 211.591Z" fill="white"/>
</svg>
