<svg width="486" height="326" viewBox="0 0 486 326" fill="none" xmlns="http://www.w3.org/2000/svg">
<path style="mix-blend-mode:screen" opacity="0.2" d="M23.6465 222.445C30.3151 222.445 35.7211 188.743 35.7211 147.17C35.7211 105.596 30.3151 71.894 23.6465 71.894C16.9778 71.894 11.5718 105.596 11.5718 147.17C11.5718 188.743 16.9778 222.445 23.6465 222.445Z" fill="url(#paint0_radial_134_2784)"/>
<path style="mix-blend-mode:screen" opacity="0.1" d="M18.5829 249.756C28.846 249.756 37.1658 203.826 37.1658 147.17C37.1658 90.5131 28.846 44.5837 18.5829 44.5837C8.31986 44.5837 0 90.5131 0 147.17C0 203.826 8.31986 249.756 18.5829 249.756Z" fill="url(#paint1_radial_134_2784)"/>
<path style="mix-blend-mode:screen" opacity="0.4" d="M27.562 198.37C31.0787 198.37 33.9296 175.447 33.9296 147.17C33.9296 118.893 31.0787 95.9697 27.562 95.9697C24.0453 95.9697 21.1945 118.893 21.1945 147.17C21.1945 175.447 24.0453 198.37 27.562 198.37Z" fill="url(#paint2_radial_134_2784)"/>
<path style="mix-blend-mode:screen" opacity="0.51" d="M32.8034 147.17C32.8034 162.049 31.3017 174.11 29.4493 174.11C27.597 174.11 26.0955 162.049 26.0955 147.17C26.0955 132.291 27.5971 120.229 29.4493 120.229C31.3016 120.229 32.8034 132.291 32.8034 147.17Z" fill="url(#paint3_radial_134_2784)"/>
<path d="M129.953 148.604C129.953 148.604 146.781 162.104 150.376 164.166C154.775 166.69 152.683 176.767 140.744 170.285C128.806 163.803 120.141 155.697 114.928 155.473C114.928 155.473 126.931 161.73 129.225 166.2C131.519 170.67 136.313 176.096 137.669 179.337C138.189 180.582 134.739 185.683 128.204 180.758C123.221 177.003 122.199 173.697 118.429 170.555C114.676 167.426 108.126 162.948 104.271 162.092C104.271 162.092 113.728 169.084 114.892 170.408C116.991 172.794 117.375 183.548 117.754 185.931C117.968 187.275 112.332 190.289 110.038 182.131C107.744 173.973 92.9386 170.397 92.9386 170.397C92.9386 170.397 81.4694 166.82 80.7396 164.362C80.0098 161.903 109.517 137.652 129.953 148.604Z" fill="url(#paint4_linear_134_2784)"/>
<path style="mix-blend-mode:multiply" opacity="0.3" d="M100.729 162.526C100.44 153.738 125.322 153.713 133.39 151.342C131.336 149.714 129.953 148.604 129.953 148.604C109.517 137.652 80.0096 161.903 80.7396 164.362C81.4696 166.82 92.9386 170.397 92.9386 170.397C96.4563 171.315 99.8556 172.692 103.06 174.498C102.746 170.642 100.863 166.567 100.729 162.526Z" fill="url(#paint5_linear_134_2784)"/>
<path d="M61.9805 133.432C80.67 133.311 100.718 132.197 110.633 135.162C120.548 138.128 158.585 141.735 159.92 146.316C161.858 152.963 153.667 154.831 140.797 152.292C127.763 149.722 102.443 152.699 99.2146 156.406C95.9864 160.113 99.2217 163.87 103.972 165.835C108.448 167.687 113.639 169.229 115.014 173.717C115.887 176.565 114.973 182.539 105.722 178.966C93.3555 174.189 92.2211 171.284 81.3493 169.762C76.6184 169.101 68.8445 168.124 63.376 163.523C61.3562 161.824 58.838 160.95 56.2721 161.058L30.5185 162.101C27.2867 162.101 27.5621 132.866 30.5185 132.866C30.5185 132.866 56.6756 133.467 61.9805 133.432Z" fill="url(#paint6_linear_134_2784)"/>
<path style="mix-blend-mode:multiply" opacity="0.5" d="M114.109 171.84C113.944 172.502 113.695 173.137 113.37 173.728C111.612 176.856 108.714 176.755 105.761 175.749C102.014 174.379 98.4448 172.502 95.1399 170.164C93.0305 168.598 90.6978 167.41 88.2328 166.646C85.6802 166.184 83.0997 165.921 80.5116 165.859C71.9041 165.063 65.8552 157.71 57.3849 156.562C50.6777 155.653 44.5635 157.995 37.9606 158.448C34.2848 158.7 30.5883 158.062 28.4827 155.216C28.8304 159.194 29.4999 162.101 30.5185 162.101L56.272 161.058C58.838 160.95 61.3562 161.824 63.3759 163.523C68.8444 168.124 76.6184 169.101 81.3493 169.762C92.2211 171.284 93.3555 174.189 105.722 178.966C114.973 182.539 115.886 176.565 115.014 173.717C114.804 173.045 114.499 172.412 114.109 171.84Z" fill="url(#paint7_linear_134_2784)"/>
<path style="mix-blend-mode:screen" opacity="0.2" d="M462.354 222.445C469.022 222.445 474.428 188.743 474.428 147.17C474.428 105.596 469.022 71.894 462.354 71.894C455.685 71.894 450.279 105.596 450.279 147.17C450.279 188.743 455.685 222.445 462.354 222.445Z" fill="url(#paint8_radial_134_2784)"/>
<path style="mix-blend-mode:screen" opacity="0.1" d="M467.417 249.756C477.68 249.756 486 203.826 486 147.17C486 90.5131 477.68 44.5837 467.417 44.5837C457.154 44.5837 448.834 90.5131 448.834 147.17C448.834 203.826 457.154 249.756 467.417 249.756Z" fill="url(#paint9_radial_134_2784)"/>
<path style="mix-blend-mode:screen" opacity="0.4" d="M458.438 198.37C461.955 198.37 464.806 175.447 464.806 147.17C464.806 118.893 461.955 95.9697 458.438 95.9697C454.921 95.9697 452.07 118.893 452.07 147.17C452.07 175.447 454.921 198.37 458.438 198.37Z" fill="url(#paint10_radial_134_2784)"/>
<path style="mix-blend-mode:screen" opacity="0.51" d="M453.197 147.17C453.197 132.291 454.698 120.229 456.551 120.229C458.403 120.229 459.905 132.291 459.905 147.17C459.905 162.049 458.403 174.11 456.551 174.11C454.698 174.11 453.197 162.049 453.197 147.17Z" fill="url(#paint11_radial_134_2784)"/>
<path d="M356.047 145.735C356.047 145.735 339.219 132.236 335.624 130.173C331.225 127.65 333.317 117.573 345.256 124.054C357.194 130.536 365.859 138.643 371.072 138.866C371.072 138.866 359.069 132.61 356.775 128.139C354.481 123.669 349.687 118.243 348.331 115.002C347.811 113.757 351.261 108.656 357.796 113.582C362.779 117.337 363.801 120.642 367.571 123.785C371.324 126.914 377.874 131.391 381.729 132.248C381.729 132.248 372.272 125.255 371.108 123.931C369.009 121.546 368.625 110.791 368.246 108.409C368.032 107.064 373.668 104.05 375.962 112.208C378.256 120.367 393.061 123.943 393.061 123.943C393.061 123.943 404.531 127.519 405.261 129.978C405.99 132.436 376.483 156.687 356.047 145.735Z" fill="url(#paint12_linear_134_2784)"/>
<path style="mix-blend-mode:multiply" opacity="0.3" d="M385.271 131.813C385.56 140.602 360.678 140.627 352.61 142.997C354.664 144.626 356.047 145.735 356.047 145.735C376.483 156.687 405.99 132.436 405.261 129.978C404.531 127.519 393.061 123.943 393.061 123.943C389.544 123.025 386.144 121.648 382.94 119.842C383.254 123.698 385.137 127.773 385.271 131.813Z" fill="url(#paint13_linear_134_2784)"/>
<path d="M424.02 160.907C405.33 161.029 385.282 162.143 375.367 159.177C365.452 156.212 327.416 152.604 326.08 148.024C324.142 141.377 332.333 139.509 345.203 142.047C358.237 144.618 383.557 141.641 386.785 137.933C390.014 134.226 386.778 130.47 382.028 128.505C377.552 126.653 372.361 125.11 370.986 120.623C370.114 117.775 371.027 111.801 380.278 115.374C392.645 120.15 393.779 123.056 404.651 124.577C409.382 125.239 417.156 126.215 422.624 130.816C424.644 132.516 427.162 133.39 429.728 133.281L455.482 132.238C458.713 132.238 458.438 161.473 455.482 161.473C455.482 161.473 429.324 160.873 424.02 160.907Z" fill="url(#paint14_linear_134_2784)"/>
<path style="mix-blend-mode:multiply" opacity="0.5" d="M371.891 122.5C372.056 121.837 372.305 121.202 372.63 120.611C374.388 117.483 377.286 117.585 380.239 118.59C383.986 119.961 387.555 121.838 390.86 124.175C392.969 125.741 395.302 126.929 397.767 127.693C400.32 128.156 402.9 128.419 405.488 128.48C414.096 129.276 420.145 136.63 428.615 137.777C435.322 138.686 441.437 136.344 448.039 135.891C451.715 135.639 455.412 136.277 457.517 139.124C457.17 135.145 456.5 132.238 455.482 132.238L429.728 133.281C427.162 133.39 424.644 132.516 422.624 130.816C417.156 126.215 409.382 125.239 404.651 124.577C393.779 123.056 392.645 120.151 380.278 115.374C371.027 111.801 370.114 117.775 370.986 120.623C371.196 121.294 371.501 121.927 371.891 122.5Z" fill="url(#paint15_linear_134_2784)"/>
<path d="M238.63 53.5498C222.79 53.5498 209.949 77.2331 209.949 106.448C209.949 135.663 222.79 159.346 238.63 159.346H248.575V53.5498H238.63Z" fill="url(#paint16_linear_134_2784)"/>
<path style="mix-blend-mode:multiply" opacity="0.4" d="M211.805 106.448C211.805 77.2331 224.646 53.5498 240.486 53.5498H238.63C222.79 53.5498 209.949 77.2331 209.949 106.448C209.949 135.663 222.79 159.346 238.63 159.346H240.486C224.646 159.346 211.805 135.663 211.805 106.448Z" fill="url(#paint17_linear_134_2784)"/>
<path d="M248.575 159.346C264.415 159.346 277.256 135.663 277.256 106.448C277.256 77.2331 264.415 53.5498 248.575 53.5498C232.734 53.5498 219.894 77.2331 219.894 106.448C219.894 135.663 232.734 159.346 248.575 159.346Z" fill="url(#paint18_linear_134_2784)"/>
<path style="mix-blend-mode:multiply" opacity="0.4" d="M219.798 106.84C219.798 77.6255 232.639 53.9423 248.479 53.9423C249.696 53.948 250.909 54.0933 252.096 54.3759C250.469 53.8353 248.775 53.5569 247.071 53.5498C231.231 53.5498 218.39 77.2331 218.39 106.448C218.39 133.402 229.323 155.631 243.454 158.913C230.012 154.529 219.798 132.892 219.798 106.84Z" fill="url(#paint19_linear_134_2784)"/>
<path style="mix-blend-mode:screen" d="M221.302 106.84C221.302 77.6255 234.143 53.9423 249.983 53.9423C251.2 53.948 252.412 54.0933 253.6 54.3759C251.972 53.8353 250.279 53.5569 248.575 53.5498C232.734 53.5498 219.894 77.2331 219.894 106.448C219.894 133.402 230.827 155.631 244.958 158.913C231.515 154.529 221.302 132.892 221.302 106.84Z" fill="url(#paint20_linear_134_2784)"/>
<path d="M251.391 145.454C262.588 145.454 271.664 127.991 271.664 106.448C271.664 84.9055 262.588 67.4419 251.391 67.4419C240.194 67.4419 231.118 84.9055 231.118 106.448C231.118 127.991 240.194 145.454 251.391 145.454Z" fill="url(#paint21_linear_134_2784)"/>
<path style="mix-blend-mode:screen" d="M272.369 107.921C272.369 129.465 263.291 146.934 252.099 146.934C245.957 146.934 240.453 141.689 236.751 133.387C240.425 140.837 245.631 145.459 251.39 145.459C262.582 145.459 271.66 127.99 271.66 106.446C271.796 97.545 270.056 88.7254 266.568 80.6458C270.553 89.0925 272.545 98.4577 272.369 107.921Z" fill="url(#paint22_linear_134_2784)"/>
<path d="M261.576 113.631C261.529 109.546 259.622 105.944 256.811 105.218C259.227 104.118 260.748 101.299 260.702 97.1368C260.808 94.8278 260.163 92.551 258.876 90.6955C257.59 88.84 255.742 87.5208 253.649 86.9635V81.4691L252.37 80.6854H250.952L250.957 86.3148L248.893 85.8173L248.9 80.0472L247.489 79.167H246.071L246.046 85.1309L242.318 84.0612H240.9V128.397H242.318L245.87 127.149L245.843 133.729H247.261L248.836 132.747L248.844 126.402L250.994 125.863L251 132.038H252.418L253.649 131.169V125.192C256.026 124.568 258.122 123.068 259.571 120.954C261.02 118.841 261.73 116.249 261.576 113.631ZM256.606 97.8866C256.624 100.878 254.44 102.396 251.766 102.282L245.938 102.036V91.699L251.749 92.6331C253.019 92.7181 254.215 93.3002 255.111 94.2688C256.006 95.2374 256.538 96.525 256.606 97.8866ZM252.345 118.955L245.938 120.031V108.526L252.196 108.319C254.935 108.228 256.584 110.085 256.606 113.286C256.742 114.643 256.369 116.003 255.571 117.066C254.772 118.129 253.612 118.808 252.345 118.955Z" fill="url(#paint23_linear_134_2784)"/>
<path d="M262.995 113.631C262.947 109.546 261.041 105.944 258.23 105.218C260.646 104.118 262.167 101.299 262.12 97.1368C262.226 94.8278 261.581 92.551 260.295 90.6955C259.008 88.84 257.161 87.5208 255.067 86.9635V81.4691L252.371 80.6854L252.376 86.3148L250.312 85.8173L250.319 80.0472L247.489 79.167L247.464 85.1309L242.318 84.0612V128.397L247.289 127.149L247.261 133.729L250.255 132.747L250.263 126.402L252.413 125.863L252.418 132.038L255.067 131.169V125.192C257.444 124.568 259.541 123.068 260.99 120.954C262.439 118.841 263.149 116.249 262.995 113.631ZM258.024 97.8866C258.042 100.878 255.858 102.396 253.185 102.282L247.357 102.036V91.699L253.168 92.6331C254.437 92.7181 255.634 93.3002 256.529 94.2688C257.425 95.2374 257.957 96.525 258.024 97.8866ZM253.764 118.955L247.357 120.031V108.526L253.615 108.319C256.354 108.228 258.003 110.085 258.024 113.286C258.16 114.643 257.788 116.003 256.989 117.066C256.19 118.129 255.03 118.808 253.764 118.955Z" fill="url(#paint24_linear_134_2784)"/>
<path style="mix-blend-mode:screen" d="M257.218 95.1291C257.652 95.5792 257.996 96.1185 258.232 96.7146C258.467 97.3107 258.587 97.9515 258.586 98.5986C258.604 101.59 256.42 103.108 253.747 102.994L247.348 102.715V102.027L253.185 102.282C255.858 102.397 258.042 100.878 258.024 97.8867C258.026 96.9006 257.744 95.9379 257.218 95.1291ZM258.586 113.997C258.623 113.289 258.522 112.579 258.289 111.914C258.057 111.249 257.699 110.643 257.237 110.134C257.778 111.081 258.052 112.176 258.024 113.286C258.16 114.643 257.788 116.003 256.989 117.066C256.19 118.129 255.03 118.809 253.764 118.955L247.349 120.033V120.839L254.326 119.667C255.592 119.52 256.752 118.841 257.551 117.778C258.35 116.714 258.722 115.355 258.586 113.997ZM247.848 127.02L247.282 127.162L247.261 133.729L247.827 133.544L247.848 127.02ZM252.966 125.729L252.405 125.87L252.418 132.038L252.98 131.854L252.966 125.729ZM250.312 85.8174L250.297 86.4533L252.938 87.0266L252.933 81.3974L255.067 82.0177V81.4692L252.371 80.6855L252.376 86.3148L250.312 85.8174ZM242.88 84.7732L248.026 85.8428L248.051 79.879L250.318 80.5841L250.319 80.0473L247.489 79.1672L247.464 85.131L242.318 84.0613V128.397L242.88 128.256V84.7732Z" fill="url(#paint25_linear_134_2784)"/>
<path d="M251.391 67.4419C250.92 67.4456 250.45 67.4805 249.983 67.5461C260.522 68.939 268.848 85.8174 268.848 106.448C268.848 127.079 260.522 143.957 249.983 145.35C250.45 145.416 250.92 145.45 251.391 145.454C262.588 145.454 271.664 127.991 271.664 106.448C271.664 84.9055 262.588 67.4419 251.391 67.4419Z" fill="url(#paint26_linear_134_2784)"/>
<path style="mix-blend-mode:multiply" opacity="0.4" d="M221.787 87.5441H211.842C212.202 85.8122 212.609 84.1265 213.063 82.4871H223.007C222.555 84.126 222.148 85.8117 221.787 87.5441ZM226.926 71.7708H216.982C216.224 73.3775 215.513 75.0599 214.864 76.828H224.809C225.458 75.0599 226.169 73.3775 226.926 71.7708ZM248.575 53.5498H238.63C236.03 53.5654 233.465 54.1957 231.118 55.3957H241.062C243.409 54.1957 245.974 53.5654 248.575 53.5498ZM219.893 106.448C219.893 105.6 219.907 104.758 219.928 103.919H209.984C209.962 104.758 209.949 105.6 209.949 106.448C209.949 107.296 209.962 108.138 209.984 108.977H219.928C219.907 108.138 219.893 107.296 219.893 106.448ZM233.847 61.0548H223.903C222.499 62.6221 221.222 64.3138 220.084 66.1118H230.029C231.166 64.3137 232.443 62.622 233.847 61.0548ZM220.8 93.2033H210.856C210.624 94.8587 210.437 96.5443 210.292 98.2603H220.237C220.381 96.5463 220.569 94.8606 220.8 93.2033ZM231.118 157.5C233.465 158.7 236.03 159.331 238.63 159.346H248.575C245.974 159.331 243.409 158.7 241.062 157.5H231.118ZM230.029 146.784H220.084C221.222 148.582 222.499 150.274 223.903 151.841H233.847C232.443 150.274 231.166 148.582 230.029 146.784ZM221.787 125.352H211.842C212.202 127.084 212.609 128.769 213.063 130.409H223.007C222.555 128.77 222.148 127.084 221.787 125.352ZM224.809 136.068H214.864C215.513 137.836 216.224 139.519 216.982 141.125H226.926C226.169 139.519 225.458 137.836 224.809 136.068ZM220.237 114.636H210.292C210.437 116.35 210.625 118.035 210.856 119.693H220.8C220.569 118.037 220.381 116.352 220.237 114.636Z" fill="url(#paint27_linear_134_2784)"/>
<path style="mix-blend-mode:overlay" d="M234.213 103.816C251.277 103.816 265.109 86.6475 265.109 65.4687C265.109 44.2899 251.277 27.1211 234.213 27.1211C217.15 27.1211 203.318 44.2899 203.318 65.4687C203.318 86.6475 217.15 103.816 234.213 103.816Z" fill="url(#paint28_radial_134_2784)"/>
<path style="mix-blend-mode:overlay" d="M262.996 181.625C280.059 181.625 293.891 164.457 293.891 143.278C293.891 122.099 280.059 104.93 262.996 104.93C245.933 104.93 232.1 122.099 232.1 143.278C232.1 164.457 245.933 181.625 262.996 181.625Z" fill="url(#paint29_radial_134_2784)"/>
<path style="mix-blend-mode:overlay" d="M253.6 124.668C270.663 124.668 284.496 107.499 284.496 86.32C284.496 65.1412 270.663 47.9724 253.6 47.9724C236.537 47.9724 222.705 65.1412 222.705 86.32C222.705 107.499 236.537 124.668 253.6 124.668Z" fill="url(#paint30_radial_134_2784)"/>
<path style="mix-blend-mode:overlay" d="M250.452 158.828C267.515 158.828 281.348 141.659 281.348 120.48C281.348 99.3016 267.515 82.1328 250.452 82.1328C233.389 82.1328 219.557 99.3016 219.557 120.48C219.557 141.659 233.389 158.828 250.452 158.828Z" fill="url(#paint31_radial_134_2784)"/>
<path style="mix-blend-mode:overlay" d="M225.218 169.866C249.022 169.866 268.32 145.914 268.32 116.368C268.32 86.8212 249.022 62.8691 225.218 62.8691C201.413 62.8691 182.115 86.8212 182.115 116.368C182.115 145.914 201.413 169.866 225.218 169.866Z" fill="url(#paint32_radial_134_2784)"/>
<path style="mix-blend-mode:color-dodge" opacity="0.79" d="M352.397 222.147C352.397 236.106 314.421 252.992 241.844 252.992C184.46 252.992 133.603 239.546 133.603 222.147V0H352.397V222.147Z" fill="url(#paint33_linear_134_2784)"/>
<path d="M243 268.231C172.242 268.231 116.815 253.715 116.815 235.184C116.815 216.652 172.242 202.136 243 202.136C313.758 202.136 369.185 216.652 369.185 235.184C369.185 253.715 313.758 268.231 243 268.231ZM243 203.534C174.208 203.534 118.241 217.732 118.241 235.184C118.241 252.635 174.208 266.833 243 266.833C311.792 266.833 367.759 252.635 367.759 235.184C367.759 217.732 311.792 203.534 243 203.534ZM243 257.677C181.524 257.677 133.369 246.415 133.369 232.04C133.369 217.665 181.524 206.405 243 206.405C304.475 206.405 352.631 217.665 352.631 232.04C352.631 246.415 304.475 257.677 243 257.677ZM243 207.802C184.347 207.802 134.795 218.902 134.795 232.04C134.795 245.179 184.347 256.279 243 256.279C301.654 256.279 351.205 245.179 351.205 232.04C351.205 218.902 301.654 207.802 243 207.802Z" fill="url(#paint34_linear_134_2784)"/>
<path style="mix-blend-mode:overlay" d="M243 252.992C181.656 252.992 133.603 239.228 133.603 221.656C133.603 204.083 181.656 190.318 243 190.318C304.344 190.318 352.397 204.083 352.397 221.656C352.397 239.228 304.344 252.992 243 252.992ZM243 191.643C183.36 191.643 134.84 205.106 134.84 221.656C134.84 238.204 183.36 251.667 243 251.667C302.64 251.667 351.16 238.204 351.16 221.656C351.16 205.106 302.64 191.643 243 191.643ZM243 242.984C189.703 242.984 147.955 232.306 147.955 218.674C147.955 205.043 189.703 194.366 243 194.366C296.296 194.366 338.045 205.043 338.045 218.674C338.045 232.306 296.296 242.984 243 242.984ZM243 195.691C192.15 195.691 149.191 206.217 149.191 218.674C149.191 231.133 192.15 241.659 243 241.659C293.85 241.659 336.809 231.133 336.809 218.674C336.809 206.217 293.85 195.691 243 195.691Z" fill="url(#paint35_linear_134_2784)"/>
<path style="mix-blend-mode:lighten" d="M217.48 216.61C208.875 215.86 200.328 214.482 191.899 212.485C187.177 211.436 182.594 209.769 178.252 207.52C174.797 205.557 173.045 203.48 173.045 201.345H180.277C180.277 203.266 181.853 205.136 184.96 206.901C188.867 208.924 192.992 210.425 197.241 211.369C204.827 213.166 212.519 214.407 220.263 215.081L217.48 216.61ZM305.913 210.306L299.839 209.407C290.633 212.318 281.164 214.175 271.592 214.945L274.529 216.458C287.397 215.149 298.25 213.021 305.913 210.306ZM312.955 195.603C307.886 192.469 298.884 189.787 286.923 187.847L282.742 189.198C293.51 190.945 301.611 193.358 306.173 196.178L312.955 195.603ZM245.238 186.47V184.814C230.986 184.722 216.748 185.786 202.646 187.996L206.917 189.333C219.605 187.344 232.415 186.387 245.238 186.47ZM190.266 202.984C189.155 201.184 189.749 199.307 191.983 197.556C194.618 195.735 197.515 194.392 200.558 193.582C205.52 192.122 210.577 191.057 215.686 190.397L218.43 191.476C213.833 192.071 209.283 193.029 204.818 194.343C202.08 195.071 199.473 196.279 197.103 197.919C195.091 199.494 194.556 201.183 195.556 202.803L190.266 202.984ZM241.279 213.727L241.464 212.47C232.744 212.448 224.037 211.761 215.408 210.413L212.33 211.442C221.917 212.939 231.591 213.703 241.279 213.727ZM284.672 209.044C291.43 207.065 295.443 204.675 296.279 202.133L290.95 202.036C290.197 204.324 286.586 206.475 280.507 208.256L284.672 209.044ZM284.276 195.373L288.863 194.727C283.004 192.422 274.368 190.652 263.889 189.609L261.808 190.768C269.444 191.323 276.988 192.869 284.276 195.373ZM243 192.835C224.659 192.835 209.79 196.608 209.79 201.261C209.79 205.915 224.659 209.687 243 209.687C261.341 209.687 276.21 205.915 276.21 201.261C276.21 196.608 261.341 192.835 243 192.835ZM243 233.725C190.428 233.725 147.657 221.655 147.657 206.818C147.657 191.982 190.428 179.913 243 179.913C295.572 179.913 338.343 191.983 338.343 206.818C338.343 221.654 295.572 233.725 243 233.725ZM243 180.306C191.197 180.306 149.052 191.864 149.052 206.071C149.052 220.278 191.197 231.836 243 231.836C294.803 231.836 336.948 220.278 336.948 206.071C336.948 191.864 294.803 180.306 243 180.306ZM243 224.911C196.794 224.911 159.204 215.614 159.204 204.185C159.204 192.757 196.794 183.46 243 183.46C289.205 183.46 326.796 192.757 326.796 204.185C326.796 215.614 289.205 224.911 243 224.911ZM243 183.817C197.593 183.817 160.651 192.679 160.651 203.57C160.651 214.462 197.593 223.323 243 223.323C288.407 223.323 325.349 214.462 325.349 203.57C325.349 192.678 288.407 183.817 243 183.817Z" fill="url(#paint36_radial_134_2784)"/>
<path d="M243 190.854C218.609 190.854 198.765 186.728 198.765 181.656C198.765 176.585 218.609 172.459 243 172.459C267.391 172.459 287.235 176.585 287.235 181.656C287.235 186.728 267.391 190.854 243 190.854ZM243 172.618C219.03 172.618 199.529 176.672 199.529 181.656C199.529 186.64 219.03 190.695 243 190.695C266.97 190.695 286.471 186.64 286.471 181.656C286.471 176.672 266.97 172.618 243 172.618Z" fill="url(#paint37_radial_134_2784)"/>
<path d="M243 181.625C227.773 181.625 215.386 179.05 215.386 175.884C215.386 172.718 227.773 170.142 243 170.142C258.226 170.142 270.614 172.718 270.614 175.884C270.614 179.05 258.226 181.625 243 181.625ZM243 170.241C228.036 170.241 215.863 172.773 215.863 175.884C215.863 178.995 228.036 181.526 243 181.526C257.963 181.526 270.137 178.995 270.137 175.884C270.137 172.773 257.963 170.241 243 170.241Z" fill="url(#paint38_radial_134_2784)"/>
<path style="mix-blend-mode:color-dodge" opacity="0.7" d="M292.623 62.7647C292.623 63.3358 292.465 63.8941 292.169 64.369C291.873 64.8438 291.452 65.2139 290.96 65.4325C290.468 65.651 289.926 65.7082 289.403 65.5968C288.881 65.4854 288.401 65.2104 288.024 64.8066C287.647 64.4027 287.391 63.8882 287.287 63.3281C287.183 62.768 287.236 62.1874 287.44 61.6597C287.644 61.1321 287.989 60.6812 288.432 60.3639C288.875 60.0466 289.396 59.8773 289.929 59.8773C290.643 59.8773 291.329 60.1815 291.834 60.723C292.339 61.2645 292.623 61.9989 292.623 62.7647ZM233.054 77.3774C232.68 77.3774 232.314 77.4964 232.003 77.7193C231.692 77.9422 231.449 78.259 231.306 78.6296C231.162 79.0003 231.125 79.4081 231.198 79.8016C231.271 80.1951 231.451 80.5566 231.716 80.8403C231.981 81.1239 232.318 81.3171 232.685 81.3954C233.052 81.4737 233.433 81.4335 233.778 81.28C234.124 81.1264 234.42 80.8664 234.628 80.5329C234.836 80.1993 234.947 79.8071 234.947 79.4059C234.947 79.1395 234.898 78.8757 234.803 78.6296C234.708 78.3835 234.568 78.1599 234.392 77.9715C234.217 77.7831 234.008 77.6337 233.778 77.5318C233.549 77.4299 233.303 77.3774 233.054 77.3774ZM200.888 59.8773C200.468 59.8773 200.058 60.0107 199.708 60.2607C199.359 60.5107 199.087 60.8661 198.927 61.2818C198.766 61.6976 198.724 62.155 198.806 62.5964C198.888 63.0377 199.09 63.4431 199.387 63.7613C199.684 64.0795 200.062 64.2962 200.474 64.384C200.886 64.4717 201.312 64.4267 201.7 64.2544C202.088 64.0822 202.42 63.7906 202.653 63.4164C202.886 63.0422 203.011 62.6023 203.011 62.1523C203.01 61.5489 202.787 60.9703 202.389 60.5436C201.991 60.117 201.451 59.8773 200.888 59.8773ZM183.554 143.189C182.974 143.189 182.407 143.374 181.925 143.719C181.443 144.065 181.067 144.555 180.845 145.13C180.623 145.704 180.565 146.336 180.678 146.946C180.791 147.556 181.07 148.116 181.48 148.556C181.89 148.995 182.413 149.295 182.982 149.416C183.551 149.537 184.141 149.475 184.677 149.237C185.213 148.999 185.671 148.596 185.993 148.079C186.315 147.563 186.487 146.955 186.487 146.333C186.487 145.499 186.178 144.7 185.628 144.11C185.078 143.521 184.332 143.189 183.554 143.189ZM210.657 182.75C210.034 182.75 209.424 182.948 208.905 183.319C208.387 183.691 207.983 184.218 207.744 184.836C207.505 185.453 207.443 186.133 207.565 186.788C207.686 187.444 207.987 188.046 208.428 188.519C208.869 188.991 209.43 189.313 210.042 189.444C210.654 189.574 211.288 189.507 211.864 189.251C212.44 188.996 212.932 188.562 213.279 188.007C213.625 187.451 213.81 186.798 213.81 186.129C213.81 185.233 213.478 184.373 212.887 183.739C212.295 183.106 211.493 182.75 210.657 182.75ZM280.393 159.317C280.056 159.317 279.727 159.424 279.447 159.625C279.167 159.825 278.948 160.111 278.819 160.444C278.69 160.778 278.657 161.145 278.722 161.499C278.788 161.854 278.95 162.179 279.189 162.435C279.427 162.69 279.73 162.864 280.061 162.934C280.391 163.005 280.734 162.969 281.045 162.83C281.357 162.692 281.623 162.458 281.81 162.158C281.997 161.857 282.097 161.504 282.097 161.143C282.097 160.659 281.918 160.194 281.598 159.852C281.279 159.509 280.845 159.317 280.393 159.317ZM316.547 99.0771C315.836 99.0771 315.142 99.3029 314.551 99.726C313.96 100.149 313.5 100.75 313.228 101.454C312.956 102.157 312.885 102.931 313.024 103.678C313.162 104.425 313.505 105.111 314.007 105.649C314.509 106.188 315.149 106.554 315.846 106.703C316.543 106.852 317.265 106.775 317.921 106.484C318.578 106.193 319.139 105.699 319.533 105.066C319.928 104.433 320.139 103.689 320.139 102.927C320.139 102.422 320.046 101.921 319.865 101.454C319.685 100.987 319.42 100.562 319.087 100.205C318.753 99.8472 318.357 99.5636 317.921 99.3702C317.485 99.1767 317.018 99.0771 316.547 99.0771ZM273.464 40.9778C273.094 40.9778 272.732 41.0954 272.424 41.3159C272.116 41.5363 271.877 41.8496 271.735 42.2161C271.593 42.5826 271.556 42.986 271.628 43.3751C271.701 43.7642 271.879 44.1217 272.141 44.4022C272.402 44.6827 272.736 44.8738 273.099 44.9512C273.462 45.0286 273.838 44.9889 274.18 44.837C274.522 44.6852 274.814 44.4281 275.02 44.0982C275.226 43.7683 275.336 43.3805 275.336 42.9838C275.336 42.7203 275.287 42.4595 275.193 42.2161C275.099 41.9727 274.961 41.7516 274.787 41.5653C274.614 41.379 274.407 41.2313 274.18 41.1305C273.953 41.0297 273.71 40.9778 273.464 40.9778ZM157.219 42.9838C156.827 42.9838 156.443 43.1086 156.116 43.3424C155.79 43.5762 155.535 43.9085 155.385 44.2974C155.235 44.6862 155.196 45.114 155.272 45.5267C155.349 45.9395 155.538 46.3186 155.816 46.6162C156.093 46.9138 156.447 47.1164 156.832 47.1985C157.217 47.2806 157.616 47.2384 157.979 47.0774C158.342 46.9163 158.652 46.6436 158.87 46.2936C159.088 45.9437 159.204 45.5323 159.204 45.1115C159.204 44.8321 159.153 44.5554 159.053 44.2972C158.954 44.039 158.807 43.8045 158.623 43.6069C158.439 43.4093 158.22 43.2526 157.979 43.1457C157.738 43.0388 157.48 42.9837 157.219 42.9838ZM166.596 215.893C166.064 215.893 165.544 216.062 165.102 216.379C164.66 216.695 164.316 217.145 164.112 217.672C163.909 218.198 163.856 218.777 163.96 219.336C164.063 219.895 164.319 220.408 164.695 220.811C165.071 221.214 165.55 221.489 166.071 221.6C166.593 221.711 167.133 221.654 167.624 221.436C168.116 221.218 168.535 220.848 168.831 220.375C169.126 219.901 169.284 219.344 169.284 218.774C169.284 218.396 169.214 218.021 169.079 217.672C168.944 217.322 168.746 217.004 168.496 216.737C168.247 216.469 167.95 216.257 167.624 216.112C167.298 215.968 166.949 215.893 166.596 215.893ZM159.398 129.671C158.967 129.671 158.546 129.808 158.188 130.065C157.829 130.322 157.55 130.686 157.385 131.113C157.22 131.54 157.177 132.01 157.261 132.463C157.345 132.916 157.553 133.332 157.857 133.659C158.162 133.986 158.55 134.208 158.973 134.298C159.396 134.388 159.834 134.342 160.232 134.165C160.631 133.989 160.971 133.689 161.21 133.305C161.45 132.921 161.578 132.469 161.578 132.007C161.578 131.388 161.348 130.794 160.939 130.356C160.531 129.918 159.976 129.671 159.398 129.671ZM309.789 128.339C309.451 128.339 309.12 128.446 308.839 128.648C308.557 128.85 308.338 129.136 308.208 129.471C308.079 129.806 308.045 130.175 308.111 130.531C308.177 130.887 308.34 131.214 308.579 131.47C308.819 131.727 309.124 131.901 309.456 131.972C309.788 132.043 310.132 132.007 310.444 131.868C310.757 131.729 311.024 131.494 311.212 131.192C311.4 130.89 311.501 130.536 311.501 130.173C311.501 129.687 311.32 129.22 311 128.876C310.679 128.532 310.243 128.339 309.789 128.339ZM327.875 46.9774C327.647 46.9774 327.424 47.05 327.234 47.186C327.044 47.322 326.896 47.5152 326.809 47.7413C326.721 47.9674 326.699 48.2163 326.743 48.4563C326.788 48.6963 326.898 48.9168 327.059 49.0899C327.221 49.2629 327.426 49.3808 327.65 49.4285C327.874 49.4763 328.106 49.4518 328.317 49.3581C328.528 49.2645 328.708 49.1059 328.835 48.9024C328.962 48.6989 329.03 48.4596 329.03 48.2149C329.03 48.0524 329 47.8915 328.942 47.7413C328.884 47.5912 328.799 47.4548 328.692 47.3399C328.585 47.225 328.457 47.1338 328.317 47.0716C328.177 47.0094 328.027 46.9774 327.875 46.9774ZM301.311 198.962C300.627 198.962 299.957 199.18 299.388 199.587C298.818 199.995 298.374 200.575 298.112 201.253C297.85 201.931 297.782 202.678 297.915 203.398C298.049 204.118 298.379 204.779 298.863 205.298C299.347 205.817 299.964 206.171 300.636 206.314C301.308 206.457 302.004 206.383 302.637 206.103C303.269 205.822 303.81 205.346 304.191 204.736C304.571 204.125 304.774 203.408 304.774 202.673C304.774 201.689 304.409 200.745 303.76 200.049C303.111 199.353 302.23 198.962 301.311 198.962ZM165.855 178.575C165.47 178.575 165.094 178.697 164.773 178.927C164.453 179.156 164.204 179.482 164.056 179.863C163.909 180.245 163.87 180.665 163.945 181.069C164.02 181.474 164.206 181.846 164.478 182.138C164.751 182.43 165.098 182.629 165.475 182.71C165.853 182.79 166.245 182.749 166.601 182.591C166.957 182.433 167.261 182.165 167.475 181.822C167.689 181.479 167.803 181.075 167.803 180.662C167.803 180.109 167.598 179.578 167.232 179.186C166.867 178.795 166.372 178.575 165.855 178.575ZM337.228 192.124C337.008 192.124 336.792 192.194 336.609 192.326C336.425 192.457 336.283 192.643 336.198 192.862C336.114 193.08 336.092 193.32 336.135 193.552C336.178 193.784 336.284 193.997 336.44 194.164C336.596 194.331 336.794 194.445 337.011 194.491C337.227 194.537 337.451 194.513 337.655 194.423C337.858 194.332 338.032 194.179 338.155 193.983C338.277 193.786 338.343 193.555 338.343 193.319C338.343 193.002 338.225 192.698 338.016 192.474C337.807 192.25 337.524 192.124 337.228 192.124Z" fill="url(#paint39_linear_134_2784)"/>
<g opacity="0.68">
<path style="mix-blend-mode:color-dodge" d="M144.46 54.8552H144.728C145.09 54.8552 145.436 55.0091 145.692 55.283C145.947 55.5568 146.091 55.9283 146.091 56.3156V172.873C146.091 173.26 145.947 173.631 145.692 173.905C145.436 174.179 145.09 174.333 144.728 174.333H144.46C144.098 174.333 143.752 174.179 143.496 173.905C143.241 173.631 143.097 173.26 143.097 172.873V56.3158C143.097 55.9284 143.241 55.5569 143.496 55.283C143.752 55.0091 144.098 54.8552 144.46 54.8552Z" fill="url(#paint40_linear_134_2784)"/>
<path d="M174.609 18.5427H174.878C175.239 18.5427 175.586 18.6966 175.842 18.9705C176.097 19.2443 176.241 19.6158 176.241 20.0031V89.7068C176.241 90.0942 176.097 90.4657 175.841 90.7396C175.586 91.0135 175.239 91.1674 174.878 91.1674H174.609C174.248 91.1674 173.902 91.0135 173.646 90.7397C173.39 90.4658 173.247 90.0943 173.247 89.707V20.0031C173.247 19.6158 173.39 19.2443 173.646 18.9705C173.902 18.6966 174.248 18.5427 174.609 18.5427Z" fill="url(#paint41_linear_134_2784)"/>
<path d="M173.113 138.021H173.381C173.743 138.021 174.089 138.174 174.345 138.448C174.6 138.722 174.744 139.094 174.744 139.481V209.185C174.744 209.572 174.6 209.944 174.345 210.217C174.089 210.491 173.743 210.645 173.381 210.645H173.113C172.751 210.645 172.405 210.491 172.149 210.217C171.894 209.944 171.75 209.572 171.75 209.185V139.481C171.75 139.094 171.894 138.722 172.149 138.448C172.405 138.174 172.751 138.021 173.113 138.021Z" fill="url(#paint42_linear_134_2784)"/>
<path style="mix-blend-mode:color-dodge" d="M341.272 30.4758H341.54C341.902 30.4758 342.248 30.6297 342.504 30.9036C342.76 31.1775 342.903 31.549 342.903 31.9364V101.64C342.903 102.027 342.76 102.399 342.504 102.673C342.248 102.947 341.902 103.101 341.54 103.101H341.272C340.911 103.101 340.564 102.947 340.308 102.673C340.053 102.399 339.909 102.027 339.909 101.64V31.9364C339.909 31.549 340.053 31.1775 340.308 30.9036C340.564 30.6297 340.911 30.4758 341.272 30.4758Z" fill="url(#paint43_linear_134_2784)"/>
<path d="M207.545 40.8296H207.814C208.175 40.8296 208.522 40.9835 208.777 41.2574C209.033 41.5313 209.176 41.9028 209.176 42.2901V111.994C209.176 112.381 209.033 112.753 208.777 113.027C208.522 113.3 208.175 113.454 207.814 113.454H207.545C207.184 113.454 206.837 113.3 206.582 113.027C206.326 112.753 206.183 112.381 206.183 111.994V42.2901C206.183 41.9028 206.326 41.5313 206.582 41.2574C206.837 40.9835 207.184 40.8296 207.545 40.8296Z" fill="url(#paint44_linear_134_2784)"/>
<path d="M239.85 176.679H240.118C240.48 176.679 240.826 176.833 241.082 177.107C241.337 177.381 241.481 177.752 241.481 178.14V247.843C241.481 248.231 241.337 248.602 241.082 248.876C240.826 249.15 240.48 249.304 240.118 249.304H239.85C239.488 249.304 239.142 249.15 238.886 248.876C238.631 248.602 238.487 248.231 238.487 247.844V178.14C238.487 177.752 238.631 177.381 238.886 177.107C239.142 176.833 239.488 176.679 239.85 176.679Z" fill="url(#paint45_linear_134_2784)"/>
<path d="M280.886 40.8296H281.155C281.516 40.8296 281.863 40.9834 282.118 41.2573C282.374 41.5312 282.517 41.9026 282.517 42.29V111.994C282.517 112.381 282.374 112.753 282.118 113.027C281.862 113.3 281.516 113.454 281.155 113.454H280.886C280.525 113.454 280.178 113.3 279.923 113.027C279.667 112.753 279.523 112.381 279.523 111.994V42.2901C279.523 41.9028 279.667 41.5313 279.923 41.2574C280.178 40.9835 280.525 40.8296 280.886 40.8296Z" fill="url(#paint46_linear_134_2784)"/>
<path d="M319.318 140.367H319.586C319.948 140.367 320.294 140.521 320.55 140.795C320.805 141.069 320.949 141.44 320.949 141.827V211.531C320.949 211.919 320.805 212.29 320.55 212.564C320.294 212.838 319.948 212.992 319.586 212.992H319.318C318.956 212.992 318.61 212.838 318.354 212.564C318.099 212.29 317.955 211.918 317.955 211.531V141.827C317.955 141.636 317.99 141.446 318.059 141.269C318.127 141.091 318.228 140.93 318.354 140.795C318.481 140.659 318.631 140.552 318.796 140.478C318.962 140.405 319.139 140.367 319.318 140.367Z" fill="url(#paint47_linear_134_2784)"/>
<path d="M306.572 23.5911H306.84C307.202 23.5911 307.548 23.7449 307.804 24.0188C308.059 24.2928 308.203 24.6642 308.203 25.0516V141.609C308.203 141.996 308.059 142.367 307.804 142.641C307.548 142.915 307.202 143.069 306.84 143.069H306.572C306.21 143.069 305.864 142.915 305.608 142.641C305.353 142.367 305.209 141.996 305.209 141.609V25.0516C305.209 24.6642 305.353 24.2928 305.608 24.0188C305.864 23.7449 306.21 23.5911 306.572 23.5911Z" fill="url(#paint48_linear_134_2784)"/>
</g>
<g style="mix-blend-mode:color-dodge" opacity="0.77">
<path style="mix-blend-mode:overlay" d="M321.489 275.897C362.469 275.897 395.69 240.29 395.69 196.366C395.69 152.442 362.469 116.834 321.489 116.834C280.509 116.834 247.288 152.442 247.288 196.366C247.288 240.29 280.509 275.897 321.489 275.897Z" fill="url(#paint49_radial_134_2784)"/>
<path style="mix-blend-mode:overlay" d="M207.241 269.691C236.219 238.633 236.219 188.276 207.241 157.217C178.264 126.158 131.282 126.158 102.305 157.217C73.3277 188.276 73.3277 238.633 102.305 269.691C131.282 300.75 178.264 300.75 207.241 269.691Z" fill="url(#paint50_radial_134_2784)"/>
<path style="mix-blend-mode:overlay" d="M243 323C305.685 323 356.502 268.533 356.502 201.345C356.502 134.157 305.685 79.6899 243 79.6899C180.315 79.6899 129.498 134.157 129.498 201.345C129.498 268.533 180.315 323 243 323Z" fill="url(#paint51_radial_134_2784)"/>
</g>
<defs>
<radialGradient id="paint0_radial_134_2784" cx="0" cy="0" r="1" gradientUnits="userSpaceOnUse" gradientTransform="translate(23.6464 147.17) scale(12.9452 73.9522)">
<stop offset="0.00501" stop-color="#6C3DFF"/>
<stop offset="0.32558" stop-color="#6E3FFF"/>
<stop offset="0.50599" stop-color="#7448FE"/>
<stop offset="0.65161" stop-color="#7F55FC"/>
<stop offset="0.77867" stop-color="#8E69F9"/>
<stop offset="0.89241" stop-color="#A282F6"/>
<stop offset="0.99725" stop-color="#BAA1F2"/>
<stop offset="1" stop-color="#BBA2F2"/>
</radialGradient>
<radialGradient id="paint1_radial_134_2784" cx="0" cy="0" r="1" gradientUnits="userSpaceOnUse" gradientTransform="translate(18.583 147.169) scale(19.923 100.782)">
<stop offset="0.00501" stop-color="#6C3DFF"/>
<stop offset="0.32558" stop-color="#6E3FFF"/>
<stop offset="0.50599" stop-color="#7448FE"/>
<stop offset="0.65161" stop-color="#7F55FC"/>
<stop offset="0.77867" stop-color="#8E69F9"/>
<stop offset="0.89241" stop-color="#A282F6"/>
<stop offset="0.99725" stop-color="#BAA1F2"/>
<stop offset="1" stop-color="#BBA2F2"/>
</radialGradient>
<radialGradient id="paint2_radial_134_2784" cx="0" cy="0" r="1" gradientUnits="userSpaceOnUse" gradientTransform="translate(27.562 147.17) scale(6.74675 50.4341)">
<stop offset="0.00501" stop-color="#6C3DFF"/>
<stop offset="0.32558" stop-color="#6E3FFF"/>
<stop offset="0.50599" stop-color="#7448FE"/>
<stop offset="0.65161" stop-color="#7F55FC"/>
<stop offset="0.77867" stop-color="#8E69F9"/>
<stop offset="0.89241" stop-color="#A282F6"/>
<stop offset="0.99725" stop-color="#BAA1F2"/>
<stop offset="1" stop-color="#BBA2F2"/>
</radialGradient>
<radialGradient id="paint3_radial_134_2784" cx="0" cy="0" r="1" gradientUnits="userSpaceOnUse" gradientTransform="translate(29.4494 147.17) scale(17.9307 19.2187)">
<stop stop-color="#BB3BF2"/>
<stop offset="0.99812" stop-color="#6C3DFF"/>
</radialGradient>
<linearGradient id="paint4_linear_134_2784" x1="152.521" y1="187.645" x2="95.899" y2="156.122" gradientUnits="userSpaceOnUse">
<stop stop-color="#FFD3AB"/>
<stop offset="1" stop-color="#FF8AAC"/>
</linearGradient>
<linearGradient id="paint5_linear_134_2784" x1="152.808" y1="187.13" x2="96.1859" y2="155.607" gradientUnits="userSpaceOnUse">
<stop stop-color="#FFD3AB"/>
<stop offset="1" stop-color="#FF8AAC"/>
</linearGradient>
<linearGradient id="paint6_linear_134_2784" x1="138.324" y1="156.47" x2="11.6013" y2="156.47" gradientUnits="userSpaceOnUse">
<stop stop-color="#FFD3AB"/>
<stop offset="1" stop-color="#FF88AD"/>
</linearGradient>
<linearGradient id="paint7_linear_134_2784" x1="138.324" y1="167.644" x2="11.6013" y2="167.644" gradientUnits="userSpaceOnUse">
<stop stop-color="#FFD3AB"/>
<stop offset="1" stop-color="#FF88AD"/>
</linearGradient>
<radialGradient id="paint8_radial_134_2784" cx="0" cy="0" r="1" gradientUnits="userSpaceOnUse" gradientTransform="translate(462.354 147.17) rotate(180) scale(12.9452 73.9522)">
<stop offset="0.00501" stop-color="#6C3DFF"/>
<stop offset="0.32558" stop-color="#6E3FFF"/>
<stop offset="0.50599" stop-color="#7448FE"/>
<stop offset="0.65161" stop-color="#7F55FC"/>
<stop offset="0.77867" stop-color="#8E69F9"/>
<stop offset="0.89241" stop-color="#A282F6"/>
<stop offset="0.99725" stop-color="#BAA1F2"/>
<stop offset="1" stop-color="#BBA2F2"/>
</radialGradient>
<radialGradient id="paint9_radial_134_2784" cx="0" cy="0" r="1" gradientUnits="userSpaceOnUse" gradientTransform="translate(467.417 147.171) rotate(180) scale(19.923 100.782)">
<stop offset="0.00501" stop-color="#6C3DFF"/>
<stop offset="0.32558" stop-color="#6E3FFF"/>
<stop offset="0.50599" stop-color="#7448FE"/>
<stop offset="0.65161" stop-color="#7F55FC"/>
<stop offset="0.77867" stop-color="#8E69F9"/>
<stop offset="0.89241" stop-color="#A282F6"/>
<stop offset="0.99725" stop-color="#BAA1F2"/>
<stop offset="1" stop-color="#BBA2F2"/>
</radialGradient>
<radialGradient id="paint10_radial_134_2784" cx="0" cy="0" r="1" gradientUnits="userSpaceOnUse" gradientTransform="translate(458.438 147.17) rotate(180) scale(6.74673 50.4341)">
<stop offset="0.00501" stop-color="#6C3DFF"/>
<stop offset="0.32558" stop-color="#6E3FFF"/>
<stop offset="0.50599" stop-color="#7448FE"/>
<stop offset="0.65161" stop-color="#7F55FC"/>
<stop offset="0.77867" stop-color="#8E69F9"/>
<stop offset="0.89241" stop-color="#A282F6"/>
<stop offset="0.99725" stop-color="#BAA1F2"/>
<stop offset="1" stop-color="#BBA2F2"/>
</radialGradient>
<radialGradient id="paint11_radial_134_2784" cx="0" cy="0" r="1" gradientUnits="userSpaceOnUse" gradientTransform="translate(456.551 147.17) rotate(180) scale(17.9307 19.2187)">
<stop stop-color="#BB3BF2"/>
<stop offset="0.99812" stop-color="#6C3DFF"/>
</radialGradient>
<linearGradient id="paint12_linear_134_2784" x1="333.479" y1="106.695" x2="390.101" y2="138.218" gradientUnits="userSpaceOnUse">
<stop stop-color="#FFD3AB"/>
<stop offset="1" stop-color="#FF8AAC"/>
</linearGradient>
<linearGradient id="paint13_linear_134_2784" x1="333.192" y1="107.21" x2="389.814" y2="138.733" gradientUnits="userSpaceOnUse">
<stop stop-color="#FFD3AB"/>
<stop offset="1" stop-color="#FF8AAC"/>
</linearGradient>
<linearGradient id="paint14_linear_134_2784" x1="347.676" y1="137.87" x2="474.399" y2="137.87" gradientUnits="userSpaceOnUse">
<stop stop-color="#FFD3AB"/>
<stop offset="1" stop-color="#FF88AD"/>
</linearGradient>
<linearGradient id="paint15_linear_134_2784" x1="347.676" y1="126.695" x2="474.399" y2="126.695" gradientUnits="userSpaceOnUse">
<stop stop-color="#FFD3AB"/>
<stop offset="1" stop-color="#FF88AD"/>
</linearGradient>
<linearGradient id="paint16_linear_134_2784" x1="232.675" y1="106.448" x2="203.577" y2="106.448" gradientUnits="userSpaceOnUse">
<stop stop-color="#FFDA19"/>
<stop offset="1" stop-color="#FF9C19"/>
</linearGradient>
<linearGradient id="paint17_linear_134_2784" x1="227.916" y1="106.448" x2="204.911" y2="106.448" gradientUnits="userSpaceOnUse">
<stop stop-color="#FFDA19"/>
<stop offset="1" stop-color="#FF9C19"/>
</linearGradient>
<linearGradient id="paint18_linear_134_2784" x1="297.252" y1="106.448" x2="218.534" y2="106.448" gradientUnits="userSpaceOnUse">
<stop stop-color="#FFDA19"/>
<stop offset="0.9975" stop-color="#FFFF70"/>
</linearGradient>
<linearGradient id="paint19_linear_134_2784" x1="235.243" y1="126.622" x2="235.243" y2="70.9019" gradientUnits="userSpaceOnUse">
<stop stop-color="#FFDA19"/>
<stop offset="1" stop-color="#FF9C19"/>
</linearGradient>
<linearGradient id="paint20_linear_134_2784" x1="236.747" y1="126.622" x2="236.747" y2="70.9019" gradientUnits="userSpaceOnUse">
<stop stop-color="#FFDA19"/>
<stop offset="0.9975" stop-color="#FFFF70"/>
</linearGradient>
<linearGradient id="paint21_linear_134_2784" x1="276.967" y1="106.448" x2="229.613" y2="106.448" gradientUnits="userSpaceOnUse">
<stop stop-color="#FFDA19"/>
<stop offset="1" stop-color="#FFD95A"/>
</linearGradient>
<linearGradient id="paint22_linear_134_2784" x1="277.027" y1="113.79" x2="235.429" y2="113.79" gradientUnits="userSpaceOnUse">
<stop stop-color="#FFDA19"/>
<stop offset="0.9975" stop-color="#FFFF70"/>
</linearGradient>
<linearGradient id="paint23_linear_134_2784" x1="265.498" y1="106.448" x2="228.84" y2="106.448" gradientUnits="userSpaceOnUse">
<stop stop-color="#FFDA19"/>
<stop offset="1" stop-color="#FF9C19"/>
</linearGradient>
<linearGradient id="paint24_linear_134_2784" x1="269.736" y1="106.448" x2="233.051" y2="106.448" gradientUnits="userSpaceOnUse">
<stop stop-color="#FFDA19"/>
<stop offset="0.9975" stop-color="#FFFF70"/>
</linearGradient>
<linearGradient id="paint25_linear_134_2784" x1="263.89" y1="106.448" x2="235.027" y2="106.448" gradientUnits="userSpaceOnUse">
<stop stop-color="#FFDA19"/>
<stop offset="0.9975" stop-color="#FFFF70"/>
</linearGradient>
<linearGradient id="paint26_linear_134_2784" x1="249.983" y1="106.448" x2="271.664" y2="106.448" gradientUnits="userSpaceOnUse">
<stop stop-color="#FFDA19"/>
<stop offset="1" stop-color="#FF9C19"/>
</linearGradient>
<linearGradient id="paint27_linear_134_2784" x1="237.912" y1="106.448" x2="192.369" y2="106.448" gradientUnits="userSpaceOnUse">
<stop stop-color="#FFDA19"/>
<stop offset="1" stop-color="#FF9C19"/>
</linearGradient>
<radialGradient id="paint28_radial_134_2784" cx="0" cy="0" r="1" gradientUnits="userSpaceOnUse" gradientTransform="translate(234.213 65.4687) scale(30.8948 38.3487)">
<stop stop-color="white"/>
<stop offset="0.00738" stop-color="white" stop-opacity="0.96381"/>
<stop offset="0.04768" stop-color="white" stop-opacity="0.78417"/>
<stop offset="0.09309" stop-color="white" stop-opacity="0.61488"/>
<stop offset="0.1419" stop-color="white" stop-opacity="0.46688"/>
<stop offset="0.19502" stop-color="white" stop-opacity="0.33967"/>
<stop offset="0.25374" stop-color="white" stop-opacity="0.23299"/>
<stop offset="0.32001" stop-color="white" stop-opacity="0.14667"/>
<stop offset="0.39742" stop-color="white" stop-opacity="0.08036"/>
<stop offset="0.49311" stop-color="white" stop-opacity="0.03399"/>
<stop offset="0.62736" stop-color="white" stop-opacity="0.01"/>
<stop offset="1" stop-color="white" stop-opacity="0"/>
</radialGradient>
<radialGradient id="paint29_radial_134_2784" cx="0" cy="0" r="1" gradientUnits="userSpaceOnUse" gradientTransform="translate(262.996 143.278) scale(30.8947 38.3486)">
<stop stop-color="white"/>
<stop offset="0.00738" stop-color="white" stop-opacity="0.96381"/>
<stop offset="0.04768" stop-color="white" stop-opacity="0.78417"/>
<stop offset="0.09309" stop-color="white" stop-opacity="0.61488"/>
<stop offset="0.1419" stop-color="white" stop-opacity="0.46688"/>
<stop offset="0.19502" stop-color="white" stop-opacity="0.33967"/>
<stop offset="0.25374" stop-color="white" stop-opacity="0.23299"/>
<stop offset="0.32001" stop-color="white" stop-opacity="0.14667"/>
<stop offset="0.39742" stop-color="white" stop-opacity="0.08036"/>
<stop offset="0.49311" stop-color="white" stop-opacity="0.03399"/>
<stop offset="0.62736" stop-color="white" stop-opacity="0.01"/>
<stop offset="1" stop-color="white" stop-opacity="0"/>
</radialGradient>
<radialGradient id="paint30_radial_134_2784" cx="0" cy="0" r="1" gradientUnits="userSpaceOnUse" gradientTransform="translate(253.6 86.32) scale(30.8947 38.3486)">
<stop stop-color="white"/>
<stop offset="0.00738" stop-color="white" stop-opacity="0.96381"/>
<stop offset="0.04768" stop-color="white" stop-opacity="0.78417"/>
<stop offset="0.09309" stop-color="white" stop-opacity="0.61488"/>
<stop offset="0.1419" stop-color="white" stop-opacity="0.46688"/>
<stop offset="0.19502" stop-color="white" stop-opacity="0.33967"/>
<stop offset="0.25374" stop-color="white" stop-opacity="0.23299"/>
<stop offset="0.32001" stop-color="white" stop-opacity="0.14667"/>
<stop offset="0.39742" stop-color="white" stop-opacity="0.08036"/>
<stop offset="0.49311" stop-color="white" stop-opacity="0.03399"/>
<stop offset="0.62736" stop-color="white" stop-opacity="0.01"/>
<stop offset="1" stop-color="white" stop-opacity="0"/>
</radialGradient>
<radialGradient id="paint31_radial_134_2784" cx="0" cy="0" r="1" gradientUnits="userSpaceOnUse" gradientTransform="translate(250.452 120.48) scale(30.8947 38.3486)">
<stop stop-color="white"/>
<stop offset="0.00738" stop-color="white" stop-opacity="0.96381"/>
<stop offset="0.04768" stop-color="white" stop-opacity="0.78417"/>
<stop offset="0.09309" stop-color="white" stop-opacity="0.61488"/>
<stop offset="0.1419" stop-color="white" stop-opacity="0.46688"/>
<stop offset="0.19502" stop-color="white" stop-opacity="0.33967"/>
<stop offset="0.25374" stop-color="white" stop-opacity="0.23299"/>
<stop offset="0.32001" stop-color="white" stop-opacity="0.14667"/>
<stop offset="0.39742" stop-color="white" stop-opacity="0.08036"/>
<stop offset="0.49311" stop-color="white" stop-opacity="0.03399"/>
<stop offset="0.62736" stop-color="white" stop-opacity="0.01"/>
<stop offset="1" stop-color="white" stop-opacity="0"/>
</radialGradient>
<radialGradient id="paint32_radial_134_2784" cx="0" cy="0" r="1" gradientUnits="userSpaceOnUse" gradientTransform="translate(225.218 116.368) scale(43.1011 53.4999)">
<stop stop-color="white"/>
<stop offset="0.00738" stop-color="white" stop-opacity="0.96381"/>
<stop offset="0.04768" stop-color="white" stop-opacity="0.78417"/>
<stop offset="0.09309" stop-color="white" stop-opacity="0.61488"/>
<stop offset="0.1419" stop-color="white" stop-opacity="0.46688"/>
<stop offset="0.19502" stop-color="white" stop-opacity="0.33967"/>
<stop offset="0.25374" stop-color="white" stop-opacity="0.23299"/>
<stop offset="0.32001" stop-color="white" stop-opacity="0.14667"/>
<stop offset="0.39742" stop-color="white" stop-opacity="0.08036"/>
<stop offset="0.49311" stop-color="white" stop-opacity="0.03399"/>
<stop offset="0.62736" stop-color="white" stop-opacity="0.01"/>
<stop offset="1" stop-color="white" stop-opacity="0"/>
</radialGradient>
<linearGradient id="paint33_linear_134_2784" x1="243" y1="46.4671" x2="243" y2="249.195" gradientUnits="userSpaceOnUse">
<stop stop-color="#E86FFF" stop-opacity="0"/>
<stop offset="0.0803" stop-color="#D87AFF" stop-opacity="0.08748"/>
<stop offset="0.54062" stop-color="#81B9FF" stop-opacity="0.57289"/>
<stop offset="0.85601" stop-color="#4AE1FF" stop-opacity="0.8799"/>
<stop offset="1" stop-color="#34F1FF"/>
</linearGradient>
<linearGradient id="paint34_linear_134_2784" x1="243" y1="219.722" x2="243" y2="285.41" gradientUnits="userSpaceOnUse">
<stop stop-color="#BB3BF2" stop-opacity="0"/>
<stop offset="1" stop-color="#A800BD"/>
</linearGradient>
<linearGradient id="paint35_linear_134_2784" x1="243" y1="260.741" x2="243" y2="198.27" gradientUnits="userSpaceOnUse">
<stop stop-color="#FF45FF"/>
<stop offset="0.08493" stop-color="#FF45FF" stop-opacity="0.96291"/>
<stop offset="0.22648" stop-color="#FF45FF" stop-opacity="0.86249"/>
<stop offset="0.40715" stop-color="#FF45FF" stop-opacity="0.69895"/>
<stop offset="0.61995" stop-color="#FF45FF" stop-opacity="0.47205"/>
<stop offset="0.8569" stop-color="#FF45FF" stop-opacity="0.18642"/>
<stop offset="1" stop-color="#FF45FF" stop-opacity="0"/>
</linearGradient>
<radialGradient id="paint36_radial_134_2784" cx="0" cy="0" r="1" gradientUnits="userSpaceOnUse" gradientTransform="translate(243 206.819) scale(69.7152 74.7231)">
<stop stop-color="#F691FF"/>
<stop offset="0.07947" stop-color="#F79AFF"/>
<stop offset="0.21178" stop-color="#F9B4FF"/>
<stop offset="0.37953" stop-color="#FCDDFF"/>
<stop offset="0.4995" stop-color="white"/>
<stop offset="0.59156" stop-color="#FCDEFF"/>
<stop offset="0.70616" stop-color="#FABDFF"/>
<stop offset="0.81543" stop-color="#F8A5FF"/>
<stop offset="0.91611" stop-color="#F696FF"/>
<stop offset="1" stop-color="#F691FF"/>
</radialGradient>
<radialGradient id="paint37_radial_134_2784" cx="0" cy="0" r="1" gradientUnits="userSpaceOnUse" gradientTransform="translate(243 181.656) scale(31.8619 34.1506)">
<stop stop-color="#F691FF"/>
<stop offset="0.07947" stop-color="#F79AFF"/>
<stop offset="0.21178" stop-color="#F9B4FF"/>
<stop offset="0.37953" stop-color="#FCDDFF"/>
<stop offset="0.4995" stop-color="white"/>
<stop offset="0.59156" stop-color="#FCDEFF"/>
<stop offset="0.70616" stop-color="#FABDFF"/>
<stop offset="0.81543" stop-color="#F8A5FF"/>
<stop offset="0.91611" stop-color="#F696FF"/>
<stop offset="1" stop-color="#F691FF"/>
</radialGradient>
<radialGradient id="paint38_radial_134_2784" cx="0" cy="0" r="1" gradientUnits="userSpaceOnUse" gradientTransform="translate(243 175.884) scale(19.89 21.3187)">
<stop stop-color="#F691FF"/>
<stop offset="0.07947" stop-color="#F79AFF"/>
<stop offset="0.21178" stop-color="#F9B4FF"/>
<stop offset="0.37953" stop-color="#FCDDFF"/>
<stop offset="0.4995" stop-color="white"/>
<stop offset="0.59156" stop-color="#FCDEFF"/>
<stop offset="0.70616" stop-color="#FABDFF"/>
<stop offset="0.81543" stop-color="#F8A5FF"/>
<stop offset="0.91611" stop-color="#F696FF"/>
<stop offset="1" stop-color="#F691FF"/>
</radialGradient>
<linearGradient id="paint39_linear_134_2784" x1="246.788" y1="15.5538" x2="246.788" y2="165.013" gradientUnits="userSpaceOnUse">
<stop offset="0.00753" stop-color="#23E2FF" stop-opacity="0"/>
<stop offset="0.99812" stop-color="white"/>
</linearGradient>
<linearGradient id="paint40_linear_134_2784" x1="144.594" y1="174.333" x2="144.594" y2="54.8552" gradientUnits="userSpaceOnUse">
<stop stop-color="#F7E7FD" stop-opacity="0"/>
<stop offset="0.99748" stop-color="#23E2FF"/>
</linearGradient>
<linearGradient id="paint41_linear_134_2784" x1="174.744" y1="93.5109" x2="174.744" y2="23.7767" gradientUnits="userSpaceOnUse">
<stop stop-color="#F7E7FD" stop-opacity="0"/>
<stop offset="1" stop-color="#EEB0FF"/>
</linearGradient>
<linearGradient id="paint42_linear_134_2784" x1="173.247" y1="210.645" x2="173.247" y2="138.021" gradientUnits="userSpaceOnUse">
<stop stop-color="#F7E7FD" stop-opacity="0"/>
<stop offset="0.99748" stop-color="#B752FF"/>
</linearGradient>
<linearGradient id="paint43_linear_134_2784" x1="341.406" y1="103.101" x2="341.406" y2="30.4758" gradientUnits="userSpaceOnUse">
<stop stop-color="#F7E7FD" stop-opacity="0"/>
<stop offset="0.99748" stop-color="#23E2FF"/>
</linearGradient>
<linearGradient id="paint44_linear_134_2784" x1="207.679" y1="113.454" x2="207.679" y2="40.8296" gradientUnits="userSpaceOnUse">
<stop stop-color="#F7E7FD" stop-opacity="0"/>
<stop offset="1" stop-color="#EEB0FF"/>
</linearGradient>
<linearGradient id="paint45_linear_134_2784" x1="239.984" y1="249.304" x2="239.984" y2="176.679" gradientUnits="userSpaceOnUse">
<stop stop-color="#F7E7FD" stop-opacity="0"/>
<stop offset="1" stop-color="#EEB0FF"/>
</linearGradient>
<linearGradient id="paint46_linear_134_2784" x1="281.02" y1="128.256" x2="281.02" y2="55.6314" gradientUnits="userSpaceOnUse">
<stop stop-color="#F7E7FD" stop-opacity="0"/>
<stop offset="1" stop-color="#FF89FF"/>
</linearGradient>
<linearGradient id="paint47_linear_134_2784" x1="319.452" y1="212.992" x2="319.452" y2="140.367" gradientUnits="userSpaceOnUse">
<stop stop-color="#F7E7FD" stop-opacity="0"/>
<stop offset="1" stop-color="#FF89FF"/>
</linearGradient>
<linearGradient id="paint48_linear_134_2784" x1="306.706" y1="143.069" x2="306.706" y2="23.5911" gradientUnits="userSpaceOnUse">
<stop stop-color="#F7E7FD" stop-opacity="0"/>
<stop offset="0.99748" stop-color="#B752FF"/>
</linearGradient>
<radialGradient id="paint49_radial_134_2784" cx="0" cy="0" r="1" gradientUnits="userSpaceOnUse" gradientTransform="translate(321.489 196.366) scale(74.2012 79.5313)">
<stop stop-color="white"/>
<stop offset="0.00738" stop-color="white" stop-opacity="0.96381"/>
<stop offset="0.04768" stop-color="white" stop-opacity="0.78417"/>
<stop offset="0.09309" stop-color="white" stop-opacity="0.61488"/>
<stop offset="0.1419" stop-color="white" stop-opacity="0.46688"/>
<stop offset="0.19502" stop-color="white" stop-opacity="0.33967"/>
<stop offset="0.25374" stop-color="white" stop-opacity="0.23299"/>
<stop offset="0.32001" stop-color="white" stop-opacity="0.14667"/>
<stop offset="0.39742" stop-color="white" stop-opacity="0.08036"/>
<stop offset="0.49311" stop-color="white" stop-opacity="0.03399"/>
<stop offset="0.62736" stop-color="white" stop-opacity="0.01"/>
<stop offset="1" stop-color="white" stop-opacity="0"/>
</radialGradient>
<radialGradient id="paint50_radial_134_2784" cx="0" cy="0" r="1" gradientUnits="userSpaceOnUse" gradientTransform="translate(154.773 213.454) scale(74.2011 79.5313)">
<stop stop-color="white"/>
<stop offset="0.00738" stop-color="white" stop-opacity="0.96381"/>
<stop offset="0.04768" stop-color="white" stop-opacity="0.78417"/>
<stop offset="0.09309" stop-color="white" stop-opacity="0.61488"/>
<stop offset="0.1419" stop-color="white" stop-opacity="0.46688"/>
<stop offset="0.19502" stop-color="white" stop-opacity="0.33967"/>
<stop offset="0.25374" stop-color="white" stop-opacity="0.23299"/>
<stop offset="0.32001" stop-color="white" stop-opacity="0.14667"/>
<stop offset="0.39742" stop-color="white" stop-opacity="0.08036"/>
<stop offset="0.49311" stop-color="white" stop-opacity="0.03399"/>
<stop offset="0.62736" stop-color="white" stop-opacity="0.01"/>
<stop offset="1" stop-color="white" stop-opacity="0"/>
</radialGradient>
<radialGradient id="paint51_radial_134_2784" cx="0" cy="0" r="1" gradientUnits="userSpaceOnUse" gradientTransform="translate(243 201.345) scale(113.502 121.655)">
<stop stop-color="white"/>
<stop offset="0.0524" stop-color="white" stop-opacity="0.88295"/>
<stop offset="0.15456" stop-color="white" stop-opacity="0.6782"/>
<stop offset="0.26111" stop-color="white" stop-opacity="0.49665"/>
<stop offset="0.36986" stop-color="white" stop-opacity="0.34367"/>
<stop offset="0.48143" stop-color="white" stop-opacity="0.21898"/>
<stop offset="0.59674" stop-color="white" stop-opacity="0.12241"/>
<stop offset="0.71729" stop-color="white" stop-opacity="0.05383"/>
<stop offset="0.84659" stop-color="white" stop-opacity="0.01309"/>
<stop offset="1" stop-color="white" stop-opacity="0"/>
</radialGradient>
</defs>
</svg>
