<svg width="237" height="380" viewBox="0 0 237 380" fill="none" xmlns="http://www.w3.org/2000/svg">
<g clip-path="url(#clip0_223_4255)">
<path d="M164.938 313.663L156.149 308.519V269.824L149.822 257.9V230.194H150.994V257.666L157.321 269.591V307.818L164.938 312.26L203.842 288.412L204.428 289.464L164.938 313.663Z" fill="url(#paint0_linear_223_4255)"/>
<path d="M207.591 289.464C206.302 290.165 204.193 290.165 202.787 289.464C201.498 288.646 201.498 287.477 202.787 286.658C204.076 285.957 206.185 285.957 207.591 286.658C208.88 287.477 208.88 288.646 207.591 289.464Z" fill="#FFA98C"/>
<path d="M156.735 335.875L147.947 330.731V292.036L141.619 280.112V252.406H142.791V279.878L149.119 291.802V330.029L156.735 334.472L195.639 310.624L196.225 311.676L156.735 335.875Z" fill="url(#paint1_linear_223_4255)"/>
<path d="M199.389 311.676C198.1 312.377 195.991 312.377 194.584 311.676C193.295 310.857 193.295 309.688 194.584 308.87C195.873 308.169 197.983 308.169 199.389 308.87C200.678 309.688 200.678 310.857 199.389 311.676Z" fill="#FFA98C"/>
<path d="M77.9904 314.014L77.6389 313.78L40.1414 290.633L40.7273 289.698L77.9904 312.611L94.9815 302.44V278.358L107.871 257.666V230.194H109.043V258.017L96.1533 278.709V303.142L77.9904 314.014Z" fill="url(#paint2_linear_223_4255)"/>
<path d="M41.079 291.218C39.79 291.919 37.6808 291.919 36.2746 291.218C34.9856 290.399 34.9856 289.23 36.2746 288.412C37.5636 287.711 39.6728 287.711 41.079 288.412C42.3679 289.23 42.3679 290.516 41.079 291.218Z" fill="#FFA98C"/>
<path d="M78.1076 335.992L77.7561 335.758L40.2585 312.611L40.8444 311.559L78.1076 334.589L95.0987 324.418V300.336L107.988 279.527V252.172H109.16V279.878L96.2705 300.687V325.12L78.1076 335.992Z" fill="url(#paint3_linear_223_4255)"/>
<path d="M41.1959 313.195C39.9069 313.897 37.7977 313.897 36.3915 313.195C35.1026 312.377 35.1026 311.208 36.3915 310.39C37.6805 309.688 39.7897 309.688 41.1959 310.39C42.4849 311.208 42.4849 312.377 41.1959 313.195Z" fill="#FFA98C"/>
<path d="M121.816 356.333V366.737L188.842 327.691V317.404L121.816 356.333Z" fill="url(#paint4_linear_223_4255)"/>
<path d="M121.933 356.333V366.737L54.6716 327.574V317.287L121.933 356.333Z" fill="url(#paint5_linear_223_4255)"/>
<path d="M54.6716 317.287L121.933 356.333L188.842 317.404L121.581 278.241L54.6716 317.287Z" fill="url(#paint6_linear_223_4255)"/>
<path d="M121.816 342.889V353.878L184.155 317.638V306.649L121.816 342.889Z" fill="url(#paint7_linear_223_4255)"/>
<path d="M121.933 342.889V353.878L59.3589 317.521V306.532L121.933 342.889Z" fill="url(#paint8_linear_223_4255)"/>
<path d="M121.816 334.823V351.189L188.842 312.143V295.777L121.816 334.823Z" fill="url(#paint9_linear_223_4255)"/>
<path d="M121.933 334.822V351.189L54.6716 312.026V295.66L121.933 334.822Z" fill="url(#paint10_linear_223_4255)"/>
<path d="M54.6716 295.66L121.933 334.822L188.842 295.777L121.581 256.614L54.6716 295.66Z" fill="url(#paint11_linear_223_4255)"/>
<path d="M121.816 321.379V332.368L184.155 296.128V285.139L121.816 321.379Z" fill="url(#paint12_linear_223_4255)"/>
<path d="M121.933 321.379V332.368L59.3589 296.011V285.139L121.933 321.379Z" fill="url(#paint13_linear_223_4255)"/>
<path d="M121.816 307.233V329.679L188.842 290.633V268.305L121.816 307.233Z" fill="url(#paint14_linear_223_4255)"/>
<path d="M121.933 307.233V329.679L54.6716 290.516V268.188L121.933 307.233Z" fill="url(#paint15_linear_223_4255)"/>
<path d="M54.6716 268.188L121.933 307.233L188.842 268.305L121.581 229.142L54.6716 268.188Z" fill="url(#paint16_linear_223_4255)"/>
<path d="M121.816 293.556V304.545L184.155 268.188V257.316L121.816 293.556Z" fill="url(#paint17_linear_223_4255)"/>
<path d="M121.933 293.556V304.545L59.3589 268.188V257.199L121.933 293.556Z" fill="url(#paint18_linear_223_4255)"/>
<path d="M121.816 271.812V301.388L188.842 262.46V232.766L121.816 271.812Z" fill="url(#paint19_linear_223_4255)"/>
<path d="M121.933 271.812V301.388L54.6716 262.343V232.649L121.933 271.812Z" fill="url(#paint20_linear_223_4255)"/>
<path d="M54.6716 232.649L121.933 271.812L188.842 232.766L121.581 193.604L54.6716 232.649Z" fill="url(#paint21_linear_223_4255)"/>
<path d="M75.6469 258.368C75.6469 259.888 74.5923 260.472 73.3033 259.771C72.0143 258.952 70.9597 257.199 70.9597 255.679C70.9597 254.159 72.0143 253.575 73.3033 254.276C74.5923 254.978 75.6469 256.848 75.6469 258.368Z" fill="#2AF6FF"/>
<path d="M151.462 269.006C151.462 270.526 150.407 272.396 149.118 273.098C147.83 273.916 146.775 273.215 146.775 271.695C146.775 270.175 147.83 268.305 149.118 267.603C150.407 266.902 151.462 267.486 151.462 269.006Z" fill="#2AF6FF"/>
<path d="M173.258 311.442C173.258 312.962 172.203 314.832 170.914 315.533C169.625 316.352 168.57 315.65 168.57 314.131C168.57 312.611 169.625 310.74 170.914 310.039C172.203 309.338 173.258 309.922 173.258 311.442Z" fill="#2AF6FF"/>
<path d="M153.806 377.258L129.198 362.529L129.315 337.745L148.415 297.764V270.409H149.587V298.115V298.232L130.37 338.096V361.944L154.392 376.206L153.806 377.258Z" fill="url(#paint22_linear_223_4255)"/>
<path d="M165.289 291.451C165.289 292.971 164.235 294.842 162.946 295.543C161.657 296.361 160.602 295.66 160.602 294.14C160.602 292.621 161.657 290.75 162.946 290.049C164.235 289.347 165.289 289.932 165.289 291.451Z" fill="#2AF6FF"/>
<path d="M190.131 377.141L146.775 351.773V344.525L146.892 344.409L162.36 320.327V292.854H163.532V320.56L163.414 320.794L147.947 344.876V351.072L190.131 375.739L197.982 371.062L198.568 372.115L190.131 377.141Z" fill="url(#paint23_linear_223_4255)"/>
<path d="M43.071 341.837L42.8366 341.72L5.22192 318.573L5.80782 317.521L43.071 340.551L60.062 330.38V306.298L72.9518 285.489V258.134H74.1236V285.84L61.2338 306.532V330.965L43.071 341.837Z" fill="url(#paint24_linear_223_4255)"/>
<path d="M6.15929 319.157C4.87031 319.859 2.76107 319.859 1.35492 319.157C0.0659393 318.339 0.0659393 317.17 1.35492 316.352C2.64389 315.65 4.75313 315.65 6.15929 316.352C7.44826 317.17 7.56544 318.339 6.15929 319.157Z" fill="#FFA98C"/>
<path d="M91.8176 303.376C91.8176 304.895 90.7629 305.48 89.474 304.778C88.185 303.96 87.1304 302.207 87.1304 300.687C87.1304 299.167 88.185 298.583 89.474 299.284C90.7629 299.985 91.8176 301.856 91.8176 303.376Z" fill="#2AF6FF"/>
<path d="M51.0391 363.464L36.3916 356.216L36.8603 355.164L50.9219 362.061L82.3261 343.473V327.925L89.1225 317.638V303.142H90.2943V317.988L83.4979 328.276V344.175L83.2635 344.292L51.0391 363.464Z" fill="url(#paint25_linear_223_4255)"/>
<path d="M36.9776 357.151C35.6887 357.852 33.5794 357.852 32.1733 357.151C30.8843 356.333 30.8843 355.164 32.1733 354.345C33.4623 353.644 35.5715 353.644 36.9776 354.345C38.2666 355.164 38.2666 356.333 36.9776 357.151Z" fill="#FFA98C"/>
<path d="M106.114 284.087C106.114 285.606 105.059 286.191 103.77 285.489C102.481 284.671 101.427 282.918 101.427 281.398C101.427 279.878 102.481 279.294 103.77 279.995C105.059 280.813 106.114 282.567 106.114 284.087Z" fill="#2AF6FF"/>
<path d="M100.02 328.51C100.02 330.029 98.9656 330.614 97.6766 329.913C96.3876 329.094 95.333 327.341 95.333 325.821C95.333 324.301 96.3876 323.717 97.6766 324.418C98.9656 325.236 100.02 326.99 100.02 328.51Z" fill="#2AF6FF"/>
<path d="M101.895 369.777L101.309 368.841L113.144 361.944V338.096L103.184 312.026V284.554H104.356V311.91L114.316 337.979V362.529L101.895 369.777Z" fill="url(#paint26_linear_223_4255)"/>
<path d="M103.77 371.062C102.481 371.764 100.372 371.764 98.9658 371.062C97.6768 370.244 97.6768 369.075 98.9658 368.257C100.255 367.555 102.364 367.555 103.77 368.257C105.059 368.958 105.059 370.244 103.77 371.062Z" fill="#FFA98C"/>
<path d="M57.4841 376.791L56.8982 375.739L97.5596 352.592V328.627H98.7314V353.176L98.497 353.41L57.4841 376.791Z" fill="url(#paint27_linear_223_4255)"/>
<path d="M59.2418 377.96C57.9528 378.661 55.8436 378.661 54.4374 377.96C53.1485 377.141 53.1485 375.972 54.4374 375.154C55.7264 374.453 57.8357 374.453 59.2418 375.154C60.5308 375.972 60.5308 377.141 59.2418 377.96Z" fill="#FFA98C"/>
<path d="M158.024 379.363C156.735 380.064 154.626 380.064 153.22 379.363C151.931 378.544 151.931 377.375 153.22 376.557C154.509 375.856 156.618 375.856 158.024 376.557C159.313 377.375 159.313 378.661 158.024 379.363Z" fill="#FFA98C"/>
<path d="M216.028 343.473C214.739 344.175 212.63 344.175 211.224 343.473C209.935 342.655 209.935 341.486 211.224 340.668C212.513 339.966 214.622 339.966 216.028 340.668C217.317 341.486 217.317 342.655 216.028 343.473Z" fill="#FFA98C"/>
<path d="M201.732 372.115C200.443 372.816 198.334 372.816 196.928 372.115C195.639 371.296 195.639 370.127 196.928 369.309C198.217 368.607 200.326 368.607 201.732 369.309C203.021 370.127 203.021 371.296 201.732 372.115Z" fill="#FFA98C"/>
<path d="M179.234 251.471C179.234 252.99 178.179 254.861 176.89 255.562C175.601 256.38 174.547 255.679 174.547 254.159C174.547 252.64 175.601 250.769 176.89 250.068C178.179 249.366 179.234 249.951 179.234 251.471Z" fill="#2AF6FF"/>
<path d="M191.303 336.342L182.515 331.199V292.504L176.304 280.579V252.873H177.476V280.229L183.687 292.27V330.497L191.303 334.939L230.324 311.091L230.91 312.026L191.303 336.342Z" fill="url(#paint28_linear_223_4255)"/>
<path d="M233.957 312.026C232.668 312.728 230.558 312.728 229.152 312.026C227.863 311.208 227.863 310.039 229.152 309.221C230.441 308.519 232.55 308.519 233.957 309.221C235.363 310.039 235.363 311.325 233.957 312.026Z" fill="#FFA98C"/>
<path d="M213.333 342.889L212.747 341.837L195.17 351.89L171.266 337.979V314.131H170.094V338.68L194.936 353.059H195.522L213.333 342.889Z" fill="url(#paint29_linear_223_4255)"/>
<path opacity="0.5" d="M211.693 139.127C225.413 139.127 236.535 128.031 236.535 114.343C236.535 100.656 225.413 89.5597 211.693 89.5597C197.973 89.5597 186.851 100.656 186.851 114.343C186.851 128.031 197.973 139.127 211.693 139.127Z" fill="url(#paint30_radial_223_4255)"/>
<path d="M137.869 242.352H136.697V235.104L121.347 226.453V105.575L102.481 77.168V49.8127H103.653V76.8173L122.519 105.225V225.752L137.869 234.403V242.352Z" fill="url(#paint31_linear_223_4255)"/>
<path d="M154.977 229.493H153.806V223.648L139.861 215.464L124.979 224.232V119.253L125.097 119.019L157.204 75.7651L158.141 76.4666L126.151 119.604V222.245L139.861 214.178L154.977 222.946V229.493Z" fill="url(#paint32_linear_223_4255)"/>
<path d="M90.6459 219.322H89.4741V197.929L113.73 211.724V160.754L99.9031 131.762L60.1792 113.642L60.062 113.525L37.915 87.9231L38.7353 87.2217L60.8823 112.707L100.723 130.827L114.902 160.637V213.711L90.6459 199.916V219.322Z" fill="url(#paint33_linear_223_4255)"/>
<path d="M104.122 163.559L95.3332 144.855L46.0005 122.293L46.4692 121.24L96.2706 143.92L105.176 163.092L104.122 163.559Z" fill="url(#paint34_linear_223_4255)"/>
<path d="M107.871 235.104H106.7V225.869L117.597 220.024V139.244L108.34 120.422L89.2397 113.174L74.2407 95.7556L75.1782 94.9373L89.9428 112.122L109.277 119.604L118.769 139.01V220.725L107.871 226.57V235.104Z" fill="url(#paint35_linear_223_4255)"/>
<path d="M114.785 115.278L104.239 93.7683L97.7938 91.0795L73.186 62.3213L74.0063 61.503L98.4969 90.1443L105.176 92.833L115.839 114.694L114.785 115.278Z" fill="url(#paint36_linear_223_4255)"/>
<path d="M122.402 78.8046C123.955 78.8046 125.214 77.5485 125.214 75.999C125.214 74.4494 123.955 73.1933 122.402 73.1933C120.848 73.1933 119.589 74.4494 119.589 75.999C119.589 77.5485 120.848 78.8046 122.402 78.8046Z" fill="#2AF6FF"/>
<path d="M178.179 169.872C171.265 169.872 165.641 164.261 165.641 157.48C165.641 150.583 171.265 145.089 178.179 145.089C185.093 145.089 190.6 150.7 190.6 157.48C190.6 164.261 185.093 169.872 178.179 169.872ZM178.179 146.141C171.969 146.141 166.813 151.168 166.813 157.364C166.813 163.559 171.851 168.586 178.179 168.586C184.39 168.586 189.428 163.559 189.428 157.364C189.428 151.168 184.39 146.141 178.179 146.141Z" fill="#FFA98C"/>
<path d="M65.6867 163.092C58.7731 163.092 53.1484 157.48 53.1484 150.7C53.1484 143.92 58.7731 138.308 65.6867 138.308C72.6003 138.308 78.1077 143.92 78.1077 150.7C78.1077 157.48 72.6003 163.092 65.6867 163.092ZM65.6867 139.36C59.4761 139.36 54.3202 144.387 54.3202 150.583C54.3202 156.779 59.359 161.806 65.6867 161.806C71.8972 161.806 76.9359 156.779 76.9359 150.583C76.9359 144.387 71.8972 139.36 65.6867 139.36Z" fill="#FFA98C"/>
<path d="M31.3529 91.3133C24.4393 91.3133 18.8147 85.7019 18.8147 78.9215C18.8147 72.1412 24.4393 66.4129 31.3529 66.4129C38.1494 66.4129 43.774 72.0243 43.774 78.8046C43.774 85.585 38.1494 91.3133 31.3529 91.3133ZM31.3529 67.5819C25.1424 67.5819 19.9865 72.6088 19.9865 78.8046C19.9865 85.0005 25.0252 90.0273 31.3529 90.0273C37.5635 90.0273 42.6022 85.0005 42.6022 78.8046C42.6022 72.6088 37.5635 67.5819 31.3529 67.5819Z" fill="#FFA98C"/>
<path d="M68.4989 97.8598C61.5853 97.8598 56.0779 92.2485 56.0779 85.3512C56.0779 78.4539 61.7025 72.9595 68.4989 72.9595C75.4125 72.9595 81.0372 78.5708 81.0372 85.3512C80.92 92.2485 75.4125 97.8598 68.4989 97.8598ZM68.4989 74.1285C62.2884 74.1285 57.2497 79.1553 57.2497 85.3512C57.2497 91.5471 62.2884 96.6908 68.4989 96.6908C74.7095 96.6908 79.8654 91.664 79.8654 85.3512C79.7482 79.1553 74.7095 74.1285 68.4989 74.1285Z" fill="#FFA98C"/>
<path d="M34.5168 130.125C27.6032 130.125 22.0957 124.514 22.0957 117.733C22.0957 110.953 27.7203 105.342 34.5168 105.342C41.4304 105.342 46.9378 110.953 46.9378 117.733C46.9378 124.514 41.4304 130.125 34.5168 130.125ZM34.5168 106.394C28.3062 106.394 23.2675 111.421 23.2675 117.617C23.2675 123.812 28.3062 128.839 34.5168 128.839C40.7273 128.839 45.766 123.812 45.766 117.617C45.766 111.421 40.7273 106.394 34.5168 106.394Z" fill="#FFA98C"/>
<path d="M65.9211 64.5424C59.0075 64.5424 53.5 58.9311 53.5 52.1507C53.5 45.3703 59.0075 39.759 65.9211 39.759C72.8347 39.759 78.3421 45.3703 78.3421 52.1507C78.3421 58.9311 72.7175 64.5424 65.9211 64.5424ZM65.9211 40.928C59.7105 40.928 54.6718 45.9548 54.6718 52.1507C54.6718 58.3466 59.7105 63.3734 65.9211 63.3734C72.1316 63.3734 77.1703 58.3466 77.1703 52.1507C77.1703 45.9548 72.1316 40.928 65.9211 40.928Z" fill="#FFA98C"/>
<path d="M103.067 49.6958C96.1534 49.6958 90.646 44.0844 90.646 37.1871C90.646 30.2899 96.2706 24.7954 103.067 24.7954C109.981 24.7954 115.605 30.4068 115.605 37.1871C115.488 44.0844 109.981 49.6958 103.067 49.6958ZM103.067 25.9644C96.8565 25.9644 91.8178 30.9913 91.8178 37.1871C91.8178 43.383 96.8565 48.5267 103.067 48.5267C109.278 48.5267 114.433 43.4999 114.433 37.1871C114.316 30.9913 109.278 25.9644 103.067 25.9644Z" fill="#FFA98C"/>
<path d="M122.402 25.8475C115.488 25.8475 109.98 20.2362 109.98 13.4558C109.98 6.6754 115.605 0.947144 122.402 0.947144C129.315 0.947144 134.823 6.55849 134.823 13.3389C134.823 20.1193 129.315 25.8475 122.402 25.8475ZM122.402 2.11617C116.191 2.11617 111.152 7.14301 111.152 13.3389C111.152 19.5347 116.191 24.5616 122.402 24.5616C128.612 24.5616 133.651 19.5347 133.651 13.3389C133.651 7.14301 128.729 2.11617 122.402 2.11617Z" fill="#FFA98C"/>
<path d="M153.454 41.7463C146.541 41.7463 141.033 36.135 141.033 29.3546C141.033 22.4573 146.658 16.8459 153.454 16.8459C160.251 16.8459 165.875 22.4573 165.875 29.3546C165.992 36.135 160.368 41.7463 153.454 41.7463ZM153.454 18.015C147.244 18.015 142.205 23.0418 142.205 29.3546C142.205 35.5504 147.244 40.5773 153.454 40.5773C159.665 40.5773 164.704 35.5504 164.704 29.3546C164.821 23.0418 159.782 18.015 153.454 18.015Z" fill="#FFA98C"/>
<path d="M163.414 77.5187C156.501 77.5187 150.993 71.9074 150.993 65.127C150.993 58.2297 156.618 52.6183 163.414 52.6183C170.328 52.6183 175.836 58.2297 175.836 65.127C175.836 71.9074 170.328 77.5187 163.414 77.5187ZM163.414 53.7874C157.204 53.7874 152.165 58.8142 152.165 65.127C152.165 71.3229 157.204 76.3497 163.414 76.3497C169.625 76.3497 174.664 71.3229 174.664 65.127C174.664 58.8142 169.625 53.7874 163.414 53.7874Z" fill="#FFA98C"/>
<path d="M191.303 50.9817C184.39 50.9817 178.882 45.3704 178.882 38.59C178.882 31.8096 184.507 26.1982 191.303 26.1982C198.217 26.1982 203.842 31.8096 203.842 38.59C203.842 45.3704 198.217 50.9817 191.303 50.9817ZM191.303 27.2504C185.093 27.2504 180.054 32.2772 180.054 38.4731C180.054 44.6689 185.093 49.6958 191.303 49.6958C197.514 49.6958 202.67 44.6689 202.67 38.4731C202.67 32.2772 197.514 27.2504 191.303 27.2504Z" fill="#FFA98C"/>
<path d="M205.365 82.8962C198.451 82.8962 192.944 77.2849 192.944 70.3876C192.944 63.4903 198.568 57.9958 205.365 57.9958C212.278 57.9958 217.903 63.6072 217.903 70.3876C217.903 77.2849 212.278 82.8962 205.365 82.8962ZM205.365 59.1649C199.154 59.1649 194.116 64.1917 194.116 70.3876C194.116 76.5835 199.154 81.7272 205.365 81.7272C211.575 81.7272 216.731 76.7004 216.731 70.3876C216.731 64.1917 211.575 59.1649 205.365 59.1649Z" fill="#FFA98C"/>
<path d="M211.458 126.852C204.545 126.852 198.92 121.24 198.92 114.343C198.92 107.446 204.545 101.951 211.458 101.951C218.372 101.951 223.879 107.563 223.879 114.343C223.996 121.24 218.372 126.852 211.458 126.852ZM211.458 103.121C205.248 103.121 200.092 108.147 200.092 114.343C200.092 120.539 205.13 125.683 211.458 125.683C217.669 125.683 222.707 120.656 222.707 114.343C222.825 108.147 217.786 103.121 211.458 103.121Z" fill="#FFA98C"/>
<path d="M139.627 243.521C138.338 244.223 136.229 244.223 134.823 243.521C133.534 242.703 133.534 241.534 134.823 240.716C136.112 240.014 138.221 240.014 139.627 240.716C140.916 241.534 140.916 242.82 139.627 243.521Z" fill="#2AF6FF"/>
<path d="M156.97 231.246C155.681 231.948 153.571 231.948 152.165 231.246C150.876 230.428 150.876 229.259 152.165 228.441C153.454 227.739 155.563 227.739 156.97 228.441C158.259 229.259 158.259 230.545 156.97 231.246Z" fill="#2AF6FF"/>
<path d="M128.612 211.373V156.896L128.729 156.662L159.548 115.863L159.665 115.746L198.451 96.6908L202.318 81.8441L203.49 82.1948L199.389 97.5091L160.368 116.798L129.784 157.247V209.385L142.791 201.553V210.321H141.619V203.54L128.612 211.373Z" fill="url(#paint37_linear_223_4255)"/>
<path d="M137.283 178.406L136.815 177.471L167.047 162.39L167.516 163.443L137.283 178.406Z" fill="url(#paint38_linear_223_4255)"/>
<path d="M144.432 211.723C143.143 212.425 141.033 212.425 139.627 211.723C138.338 210.905 138.338 209.736 139.627 208.918C140.916 208.216 143.025 208.216 144.432 208.918C145.72 209.736 145.72 211.022 144.432 211.723Z" fill="#2AF6FF"/>
<path d="M92.5208 220.842C91.2319 221.543 89.1226 221.543 87.7165 220.842C86.3103 220.141 86.4275 218.855 87.7165 218.036C89.0055 217.335 91.1147 217.335 92.5208 218.036C93.8098 218.855 93.8098 220.141 92.5208 220.842Z" fill="#2AF6FF"/>
<path d="M109.746 236.975C108.457 237.676 106.348 237.676 104.942 236.975C103.653 236.156 103.653 234.987 104.942 234.169C106.231 233.467 108.34 233.467 109.746 234.169C111.035 234.987 111.035 236.156 109.746 236.975Z" fill="#2AF6FF"/>
<path d="M107.168 249.717H105.996V244.106L117.831 237.092V228.791H119.003V237.793L107.168 244.69V249.717Z" fill="#2AF6FF"/>
<path d="M109.043 251.587C107.754 252.289 105.645 252.289 104.239 251.587C102.833 250.886 102.95 249.6 104.239 248.782C105.528 248.08 107.637 248.08 109.043 248.782C110.332 249.483 110.332 250.769 109.043 251.587Z" fill="#2AF6FF"/>
<path d="M120.878 232.532C120.878 234.052 119.824 234.637 118.535 233.935C117.246 233.117 116.191 231.363 116.191 229.844C116.191 228.324 117.246 227.739 118.535 228.441C119.824 229.259 120.878 231.013 120.878 232.532Z" fill="#2AF6FF"/>
<path d="M156.852 245.158H155.681V240.131L137.283 229.61V220.608H138.455V228.908L156.852 239.546V245.158Z" fill="#2AF6FF"/>
<path d="M153.923 247.028C155.212 247.73 157.321 247.73 158.727 247.028C160.016 246.21 160.016 245.041 158.727 244.223C157.438 243.521 155.329 243.521 153.923 244.223C152.634 245.041 152.517 246.21 153.923 247.028Z" fill="#2AF6FF"/>
<path d="M135.526 224.349C135.526 225.869 136.58 226.453 137.869 225.752C139.158 224.934 140.213 223.18 140.213 221.66C140.213 220.14 139.158 219.556 137.869 220.257C136.58 220.959 135.526 222.829 135.526 224.349Z" fill="#2AF6FF"/>
<path d="M84.0839 243.872H82.9121V234.87L104.356 222.595V216.166H105.528V223.297L84.0839 235.572V243.872Z" fill="#2AF6FF"/>
<path d="M85.9586 245.625C84.6696 246.327 82.5604 246.327 81.1542 245.625C79.7481 244.924 79.8652 243.638 81.1542 242.82C82.4432 242.118 84.5524 242.118 85.9586 242.82C87.2476 243.638 87.2476 244.924 85.9586 245.625Z" fill="#2AF6FF"/>
<path d="M107.285 216.166C107.285 217.686 106.231 218.27 104.942 217.569C103.653 216.75 102.598 214.997 102.598 213.477C102.598 211.957 103.653 211.373 104.942 212.074C106.231 212.776 107.285 214.646 107.285 216.166Z" fill="#2AF6FF"/>
<path d="M107.285 198.864C107.285 200.384 106.231 200.968 104.942 200.267C103.653 199.449 102.598 197.695 102.598 196.175C102.598 194.656 103.653 194.071 104.942 194.773C106.231 195.474 107.285 197.344 107.285 198.864Z" fill="#2AF6FF"/>
<path d="M107.285 165.196C107.285 166.716 106.231 167.3 104.942 166.599C103.653 165.781 102.598 164.027 102.598 162.507C102.598 160.988 103.653 160.403 104.942 161.104C106.231 161.806 107.285 163.676 107.285 165.196Z" fill="#2AF6FF"/>
<path d="M117.129 114.928C117.129 116.447 116.074 117.032 114.785 116.331C113.496 115.512 112.441 113.759 112.441 112.239C112.441 110.719 113.496 110.135 114.785 110.836C116.074 111.654 117.129 113.408 117.129 114.928Z" fill="#2AF6FF"/>
<path d="M138.69 165.547C138.69 167.067 137.635 168.937 136.346 169.638C135.057 170.457 134.002 169.755 134.002 168.236C134.002 166.716 135.057 164.845 136.346 164.144C137.635 163.443 138.69 164.027 138.69 165.547Z" fill="#2AF6FF"/>
<path d="M138.455 177.588C138.455 179.108 137.401 180.978 136.112 181.679C134.823 182.498 133.768 181.796 133.768 180.277C133.768 178.757 134.823 176.886 136.112 176.185C137.401 175.367 138.455 176.068 138.455 177.588Z" fill="#2AF6FF"/>
<path d="M138.283 126.283C139.231 124.666 139.229 122.907 138.279 122.353C137.329 121.799 135.791 122.66 134.844 124.277C133.897 125.893 133.899 127.652 134.849 128.206C135.798 128.76 137.336 127.899 138.283 126.283Z" fill="#2AF6FF"/>
<path d="M128.026 88.7414C128.026 90.2611 126.972 92.1316 125.683 92.833C124.394 93.6513 123.339 92.9499 123.339 91.4302C123.339 89.9104 124.394 88.04 125.683 87.3386C126.972 86.6371 128.026 87.2216 128.026 88.7414Z" fill="#2AF6FF"/>
<path d="M136.697 126.034L135.76 125.332L152.634 102.653L152.751 102.536L177.242 90.1443L188.257 50.1634L189.311 50.5141L178.179 90.9626L177.945 91.0795L153.454 103.588L136.697 126.034Z" fill="url(#paint39_linear_223_4255)"/>
<path d="M125.214 91.1964L124.394 90.4949L142.088 67.465L149.001 39.9928L150.173 40.2266L143.259 67.9326L143.142 68.0496L125.214 91.1964Z" fill="url(#paint40_linear_223_4255)"/>
<path d="M135.643 168.703L134.706 168.002L153.806 142.634L153.923 142.517L200.795 119.136L201.381 120.188L154.626 143.569L135.643 168.703Z" fill="url(#paint41_linear_223_4255)"/>
<path d="M105.762 196.76H104.59V178.757L98.3797 165.897L76.5842 156.195L77.0529 155.142L99.1999 165.079L105.762 178.406V196.76Z" fill="url(#paint42_linear_223_4255)"/>
<path d="M122.987 25.3799H121.816V74.1285H122.987V25.3799Z" fill="url(#paint43_linear_223_4255)"/>
<path d="M179.585 152.687C178.531 152.687 177.71 152.921 177.124 153.389C176.773 153.623 176.304 154.09 176.07 154.558C175.718 155.142 175.484 155.61 175.484 156.078H181.577L181.343 157.247H175.367C175.367 157.364 175.367 157.48 175.367 157.597C175.367 158.065 175.367 158.299 175.367 158.416H181.109L180.874 159.585H175.601C175.835 160.988 176.421 161.923 177.359 162.507C178.062 162.858 178.765 163.092 179.585 163.092C180.64 163.092 181.577 162.858 182.163 162.273V164.144C181.46 164.495 180.64 164.612 179.702 164.612C177.007 164.612 175.25 163.443 174.312 161.221C174.078 160.754 173.961 160.169 173.843 159.585H172.437L172.672 158.416H173.609C173.609 158.182 173.609 157.948 173.609 157.597C173.609 157.48 173.609 157.364 173.609 157.247H172.437L172.672 156.078H173.726C174.078 154.09 175.015 152.804 176.656 151.869C177.593 151.402 178.648 151.051 179.82 151.051C180.874 151.051 181.812 151.285 182.632 151.752L182.28 153.389C181.226 152.921 180.405 152.687 179.585 152.687Z" fill="#FFA98C"/>
<path d="M210.521 106.16V107.914H212.278V106.16H213.685V108.03C214.036 108.147 214.388 108.147 214.739 108.381C215.325 108.615 215.794 109.083 216.145 109.55C216.497 110.135 216.614 110.719 216.614 111.304C216.614 111.888 216.497 112.356 216.145 112.823C215.794 113.291 215.442 113.759 214.739 113.992C215.56 114.226 216.145 114.577 216.614 115.162C217.083 115.746 217.2 116.331 217.2 117.149C217.2 117.733 217.083 118.318 216.848 118.902C216.614 119.37 216.263 119.838 215.911 120.071C215.56 120.305 215.091 120.539 214.505 120.773C214.271 120.89 214.036 120.89 213.685 120.89V122.76H212.278V121.007H210.521V122.76H209.115V121.007H207.357V107.914H209.115V106.16H210.521ZM209.115 113.408H211.927C212.747 113.408 213.216 113.408 213.567 113.291C214.036 113.174 214.388 112.94 214.505 112.59C214.739 112.239 214.856 111.888 214.856 111.421C214.856 110.953 214.739 110.602 214.505 110.252C214.271 109.901 214.036 109.667 213.567 109.55C213.216 109.433 212.513 109.316 211.575 109.316H208.997V113.408H209.115ZM209.115 119.37H212.396C212.982 119.37 213.333 119.37 213.567 119.253C213.919 119.136 214.271 119.019 214.622 118.902C214.856 118.786 215.091 118.552 215.325 118.201C215.442 117.85 215.56 117.5 215.56 117.149C215.56 116.681 215.442 116.214 215.208 115.863C214.974 115.512 214.622 115.278 214.153 115.162C213.685 115.045 213.099 114.928 212.278 114.928H209.232V119.37H209.115Z" fill="#FFA98C"/>
<path d="M204.31 69.1017H207.122V70.3876H204.544C204.662 70.6214 204.662 70.8552 204.662 71.2059C204.662 71.6735 204.544 72.2581 204.31 72.8426C204.076 73.4271 203.607 74.0116 203.138 74.5961C203.607 74.4792 204.076 74.3623 204.427 74.3623C204.896 74.3623 205.482 74.4792 206.068 74.5961C207.122 74.8299 207.825 74.9468 208.177 74.9468C208.646 74.9468 209.232 74.8299 209.935 74.4792L210.403 75.999C209.818 76.2328 209.466 76.3497 209.114 76.4666C208.763 76.5835 208.529 76.5835 208.177 76.5835C207.943 76.5835 207.708 76.5835 207.474 76.4666C207.357 76.4666 206.888 76.3497 206.302 76.1159C205.716 75.8821 205.248 75.7651 205.13 75.7651C204.896 75.7651 204.544 75.6482 204.31 75.6482C203.841 75.6482 203.373 75.7651 202.904 75.8821C202.435 75.999 201.966 76.2328 201.615 76.4666L201.029 74.9468C201.615 74.5961 202.084 74.1285 202.435 73.544C202.787 72.9595 203.021 72.2581 203.021 71.4397C203.021 71.089 203.021 70.7383 202.904 70.3876H201.146V69.1017H202.552C202.318 68.4003 202.201 67.9326 202.201 67.6988C202.201 67.3481 202.084 67.1143 202.084 66.7636C202.084 65.4777 202.552 64.5424 203.49 63.841C204.193 63.2565 205.13 63.0227 206.185 63.0227C207.24 63.0227 208.177 63.3734 208.88 63.9579C209.583 64.5424 210.052 65.3608 210.169 66.4129L208.529 66.6467C208.411 65.9453 208.177 65.3608 207.708 65.0101C207.24 64.6593 206.771 64.4255 206.068 64.4255C205.365 64.4255 204.896 64.6593 204.427 65.0101C203.959 65.3608 203.724 65.9453 203.724 66.5298C203.841 67.1143 203.959 68.0495 204.31 69.1017Z" fill="#FFA98C"/>
<path d="M162.946 73.3102V71.6736C162.126 71.5567 161.54 71.4398 160.954 71.089C160.485 70.8552 160.016 70.3876 159.665 69.8031C159.313 69.2186 159.079 68.5172 159.079 67.6989L160.719 67.3481C160.837 68.1665 161.071 68.8679 161.422 69.2186C161.891 69.8031 162.36 70.1538 163.063 70.1538V65.2439C162.36 65.127 161.774 64.8932 161.071 64.4256C160.602 64.1918 160.133 63.7241 159.899 63.2565C159.665 62.7889 159.43 62.2044 159.43 61.503C159.43 60.334 159.782 59.3987 160.602 58.6973C161.188 58.2297 161.891 57.879 163.063 57.879V57.0607H164V57.879C164.938 57.9959 165.641 58.2297 166.227 58.6973C166.93 59.2818 167.399 60.1002 167.516 61.0354L165.875 61.2692C165.758 60.6847 165.641 60.2171 165.289 59.8663C164.938 59.5156 164.586 59.2818 164 59.1649V63.7241C164.821 63.958 165.289 64.0749 165.641 64.1918C166.11 64.4256 166.578 64.6594 166.813 65.0101C167.164 65.3608 167.399 65.7115 167.516 66.1791C167.633 66.6467 167.75 67.1143 167.75 67.582C167.75 68.6341 167.399 69.5693 166.696 70.3876C165.992 71.089 165.055 71.5567 164 71.5567V73.1933H162.946V73.3102ZM162.946 59.2818C162.36 59.3987 161.774 59.6325 161.422 59.9832C161.071 60.334 160.837 60.9185 160.837 61.3861C160.837 61.9706 160.954 62.4382 161.305 62.7889C161.657 63.1396 162.126 63.4903 162.829 63.7241V59.2818H162.946ZM163.883 70.3876C164.469 70.2707 165.055 70.0369 165.407 69.5693C165.758 69.1017 165.992 68.5172 165.992 67.8158C165.992 67.2312 165.875 66.7636 165.524 66.4129C165.289 66.0622 164.703 65.7115 163.766 65.4777V70.3876H163.883Z" fill="#FFA98C"/>
<path d="M151.931 35.6674V32.7448H148.181V31.4589H151.931V30.173H148.181V29.0039H151.228L147.595 22.6912H149.353L151.931 27.2504C152.165 27.718 152.4 28.1856 152.634 28.6532C152.751 28.3025 152.985 27.8349 153.337 27.2504L155.798 22.6912H157.673L154.04 29.0039H157.087V30.2899H153.454V31.5758H157.087V32.8617H153.454V35.7843H151.931V35.6674Z" fill="#FFA98C"/>
<path d="M32.1731 73.8947C31.1185 73.8947 30.2982 74.1285 29.7123 74.5961C29.3608 74.8299 28.8921 75.2975 28.6577 75.7652C28.3062 76.3497 28.0718 76.8173 28.0718 77.2849H34.1652L33.9308 78.4539H27.9546C27.9546 78.5708 27.9546 78.6877 27.9546 78.8046C27.9546 79.2722 27.9546 79.5061 27.9546 79.623H33.6964L33.4621 80.792H28.189C28.4234 82.1948 29.0093 83.1301 29.9467 83.7146C30.6498 84.0653 31.3529 84.2991 32.1731 84.2991C33.2277 84.2991 34.1652 84.0653 34.7511 83.4808V85.3512C34.048 85.7019 33.2277 85.8188 32.2903 85.8188C29.5952 85.8188 27.8375 84.6498 26.9 82.4286C26.6657 81.961 26.5485 81.3765 26.4313 80.792H25.0251L25.2595 79.623H26.1969C26.1969 79.3892 26.1969 79.1553 26.1969 78.8046C26.1969 78.6877 26.1969 78.5708 26.1969 78.4539H25.0251L25.2595 77.2849H26.1969C26.5485 75.2975 27.4859 74.0116 29.1264 73.0764C30.0639 72.6088 31.1185 72.2581 32.2903 72.2581C33.3449 72.2581 34.2823 72.4919 35.1026 72.9595L34.7511 74.5961C33.9308 74.2454 33.1105 73.8947 32.1731 73.8947Z" fill="#FFA98C"/>
<path d="M121.699 4.92188V6.67542H123.456V4.92188H124.862V6.79233C125.214 6.90923 125.565 6.90923 125.917 7.14303C126.503 7.37684 126.972 7.84445 127.323 8.31207C127.675 8.89658 127.792 9.4811 127.792 10.0656C127.792 10.6501 127.675 11.1177 127.323 11.5854C126.972 12.053 126.62 12.5206 125.917 12.7544C126.737 12.9882 127.323 13.3389 127.792 13.9234C128.261 14.5079 128.378 15.0924 128.378 15.9108C128.378 16.4953 128.261 17.0798 128.026 17.6643C127.792 18.1319 127.44 18.5995 127.089 18.8333C126.737 19.0672 126.269 19.301 125.683 19.5348C125.448 19.6517 125.214 19.6517 124.862 19.6517V21.5221H123.456V19.7686H121.699V21.5221H120.292V19.7686H118.535V6.67542H120.292V4.92188H121.699ZM120.292 12.1699H123.105C123.925 12.1699 124.394 12.1699 124.745 12.053C125.214 11.9361 125.565 11.7023 125.683 11.3515C125.917 11.0008 126.034 10.6501 126.034 10.1825C126.034 9.7149 125.917 9.36419 125.683 9.01348C125.448 8.66278 125.214 8.42897 124.745 8.31207C124.394 8.19516 123.691 8.07826 122.753 8.07826H120.175V12.1699H120.292ZM120.292 18.2488H123.573C124.159 18.2488 124.511 18.2488 124.745 18.1319C125.097 18.015 125.448 17.8981 125.8 17.7812C126.034 17.6643 126.269 17.4305 126.503 17.0798C126.62 16.7291 126.737 16.3784 126.737 16.0277C126.737 15.5601 126.62 15.0924 126.386 14.7417C126.151 14.391 125.8 14.1572 125.331 14.0403C124.862 13.9234 124.276 13.8065 123.456 13.8065H120.41V18.2488H120.292Z" fill="#FFA98C"/>
<path d="M64.9834 51.3324H67.7957V52.6184H65.2178C65.335 52.8522 65.335 53.086 65.335 53.4367C65.335 53.9043 65.2178 54.4888 64.9834 55.0733C64.7491 55.6579 64.2803 56.2424 63.8116 56.8269C64.2803 56.71 64.7491 56.5931 65.1006 56.5931C65.5693 56.5931 66.1552 56.71 66.7411 56.8269C67.7957 57.0607 68.4988 57.1776 68.8504 57.1776C69.3191 57.1776 69.905 57.0607 70.6081 56.71L71.0768 58.2297C70.4909 58.4635 70.1393 58.5804 69.7878 58.6973C69.4363 58.8142 69.2019 58.8142 68.8504 58.8142C68.616 58.8142 68.3816 58.8142 68.1473 58.6973C68.0301 58.6973 67.5614 58.5804 66.9755 58.3466C66.3896 58.1128 65.9209 57.9959 65.8037 57.9959C65.5693 57.9959 65.2178 57.879 64.9834 57.879C64.5147 57.879 64.046 57.9959 63.5773 58.1128C63.1086 58.2297 62.6398 58.4635 62.2883 58.6973L61.7024 57.1776C62.2883 56.8269 62.757 56.3593 63.1086 55.7748C63.4601 55.1902 63.6944 54.4888 63.6944 53.6705C63.6944 53.3198 63.6945 52.9691 63.5773 52.6184H61.8196V51.3324H63.2257C62.9914 50.631 62.8742 50.1634 62.8742 49.9296C62.8742 49.5789 62.757 49.3451 62.757 48.9944C62.757 47.7084 63.2257 46.7732 64.1632 46.0718C64.8662 45.4873 65.8037 45.2535 66.8583 45.2535C67.9129 45.2535 68.8504 45.6042 69.5534 46.1887C70.2565 46.7732 70.7252 47.5915 70.8424 48.6437L69.0847 48.8775C68.9675 48.1761 68.7332 47.5915 68.2645 47.2408C67.7957 46.8901 67.327 46.6563 66.6239 46.6563C65.9209 46.6563 65.4521 46.8901 64.9834 47.2408C64.5147 47.7084 64.2803 48.1761 64.2803 48.7606C64.3975 49.462 64.6319 50.2803 64.9834 51.3324Z" fill="#FFA98C"/>
<path d="M34.1653 126.15V124.514C33.345 124.397 32.7591 124.28 32.1732 123.929C31.7045 123.695 31.2358 123.228 30.8842 122.643C30.5327 122.059 30.2983 121.357 30.2983 120.539L31.9389 120.188C32.056 121.007 32.2904 121.708 32.6419 122.059C33.1107 122.643 33.5794 122.994 34.2825 122.994V117.85C33.5794 117.733 32.9935 117.5 32.2904 117.032C31.8217 116.798 31.353 116.331 31.1186 115.863C30.8842 115.395 30.6499 114.811 30.6499 114.109C30.6499 112.94 31.0014 112.005 31.8217 111.304C32.4076 110.836 33.1107 110.485 34.2825 110.485V109.667H35.2199V110.836C36.1573 110.953 36.8604 111.187 37.4463 111.654C38.1494 112.239 38.6181 113.057 38.7353 113.993L37.0948 114.226C36.9776 113.642 36.8604 113.174 36.5089 112.823C36.1573 112.473 35.8058 112.239 35.2199 112.122V116.681C36.0401 116.915 36.5089 117.032 36.8604 117.149C37.3291 117.383 37.7978 117.617 38.0322 117.967C38.3837 118.318 38.6181 118.669 38.7353 119.136C38.8525 119.604 38.9696 120.071 38.9696 120.539C38.9696 121.591 38.6181 122.526 37.915 123.345C37.2119 124.046 36.2745 124.514 35.2199 124.514V126.15H34.1653ZM34.1653 112.122C33.5794 112.239 32.9935 112.473 32.6419 112.823C32.2904 113.174 32.056 113.759 32.056 114.226C32.056 114.811 32.1732 115.278 32.5248 115.629C32.8763 115.98 33.345 116.331 34.0481 116.564V112.122H34.1653ZM35.1027 123.228C35.6886 123.111 36.2745 122.877 36.626 122.41C36.9776 121.942 37.2119 121.357 37.2119 120.656C37.2119 120.071 37.0948 119.604 36.7432 119.253C36.5089 118.902 35.923 118.552 34.9855 118.318V123.228H35.1027Z" fill="#FFA98C"/>
<path d="M184.741 44.552V43.2661L190.717 36.3688C190.014 36.3688 189.428 36.3688 188.96 36.3688H185.093V35.0829H192.827V36.135L187.671 42.0971L186.733 43.1492C187.436 43.1492 188.139 43.0323 188.725 43.0323H193.061V44.4351H184.741V44.552Z" fill="#FFA98C"/>
<path d="M194.584 39.4083L193.413 40.3435V38.9407L194.584 38.0054V31.4589H196.225V36.6026L197.397 35.5505V36.9533L196.225 38.0054V44.4351H194.584V39.4083Z" fill="#FFA98C"/>
<path d="M101.778 38.1224V39.4083H107.051V40.5774H101.778V43.8506H100.02V40.5774H99.0828V39.4083H100.02V38.1224H99.0828V36.6026H100.02V30.8744H104.121C105.293 30.8744 106.231 30.9913 106.817 31.2251C107.403 31.4589 107.871 31.8096 108.223 32.511C108.574 33.0955 108.809 33.797 108.809 34.4984C108.809 35.1998 108.692 35.7843 108.457 36.2519C108.223 36.7195 107.871 37.0703 107.403 37.421C106.934 37.6548 106.465 37.8886 105.879 38.0055C105.293 38.1224 104.707 38.1224 104.121 38.1224H101.778ZM104.121 36.6026C104.473 36.6026 104.942 36.6026 105.293 36.4857C105.645 36.3688 105.996 36.2519 106.231 36.135C106.465 36.0181 106.699 35.7843 106.934 35.4336C107.051 35.1998 107.168 34.7322 107.168 34.3815C107.168 34.0308 107.051 33.6801 106.934 33.4463C106.817 33.2125 106.582 32.9786 106.348 32.7448C106.114 32.6279 105.762 32.511 105.41 32.3941C105.059 32.2772 104.707 32.2772 104.356 32.2772H101.895V36.6026H104.121Z" fill="#FFA98C"/>
<path d="M73.6548 88.1569H66.0382C66.0382 88.3907 65.921 88.6245 65.921 88.8584C65.921 89.5598 66.1553 90.1443 66.5069 90.6119C66.9756 91.1964 67.6787 91.4302 68.4989 91.4302C69.3192 91.4302 70.0223 91.1964 70.491 90.6119C70.8425 90.1443 71.1941 89.6767 71.1941 88.9753L72.8346 89.326C72.7174 90.3781 72.2487 91.1964 71.5456 91.8978C70.7254 92.4824 69.7879 92.8331 68.4989 92.8331C67.913 92.8331 67.3271 92.7162 66.6241 92.4824C66.0382 92.2486 65.5694 92.0147 65.2179 91.5471C64.5148 90.8457 64.1633 89.9105 64.1633 88.7415C64.1633 88.5076 64.1633 88.3907 64.1633 88.1569H63.5774V86.6372H64.7492C65.1007 86.1696 65.6866 85.702 66.3897 85.3513C66.5069 85.2344 67.0928 85.1175 68.2646 84.7667H63.6946V83.247H70.8425C70.9597 83.0132 70.9597 82.6625 70.9597 82.3118C70.9597 81.7273 70.7254 81.2597 70.3738 80.9089C69.9051 80.4413 69.3192 80.2075 68.4989 80.2075C67.6787 80.2075 67.0928 80.4413 66.7412 80.792C66.3897 81.1428 66.2725 81.6104 66.1553 82.1949L64.5148 81.9611C64.632 80.9089 65.1007 80.2075 65.8038 79.623C66.5069 79.0385 67.3271 78.8047 68.3818 78.8047C69.6707 78.8047 70.7254 79.0385 71.4284 79.623C72.2487 80.3244 72.6002 81.2597 72.6002 82.4287C72.6002 82.6625 72.6002 82.8963 72.4831 83.247H73.5377V84.7667H71.8972C71.6628 85.0006 71.4284 85.2344 71.0769 85.3513C70.6082 85.5851 69.6707 85.9358 68.1474 86.2865C68.0302 86.2865 67.7959 86.4034 67.6787 86.4034H73.772V88.1569H73.6548Z" fill="#FFA98C"/>
<path d="M60.062 157.247V144.27H61.7025V151.752L65.4523 147.894H67.5615L63.9289 151.401L67.9131 157.364H65.921L62.7571 152.571L61.5853 153.623V157.364H60.062V157.247Z" fill="#FFA98C"/>
<path d="M69.0847 157.247V147.778H70.4909V149.18C70.8424 148.479 71.194 148.011 71.5455 147.894C71.897 147.661 72.2486 147.544 72.6001 147.544C73.186 147.544 73.6547 147.661 74.2406 148.011L73.6547 149.531C73.3032 149.297 72.8345 149.18 72.4829 149.18C72.1314 149.18 71.7799 149.297 71.5455 149.531C71.3111 149.765 71.0768 149.999 70.9596 150.349C70.7252 150.934 70.7252 151.518 70.7252 152.22V157.13H69.0847V157.247Z" fill="#FFA98C"/>
</g>
<defs>
<linearGradient id="paint0_linear_223_4255" x1="195.222" y1="262.184" x2="141.531" y2="276.079" gradientUnits="userSpaceOnUse">
<stop offset="0.0151515" stop-color="#FFA98C"/>
<stop offset="0.0748261" stop-color="#C46AA7"/>
<stop offset="0.1334" stop-color="#9033C0"/>
<stop offset="0.1616" stop-color="#7C1DC9"/>
<stop offset="0.3203" stop-color="#6E41D2"/>
<stop offset="0.67" stop-color="#4C9BE8"/>
<stop offset="1" stop-color="#2AF6FF"/>
</linearGradient>
<linearGradient id="paint1_linear_223_4255" x1="187.02" y1="284.395" x2="133.328" y2="298.291" gradientUnits="userSpaceOnUse">
<stop offset="0.0151515" stop-color="#FFA98C"/>
<stop offset="0.0748261" stop-color="#C46AA7"/>
<stop offset="0.1334" stop-color="#9033C0"/>
<stop offset="0.1616" stop-color="#7C1DC9"/>
<stop offset="0.3203" stop-color="#6E41D2"/>
<stop offset="0.67" stop-color="#4C9BE8"/>
<stop offset="1" stop-color="#2AF6FF"/>
</linearGradient>
<linearGradient id="paint2_linear_223_4255" x1="66.8613" y1="255.285" x2="97.2831" y2="275.81" gradientUnits="userSpaceOnUse">
<stop offset="0.0151515" stop-color="#FFA98C"/>
<stop offset="0.0748261" stop-color="#C46AA7"/>
<stop offset="0.1334" stop-color="#9033C0"/>
<stop offset="0.1616" stop-color="#7C1DC9"/>
<stop offset="0.3203" stop-color="#6E41D2"/>
<stop offset="0.67" stop-color="#4C9BE8"/>
<stop offset="1" stop-color="#2AF6FF"/>
</linearGradient>
<linearGradient id="paint3_linear_223_4255" x1="67.0078" y1="277.204" x2="97.4296" y2="297.729" gradientUnits="userSpaceOnUse">
<stop offset="0.0151515" stop-color="#FFA98C"/>
<stop offset="0.0748261" stop-color="#C46AA7"/>
<stop offset="0.1334" stop-color="#9033C0"/>
<stop offset="0.1616" stop-color="#7C1DC9"/>
<stop offset="0.3203" stop-color="#6E41D2"/>
<stop offset="0.67" stop-color="#4C9BE8"/>
<stop offset="1" stop-color="#2AF6FF"/>
</linearGradient>
<linearGradient id="paint4_linear_223_4255" x1="144.416" y1="345.315" x2="288.539" y2="302.057" gradientUnits="userSpaceOnUse">
<stop stop-color="#25054D"/>
<stop offset="1" stop-color="#45108A"/>
</linearGradient>
<linearGradient id="paint5_linear_223_4255" x1="-4.49219" y1="362.748" x2="185.082" y2="320.151" gradientUnits="userSpaceOnUse">
<stop stop-color="#25054D"/>
<stop offset="1" stop-color="#45108A"/>
</linearGradient>
<linearGradient id="paint6_linear_223_4255" x1="181.247" y1="204.215" x2="106.326" y2="347.336" gradientUnits="userSpaceOnUse">
<stop offset="0.7374" stop-color="#45108A"/>
<stop offset="1" stop-color="#3746A3"/>
</linearGradient>
<linearGradient id="paint7_linear_223_4255" x1="110.768" y1="342.856" x2="245.376" y2="302.455" gradientUnits="userSpaceOnUse">
<stop offset="0.030303" stop-color="#7C1DC9"/>
<stop offset="0.2138" stop-color="#6E41D2"/>
<stop offset="0.6184" stop-color="#4C9BE8"/>
<stop offset="1" stop-color="#2AF6FF"/>
</linearGradient>
<linearGradient id="paint8_linear_223_4255" x1="4.00095" y1="349.583" x2="181.066" y2="309.797" gradientUnits="userSpaceOnUse">
<stop offset="0.0353535" stop-color="#138BBD"/>
<stop offset="0.2257" stop-color="#169AC7"/>
<stop offset="0.5946" stop-color="#1FC3DF"/>
<stop offset="1" stop-color="#2AF6FF"/>
</linearGradient>
<linearGradient id="paint9_linear_223_4255" x1="144.174" y1="326.823" x2="291.481" y2="282.609" gradientUnits="userSpaceOnUse">
<stop stop-color="#25054D"/>
<stop offset="1" stop-color="#45108A"/>
</linearGradient>
<linearGradient id="paint10_linear_223_4255" x1="-6.55807" y1="344.646" x2="187.238" y2="301.1" gradientUnits="userSpaceOnUse">
<stop stop-color="#25054D"/>
<stop offset="1" stop-color="#45108A"/>
</linearGradient>
<linearGradient id="paint11_linear_223_4255" x1="181.247" y1="182.637" x2="106.326" y2="325.758" gradientUnits="userSpaceOnUse">
<stop offset="0.7374" stop-color="#45108A"/>
<stop offset="1" stop-color="#3746A3"/>
</linearGradient>
<linearGradient id="paint12_linear_223_4255" x1="110.768" y1="321.359" x2="245.376" y2="280.957" gradientUnits="userSpaceOnUse">
<stop offset="0.030303" stop-color="#7C1DC9"/>
<stop offset="0.2138" stop-color="#6E41D2"/>
<stop offset="0.6184" stop-color="#4C9BE8"/>
<stop offset="1" stop-color="#2AF6FF"/>
</linearGradient>
<linearGradient id="paint13_linear_223_4255" x1="4.00095" y1="328.086" x2="181.066" y2="288.3" gradientUnits="userSpaceOnUse">
<stop offset="0.0353535" stop-color="#138BBD"/>
<stop offset="0.2257" stop-color="#169AC7"/>
<stop offset="0.5946" stop-color="#1FC3DF"/>
<stop offset="1" stop-color="#2AF6FF"/>
</linearGradient>
<linearGradient id="paint14_linear_223_4255" x1="143.931" y1="302.384" x2="294.424" y2="257.215" gradientUnits="userSpaceOnUse">
<stop stop-color="#25054D"/>
<stop offset="1" stop-color="#45108A"/>
</linearGradient>
<linearGradient id="paint15_linear_223_4255" x1="-8.62382" y1="320.597" x2="189.395" y2="276.102" gradientUnits="userSpaceOnUse">
<stop stop-color="#25054D"/>
<stop offset="1" stop-color="#45108A"/>
</linearGradient>
<linearGradient id="paint16_linear_223_4255" x1="181.247" y1="155.112" x2="106.326" y2="298.233" gradientUnits="userSpaceOnUse">
<stop offset="0.7374" stop-color="#45108A"/>
<stop offset="1" stop-color="#3746A3"/>
</linearGradient>
<linearGradient id="paint17_linear_223_4255" x1="110.768" y1="293.512" x2="245.376" y2="253.111" gradientUnits="userSpaceOnUse">
<stop offset="0.030303" stop-color="#7C1DC9"/>
<stop offset="0.2138" stop-color="#6E41D2"/>
<stop offset="0.6184" stop-color="#4C9BE8"/>
<stop offset="1" stop-color="#2AF6FF"/>
</linearGradient>
<linearGradient id="paint18_linear_223_4255" x1="4.00095" y1="300.24" x2="181.066" y2="260.453" gradientUnits="userSpaceOnUse">
<stop offset="0.0353535" stop-color="#138BBD"/>
<stop offset="0.2257" stop-color="#169AC7"/>
<stop offset="0.5946" stop-color="#1FC3DF"/>
<stop offset="1" stop-color="#2AF6FF"/>
</linearGradient>
<linearGradient id="paint19_linear_223_4255" x1="143.641" y1="270.611" x2="297.955" y2="224.295" gradientUnits="userSpaceOnUse">
<stop stop-color="#25054D"/>
<stop offset="1" stop-color="#45108A"/>
</linearGradient>
<linearGradient id="paint20_linear_223_4255" x1="-11.1028" y1="289.292" x2="191.983" y2="243.659" gradientUnits="userSpaceOnUse">
<stop stop-color="#25054D"/>
<stop offset="1" stop-color="#45108A"/>
</linearGradient>
<linearGradient id="paint21_linear_223_4255" x1="151.533" y1="176.13" x2="93.336" y2="287.305" gradientUnits="userSpaceOnUse">
<stop offset="0.1364" stop-color="#45108A"/>
<stop offset="1" stop-color="#3746A3"/>
</linearGradient>
<linearGradient id="paint22_linear_223_4255" x1="143.488" y1="378.766" x2="136.49" y2="270.629" gradientUnits="userSpaceOnUse">
<stop offset="0.0151515" stop-color="#FFA98C"/>
<stop offset="0.0748261" stop-color="#C46AA7"/>
<stop offset="0.1334" stop-color="#9033C0"/>
<stop offset="0.1616" stop-color="#7C1DC9"/>
<stop offset="0.3203" stop-color="#6E41D2"/>
<stop offset="0.67" stop-color="#4C9BE8"/>
<stop offset="1" stop-color="#2AF6FF"/>
</linearGradient>
<linearGradient id="paint23_linear_223_4255" x1="179.608" y1="378.246" x2="146.494" y2="299.79" gradientUnits="userSpaceOnUse">
<stop offset="0.0151515" stop-color="#FFA98C"/>
<stop offset="0.0748261" stop-color="#C46AA7"/>
<stop offset="0.1334" stop-color="#9033C0"/>
<stop offset="0.1616" stop-color="#7C1DC9"/>
<stop offset="0.3203" stop-color="#6E41D2"/>
<stop offset="0.67" stop-color="#4C9BE8"/>
<stop offset="1" stop-color="#2AF6FF"/>
</linearGradient>
<linearGradient id="paint24_linear_223_4255" x1="20.0651" y1="334.915" x2="85.3589" y2="278.649" gradientUnits="userSpaceOnUse">
<stop offset="0.0151515" stop-color="#FFA98C"/>
<stop offset="0.0748261" stop-color="#C46AA7"/>
<stop offset="0.1334" stop-color="#9033C0"/>
<stop offset="0.1616" stop-color="#7C1DC9"/>
<stop offset="0.3203" stop-color="#6E41D2"/>
<stop offset="0.67" stop-color="#4C9BE8"/>
<stop offset="1" stop-color="#2AF6FF"/>
</linearGradient>
<linearGradient id="paint25_linear_223_4255" x1="43.2729" y1="361.683" x2="95.5738" y2="315.226" gradientUnits="userSpaceOnUse">
<stop offset="0.0151515" stop-color="#FFA98C"/>
<stop offset="0.0748261" stop-color="#C46AA7"/>
<stop offset="0.1334" stop-color="#9033C0"/>
<stop offset="0.1616" stop-color="#7C1DC9"/>
<stop offset="0.3203" stop-color="#6E41D2"/>
<stop offset="0.67" stop-color="#4C9BE8"/>
<stop offset="1" stop-color="#2AF6FF"/>
</linearGradient>
<linearGradient id="paint26_linear_223_4255" x1="105.416" y1="370.08" x2="111.37" y2="285.96" gradientUnits="userSpaceOnUse">
<stop offset="0.0151515" stop-color="#FFA98C"/>
<stop offset="0.0748261" stop-color="#C46AA7"/>
<stop offset="0.1334" stop-color="#9033C0"/>
<stop offset="0.1616" stop-color="#7C1DC9"/>
<stop offset="0.3203" stop-color="#6E41D2"/>
<stop offset="0.67" stop-color="#4C9BE8"/>
<stop offset="1" stop-color="#2AF6FF"/>
</linearGradient>
<linearGradient id="paint27_linear_223_4255" x1="64.5584" y1="380.62" x2="103.703" y2="332.794" gradientUnits="userSpaceOnUse">
<stop offset="0.0151515" stop-color="#FFA98C"/>
<stop offset="0.0748261" stop-color="#C46AA7"/>
<stop offset="0.1334" stop-color="#9033C0"/>
<stop offset="0.1616" stop-color="#7C1DC9"/>
<stop offset="0.3203" stop-color="#6E41D2"/>
<stop offset="0.67" stop-color="#4C9BE8"/>
<stop offset="1" stop-color="#2AF6FF"/>
</linearGradient>
<linearGradient id="paint28_linear_223_4255" x1="215.328" y1="326.876" x2="160.772" y2="272.777" gradientUnits="userSpaceOnUse">
<stop offset="0.0151515" stop-color="#FFA98C"/>
<stop offset="0.0748261" stop-color="#C46AA7"/>
<stop offset="0.1334" stop-color="#9033C0"/>
<stop offset="0.1616" stop-color="#7C1DC9"/>
<stop offset="0.3203" stop-color="#6E41D2"/>
<stop offset="0.67" stop-color="#4C9BE8"/>
<stop offset="1" stop-color="#2AF6FF"/>
</linearGradient>
<linearGradient id="paint29_linear_223_4255" x1="201.746" y1="351.812" x2="168.439" y2="314.465" gradientUnits="userSpaceOnUse">
<stop offset="0.0151515" stop-color="#FFA98C"/>
<stop offset="0.0748261" stop-color="#C46AA7"/>
<stop offset="0.1334" stop-color="#9033C0"/>
<stop offset="0.1616" stop-color="#7C1DC9"/>
<stop offset="0.3203" stop-color="#6E41D2"/>
<stop offset="0.67" stop-color="#4C9BE8"/>
<stop offset="1" stop-color="#2AF6FF"/>
</linearGradient>
<radialGradient id="paint30_radial_223_4255" cx="0" cy="0" r="1" gradientUnits="userSpaceOnUse" gradientTransform="translate(211.649 114.324) scale(24.8031 24.7445)">
<stop stop-color="#7C1DC9"/>
<stop offset="0.0135345" stop-color="#7A1DC7"/>
<stop offset="0.2512" stop-color="#6317AC"/>
<stop offset="0.4933" stop-color="#521399"/>
<stop offset="0.7404" stop-color="#48118E"/>
<stop offset="1" stop-color="#45108A"/>
</radialGradient>
<linearGradient id="paint31_linear_223_4255" x1="101.16" y1="50.3846" x2="135.278" y2="241.257" gradientUnits="userSpaceOnUse">
<stop offset="0.0151515" stop-color="#FFA98C"/>
<stop offset="0.0748261" stop-color="#C46AA7"/>
<stop offset="0.1334" stop-color="#9033C0"/>
<stop offset="0.1616" stop-color="#7C1DC9"/>
<stop offset="0.3203" stop-color="#6E41D2"/>
<stop offset="0.67" stop-color="#4C9BE8"/>
<stop offset="1" stop-color="#2AF6FF"/>
</linearGradient>
<linearGradient id="paint32_linear_223_4255" x1="143.029" y1="75.0027" x2="138.364" y2="229.316" gradientUnits="userSpaceOnUse">
<stop offset="0.0151515" stop-color="#FFA98C"/>
<stop offset="0.0748261" stop-color="#C46AA7"/>
<stop offset="0.1334" stop-color="#9033C0"/>
<stop offset="0.1616" stop-color="#7C1DC9"/>
<stop offset="0.3203" stop-color="#6E41D2"/>
<stop offset="0.67" stop-color="#4C9BE8"/>
<stop offset="1" stop-color="#2AF6FF"/>
</linearGradient>
<linearGradient id="paint33_linear_223_4255" x1="59.6581" y1="80.4021" x2="109.838" y2="212.581" gradientUnits="userSpaceOnUse">
<stop offset="0.0151515" stop-color="#FFA98C"/>
<stop offset="0.0748261" stop-color="#C46AA7"/>
<stop offset="0.1334" stop-color="#9033C0"/>
<stop offset="0.1616" stop-color="#7C1DC9"/>
<stop offset="0.3203" stop-color="#6E41D2"/>
<stop offset="0.67" stop-color="#4C9BE8"/>
<stop offset="1" stop-color="#2AF6FF"/>
</linearGradient>
<linearGradient id="paint34_linear_223_4255" x1="49.5575" y1="117.627" x2="108.005" y2="159.808" gradientUnits="userSpaceOnUse">
<stop offset="0.0151515" stop-color="#FFA98C"/>
<stop offset="0.0748261" stop-color="#C46AA7"/>
<stop offset="0.1334" stop-color="#9033C0"/>
<stop offset="0.1616" stop-color="#7C1DC9"/>
<stop offset="0.3203" stop-color="#6E41D2"/>
<stop offset="0.67" stop-color="#4C9BE8"/>
<stop offset="1" stop-color="#2AF6FF"/>
</linearGradient>
<linearGradient id="paint35_linear_223_4255" x1="90.6646" y1="92.4216" x2="122.745" y2="230.693" gradientUnits="userSpaceOnUse">
<stop offset="0.0151515" stop-color="#FFA98C"/>
<stop offset="0.0748261" stop-color="#C46AA7"/>
<stop offset="0.1334" stop-color="#9033C0"/>
<stop offset="0.1616" stop-color="#7C1DC9"/>
<stop offset="0.3203" stop-color="#6E41D2"/>
<stop offset="0.67" stop-color="#4C9BE8"/>
<stop offset="1" stop-color="#2AF6FF"/>
</linearGradient>
<linearGradient id="paint36_linear_223_4255" x1="73.1477" y1="88.3728" x2="115.884" y2="88.3728" gradientUnits="userSpaceOnUse">
<stop offset="0.0151515" stop-color="#FFA98C"/>
<stop offset="0.0748261" stop-color="#C46AA7"/>
<stop offset="0.1334" stop-color="#9033C0"/>
<stop offset="0.1616" stop-color="#7C1DC9"/>
<stop offset="0.3203" stop-color="#6E41D2"/>
<stop offset="0.67" stop-color="#4C9BE8"/>
<stop offset="1" stop-color="#2AF6FF"/>
</linearGradient>
<linearGradient id="paint37_linear_223_4255" x1="188.81" y1="75.6292" x2="128.11" y2="202.289" gradientUnits="userSpaceOnUse">
<stop offset="0.0151515" stop-color="#FFA98C"/>
<stop offset="0.0748261" stop-color="#C46AA7"/>
<stop offset="0.1334" stop-color="#9033C0"/>
<stop offset="0.1616" stop-color="#7C1DC9"/>
<stop offset="0.3203" stop-color="#6E41D2"/>
<stop offset="0.67" stop-color="#4C9BE8"/>
<stop offset="1" stop-color="#2AF6FF"/>
</linearGradient>
<linearGradient id="paint38_linear_223_4255" x1="167.33" y1="162.867" x2="136.892" y2="178.122" gradientUnits="userSpaceOnUse">
<stop offset="0.0151515" stop-color="#FFA98C"/>
<stop offset="0.0748261" stop-color="#C46AA7"/>
<stop offset="0.1334" stop-color="#9033C0"/>
<stop offset="0.1616" stop-color="#7C1DC9"/>
<stop offset="0.3203" stop-color="#6E41D2"/>
<stop offset="0.67" stop-color="#4C9BE8"/>
<stop offset="1" stop-color="#2AF6FF"/>
</linearGradient>
<linearGradient id="paint39_linear_223_4255" x1="194.027" y1="53.6291" x2="142.342" y2="130.022" gradientUnits="userSpaceOnUse">
<stop offset="0.0151515" stop-color="#FFA98C"/>
<stop offset="0.0748261" stop-color="#C46AA7"/>
<stop offset="0.1334" stop-color="#9033C0"/>
<stop offset="0.1616" stop-color="#7C1DC9"/>
<stop offset="0.3203" stop-color="#6E41D2"/>
<stop offset="0.67" stop-color="#4C9BE8"/>
<stop offset="1" stop-color="#2AF6FF"/>
</linearGradient>
<linearGradient id="paint40_linear_223_4255" x1="152.252" y1="41.9503" x2="127.153" y2="91.3899" gradientUnits="userSpaceOnUse">
<stop offset="0.0151515" stop-color="#FFA98C"/>
<stop offset="0.0748261" stop-color="#C46AA7"/>
<stop offset="0.1334" stop-color="#9033C0"/>
<stop offset="0.1616" stop-color="#7C1DC9"/>
<stop offset="0.3203" stop-color="#6E41D2"/>
<stop offset="0.67" stop-color="#4C9BE8"/>
<stop offset="1" stop-color="#2AF6FF"/>
</linearGradient>
<linearGradient id="paint41_linear_223_4255" x1="198.838" y1="115.957" x2="133.131" y2="164.425" gradientUnits="userSpaceOnUse">
<stop offset="0.0151515" stop-color="#FFA98C"/>
<stop offset="0.0748261" stop-color="#C46AA7"/>
<stop offset="0.1334" stop-color="#9033C0"/>
<stop offset="0.1616" stop-color="#7C1DC9"/>
<stop offset="0.3203" stop-color="#6E41D2"/>
<stop offset="0.67" stop-color="#4C9BE8"/>
<stop offset="1" stop-color="#2AF6FF"/>
</linearGradient>
<linearGradient id="paint42_linear_223_4255" x1="81.547" y1="151.55" x2="109.873" y2="192.529" gradientUnits="userSpaceOnUse">
<stop offset="0.0151515" stop-color="#FFA98C"/>
<stop offset="0.0748261" stop-color="#C46AA7"/>
<stop offset="0.1334" stop-color="#9033C0"/>
<stop offset="0.1616" stop-color="#7C1DC9"/>
<stop offset="0.3203" stop-color="#6E41D2"/>
<stop offset="0.67" stop-color="#4C9BE8"/>
<stop offset="1" stop-color="#2AF6FF"/>
</linearGradient>
<linearGradient id="paint43_linear_223_4255" x1="122.448" y1="24.8929" x2="122.448" y2="76.139" gradientUnits="userSpaceOnUse">
<stop offset="0.0151515" stop-color="#FFA98C"/>
<stop offset="0.0748261" stop-color="#C46AA7"/>
<stop offset="0.1334" stop-color="#9033C0"/>
<stop offset="0.1616" stop-color="#7C1DC9"/>
<stop offset="0.3203" stop-color="#6E41D2"/>
<stop offset="0.67" stop-color="#4C9BE8"/>
<stop offset="1" stop-color="#2AF6FF"/>
</linearGradient>
<clipPath id="clip0_223_4255">
<rect width="236" height="379" fill="white" transform="translate(0.41748 0.947144)"/>
</clipPath>
</defs>
</svg>
