<svg width="351" height="348" viewBox="0 0 351 348" fill="none" xmlns="http://www.w3.org/2000/svg">
<path d="M181.176 0.685296C91.5366 -2.01164 13.89 64.2592 2.15901 151.215C-10.6671 246.289 59.9266 331.833 146.789 345.534C254.832 362.576 359.627 263.987 350.218 157.032C343.128 76.4504 272.296 3.42677 181.176 0.685296Z" fill="#41387C"/>
<path d="M328.159 196.835V26.4323C328.159 22.9382 325.28 19.9636 321.751 19.8217L28.996 8.05352C24.5411 7.87437 20.8853 10.9528 20.8853 14.8949V203.216L328.159 196.835Z" fill="#332598"/>
<path d="M29.9399 41.1034V188.209C29.9399 191.881 33.3341 194.788 37.4708 194.671L315.314 186.769C318.63 186.674 321.336 183.918 321.336 180.643V49.4422L29.9399 41.1034Z" fill="#0D006A"/>
<path d="M321.336 49.4423V34.3853C321.336 31.1776 318.685 28.4541 315.437 28.3329L37.3171 17.9572C33.2648 17.8061 29.9399 20.6247 29.9399 24.2213V41.1034L321.336 49.4423Z" fill="#41387C"/>
<path d="M50.2696 29.6502C50.2696 30.9143 49.1175 31.9026 47.6944 31.8576C46.2692 31.8125 45.1123 30.7483 45.1123 29.4809C45.1123 28.2133 46.2692 27.2252 47.6944 27.2737C49.1175 27.3221 50.2696 28.3862 50.2696 29.6502Z" fill="#9D3060"/>
<path d="M61.3699 30.0147C61.3699 31.2714 60.2313 32.2542 58.8248 32.2097C57.4163 32.1652 56.2729 31.1074 56.2729 29.8474C56.2729 28.5873 57.4163 27.6047 58.8248 27.6527C60.2313 27.7006 61.3699 28.7581 61.3699 30.0147Z" fill="#9D3060"/>
<path d="M72.3405 30.3751C72.3405 31.6245 71.2151 32.6017 69.825 32.5578C68.4329 32.5137 67.3027 31.4625 67.3027 30.2097C67.3027 28.957 68.4327 27.9799 69.825 28.0273C71.2151 28.0746 72.3405 29.1257 72.3405 30.3751Z" fill="#9D3060"/>
<path d="M300.712 113.524L234.477 113.287C232.706 113.281 231.269 111.902 231.269 110.208V63.5235C231.269 61.8291 232.706 60.4912 234.477 60.535L300.712 62.1741C302.388 62.2156 303.745 63.5828 303.745 65.2279V110.556C303.745 112.201 302.388 113.53 300.712 113.524Z" fill="#41387C"/>
<path d="M230.939 95.6168V96.9698L304.053 97.7091V96.3957L230.939 95.6168Z" fill="#0D006A"/>
<path d="M257.915 103.972L239.706 103.837C239.586 103.836 239.489 103.743 239.489 103.628V101.345C239.489 101.23 239.586 101.138 239.706 101.139L257.915 101.293C258.033 101.294 258.129 101.387 258.129 101.501V103.767C258.129 103.881 258.033 103.973 257.915 103.972Z" fill="#C281E8"/>
<path d="M279.965 109.183L239.706 108.969C239.586 108.968 239.489 108.874 239.489 108.76V106.477C239.489 106.362 239.586 106.269 239.706 106.27L279.965 106.528C280.081 106.529 280.175 106.621 280.175 106.734V108.98C280.175 109.092 280.081 109.184 279.965 109.183Z" fill="#332598"/>
<path d="M241.138 89.1678C240.961 89.1678 240.782 89.1189 240.622 89.0166C240.174 88.7308 240.043 88.1363 240.329 87.6887C245.308 79.8906 250.867 75.6823 256.851 75.1808C260.659 74.8612 263.524 76.1569 266.296 77.4097C268.748 78.5179 271.284 79.664 274.597 79.7611C280.732 79.9405 287.108 76.3748 293.538 69.1622C293.892 68.7656 294.5 68.7307 294.896 69.0842C295.292 69.4376 295.327 70.0456 294.974 70.4418C288.147 78.0983 281.258 81.8626 274.541 81.6838C270.843 81.5752 268.128 80.3487 265.504 79.1625C262.839 77.9579 260.322 76.8215 257.012 77.0974C251.656 77.5462 246.589 81.4578 241.949 88.7236C241.766 89.0109 241.456 89.1678 241.138 89.1678Z" fill="url(#paint0_linear_223_3604)"/>
<path d="M278.103 80.782C278.103 82.2092 276.914 83.3473 275.444 83.324C273.974 83.3006 272.78 82.1222 272.78 80.6919C272.78 79.2616 273.974 78.1235 275.444 78.15C276.914 78.1763 278.103 79.3547 278.103 80.782Z" fill="#0D006A"/>
<path d="M275.489 83.8118C275.472 83.8118 275.454 83.8118 275.437 83.8116C273.703 83.784 272.293 82.3843 272.293 80.692C272.293 79.8825 272.612 79.123 273.192 78.5533C273.793 77.9639 274.587 77.6548 275.453 77.6627C277.183 77.6936 278.59 79.093 278.59 80.7822C278.59 81.5905 278.272 82.349 277.693 82.9188C277.107 83.4959 276.326 83.8118 275.489 83.8118ZM275.394 78.6371C274.816 78.6371 274.278 78.8534 273.875 79.2489C273.484 79.6335 273.268 80.146 273.268 80.692C273.268 81.8554 274.248 82.8173 275.452 82.8367C276.051 82.8423 276.598 82.6286 277.009 82.2237C277.4 81.8391 277.615 81.3269 277.615 80.7822C277.615 79.6211 276.637 78.6592 275.436 78.6375C275.422 78.6372 275.408 78.6371 275.394 78.6371Z" fill="#A67FF7"/>
<path d="M263.269 69.4905L240.015 68.9928V65.1819L263.269 65.7153V69.4905Z" fill="#332598"/>
<path d="M288.535 86.7394L279.303 86.6051V83.7391L288.535 83.8843V86.7394Z" fill="#C281E8"/>
<path d="M127.507 175.623L51.3268 177.189C49.2858 177.23 47.6289 175.79 47.6289 173.971V123.851C47.6289 122.032 49.2858 120.558 51.3268 120.56L127.507 120.607C129.431 120.608 130.988 122.037 130.988 123.8V172.36C130.988 174.123 129.43 175.583 127.507 175.623Z" fill="#41387C"/>
<path d="M131.127 156.395L47.2173 157.501V158.953L131.127 157.803V156.395Z" fill="#0D006A"/>
<path d="M124.331 142.009L56.896 142.522V126.446L124.331 126.339V142.009Z" fill="#332598"/>
<path d="M124.331 150.568L56.896 151.304V145.63L124.331 145.038V150.568Z" fill="#332598"/>
<path d="M78.2474 165.747L56.9654 166.097C56.8273 166.099 56.7153 166.001 56.7153 165.878V163.427C56.7153 163.304 56.8273 163.202 56.9654 163.2L78.2474 162.873C78.3833 162.871 78.4935 162.969 78.4935 163.091V165.522C78.4935 165.644 78.3833 165.745 78.2474 165.747Z" fill="#332598"/>
<path d="M98.1092 170.844L56.9654 171.605C56.8273 171.608 56.7153 171.51 56.7153 171.387V168.936C56.7153 168.813 56.8273 168.711 56.9654 168.708L98.1092 167.992C98.2431 167.989 98.3516 168.086 98.3516 168.207V170.62C98.3516 170.741 98.2431 170.841 98.1092 170.844Z" fill="#332598"/>
<path d="M217.437 113.226L146.51 112.972C144.611 112.965 143.07 111.538 143.07 109.784V61.4493C143.07 59.6951 144.611 58.3112 146.51 58.3582L217.437 60.1135C219.23 60.1578 220.681 61.573 220.681 63.2746V110.157C220.681 111.858 219.23 113.232 217.437 113.226Z" fill="#41387C"/>
<path d="M221.093 95.512L142.947 94.6794V96.0801L221.093 96.8703V95.512Z" fill="#0D006A"/>
<path d="M189.874 59.09V96.1603L191.337 96.1752V59.1265L189.874 59.09Z" fill="#0D006A"/>
<path d="M180.083 103.397L152.535 103.194C152.406 103.193 152.302 103.096 152.302 102.977V100.614C152.302 100.495 152.406 100.4 152.535 100.401L180.083 100.634C180.209 100.635 180.31 100.731 180.31 100.849V103.186C180.31 103.303 180.208 103.398 180.083 103.397Z" fill="#C281E8"/>
<path d="M187.459 108.691L152.535 108.505C152.406 108.504 152.302 108.407 152.302 108.288V105.925C152.302 105.807 152.406 105.711 152.535 105.712L187.459 105.935C187.584 105.936 187.685 106.032 187.685 106.149V108.48C187.685 108.597 187.584 108.691 187.459 108.691Z" fill="#332598"/>
<path d="M216.609 72.4838L195.328 72.0622V64.1573L216.609 64.6453V72.4838Z" fill="#332598"/>
<path d="M216.609 91.3543L195.328 91.0928V75.4292L216.609 75.8225V91.3543Z" fill="#332598"/>
<path d="M166.147 71.8988C169.452 71.9638 172.134 74.5157 172.134 77.5877C172.134 78.4501 171.916 79.2605 171.54 79.9838L178.526 83.1452C179.365 81.5061 179.835 79.6686 179.835 77.7222C179.835 70.6983 173.713 64.8463 166.147 64.6763C166.127 64.6758 166.108 64.6766 166.088 64.6763V71.9003C166.108 71.9006 166.127 71.8983 166.147 71.8988Z" fill="#0D006A"/>
<path d="M171.54 79.9838C170.574 81.838 168.525 83.1037 166.147 83.0673C162.834 83.0167 160.132 80.4644 160.132 77.3781C160.132 74.3102 162.802 71.8657 166.088 71.9005V64.6763C158.504 64.5357 152.311 70.16 152.311 77.2414C152.311 84.3413 158.536 90.195 166.147 90.2899C171.621 90.3581 176.336 87.4259 178.526 83.1452L171.54 79.9838Z" fill="url(#paint1_linear_223_3604)"/>
<path d="M130.988 109.726C130.988 111.488 129.431 112.911 127.507 112.904L51.3268 112.632C49.2858 112.624 47.6289 111.144 47.6289 109.325V59.2048C47.6289 57.3858 49.2858 55.9522 51.3268 56.0028L127.507 57.8879C129.431 57.9356 130.988 59.4027 130.988 61.1651V109.726Z" fill="#41387C"/>
<path d="M131.127 94.5533L47.2173 93.6595V95.1121L131.127 95.9605V94.5533Z" fill="#0D006A"/>
<path d="M87.6753 56.5472V95.1109L89.2589 95.1272V56.5867L87.6753 56.5472Z" fill="#0D006A"/>
<path d="M80.5571 79.7353L56.896 79.3555V60.9827L80.5571 61.5252V79.7353Z" fill="#332598"/>
<path d="M80.5571 89.6821L56.896 89.3913V82.9067L80.5571 83.2549V89.6821Z" fill="#332598"/>
<path d="M68.6077 102.574L56.9654 102.488C56.8273 102.487 56.7153 102.386 56.7153 102.263V99.8119C56.7153 99.6886 56.8273 99.5897 56.9654 99.5909L68.6077 99.6895C68.7446 99.6906 68.8555 99.791 68.8555 99.9138V102.353C68.8555 102.476 68.7446 102.575 68.6077 102.574Z" fill="#C281E8"/>
<path d="M103.303 108.243L56.9654 107.996C56.8273 107.995 56.7153 107.895 56.7153 107.772V105.321C56.7153 105.198 56.8273 105.098 56.9654 105.099L103.303 105.396C103.437 105.397 103.545 105.496 103.545 105.617V108.025C103.545 108.146 103.437 108.243 103.303 108.243Z" fill="#332598"/>
<path d="M102.571 89.4973L95.9316 89.4146V61.8777L102.571 62.03V89.4973Z" fill="#0D006A"/>
<path d="M113.621 89.6351L107.038 89.5531V62.1325L113.621 62.2835V89.6351Z" fill="#0D006A"/>
<path d="M124.577 89.7717L118.049 89.6903V62.385L124.577 62.5348V89.7717Z" fill="#0D006A"/>
<mask id="mask0_223_3604" style="mask-type:luminance" maskUnits="userSpaceOnUse" x="93" y="71" width="34" height="20">
<path d="M93.312 77.6171C93.312 81.8432 93.312 86.0695 93.312 90.2957C104.485 90.4312 115.564 90.5653 126.549 90.6985C126.549 85.3011 126.549 79.9034 126.549 74.506C117.737 70.3787 112.779 70.7386 109.869 71.872C106.598 73.146 104.704 75.8695 99.2553 77.099C96.813 77.65 94.6728 77.6724 93.312 77.6171Z" fill="white"/>
</mask>
<g mask="url(#mask0_223_3604)">
<path d="M102.571 89.4974L95.9316 89.4146V75.1137L102.571 75.2326V89.4974Z" fill="url(#paint2_linear_223_3604)"/>
<path d="M113.621 89.635L107.038 89.5531V68.4952L113.621 68.6302V89.635Z" fill="url(#paint3_linear_223_3604)"/>
<path d="M124.577 89.7717L118.049 89.6903V71.1349L124.577 71.2626V89.7717Z" fill="url(#paint4_linear_223_3604)"/>
</g>
<path d="M300.712 172.063L234.477 173.424C232.706 173.46 231.269 172.116 231.269 170.422V123.738C231.269 122.044 232.706 120.671 234.477 120.672L300.712 120.713C302.388 120.714 303.745 122.048 303.745 123.693V169.022C303.745 170.667 302.388 172.028 300.712 172.063Z" fill="#41387C"/>
<path d="M230.939 155.08V156.433L304.053 155.43V154.117L230.939 155.08Z" fill="#0D006A"/>
<path d="M252.108 162.888L239.706 163.092C239.586 163.094 239.489 163.003 239.489 162.888V160.605C239.489 160.49 239.586 160.395 239.706 160.394L252.108 160.203C252.226 160.201 252.322 160.292 252.322 160.407V162.678C252.322 162.792 252.226 162.886 252.108 162.888Z" fill="#C281E8"/>
<path d="M265.109 167.753L239.706 168.223C239.586 168.226 239.489 168.134 239.489 168.02V165.737C239.489 165.622 239.586 165.527 239.706 165.525L265.109 165.082C265.227 165.08 265.322 165.171 265.322 165.284V167.544C265.322 167.657 265.226 167.751 265.109 167.753Z" fill="#332598"/>
<path d="M241.996 150.148L238.168 150.191V126.733L241.996 126.727V150.148Z" fill="#0D006A"/>
<path d="M247.673 150.084L243.862 150.127V126.723L247.673 126.716V150.084Z" fill="#0D006A"/>
<path d="M253.323 150.02L249.53 150.063V126.713L253.323 126.706V150.02Z" fill="#0D006A"/>
<path d="M258.948 149.957L255.172 150V126.703L258.948 126.696V149.957Z" fill="#0D006A"/>
<path d="M264.547 149.894L260.788 149.936V126.692L264.547 126.685V149.894Z" fill="#0D006A"/>
<path d="M270.12 149.831L266.378 149.874V126.682L270.12 126.675V149.831Z" fill="#0D006A"/>
<path d="M275.669 149.769L271.944 149.811V126.672L275.669 126.665V149.769Z" fill="#0D006A"/>
<path d="M281.193 149.707L277.484 149.749V126.662L281.193 126.655V149.707Z" fill="#0D006A"/>
<path d="M286.691 149.645L283 149.687V126.652L286.691 126.645V149.645Z" fill="#0D006A"/>
<path d="M292.165 149.584L288.49 149.625V126.642L292.165 126.635V149.584Z" fill="#0D006A"/>
<path d="M297.615 149.522L293.957 149.564V126.632L297.615 126.625V149.522Z" fill="#0D006A"/>
<mask id="mask1_223_3604" style="mask-type:luminance" maskUnits="userSpaceOnUse" x="235" y="131" width="64" height="21">
<path d="M235.116 142.301C238.389 140.199 241.01 139.806 242.851 139.868C245.18 139.947 245.928 140.743 248.453 140.473C251.027 140.198 251.226 139.265 254.104 138.859C254.58 138.792 256.865 138.494 259.656 139.107C262.949 139.83 263.077 140.972 265.109 140.92C266.983 140.871 267.121 139.892 270.831 138.391C272.582 137.683 274.216 137.021 276.381 136.866C278.74 136.698 278.908 137.332 281.906 137.328C284.289 137.325 286.156 136.921 287.333 136.66C290.528 135.951 290.94 132.351 293.096 132.071C294.375 131.905 296.321 131.867 298.832 132.672C298.832 137.775 298.832 145.814 298.832 150.917C277.983 151.163 256.772 151.414 235.191 151.67C235.166 148.547 235.141 145.424 235.116 142.301Z" fill="white"/>
</mask>
<g mask="url(#mask1_223_3604)">
<path d="M241.996 150.148L238.168 150.191V138.009L241.996 137.984V150.148Z" fill="#FFC244"/>
<path d="M247.673 150.084L243.862 150.127V132.154L247.673 132.139V150.084Z" fill="#FFC244"/>
<path d="M253.323 150.021L249.53 150.063V134.195L253.323 134.177V150.021Z" fill="#FFC244"/>
<path d="M258.948 149.957L255.172 150V133.992L258.948 133.974V149.957Z" fill="#FFC244"/>
<path d="M264.547 149.894L260.788 149.937V132.086L264.547 132.071V149.894Z" fill="#FFC244"/>
<path d="M270.12 149.832L266.378 149.874V134.114L270.12 134.096V149.832Z" fill="#FFC244"/>
<path d="M275.669 149.769L271.944 149.811V132.776L275.669 132.76V149.769Z" fill="#FFC244"/>
<path d="M281.193 149.707L277.484 149.749V134.452L281.193 134.433V149.707Z" fill="#FFC244"/>
<path d="M286.691 149.645L283 149.687V134.033L286.691 134.015V149.645Z" fill="#FFC244"/>
<path d="M292.165 149.584L288.49 149.625V131.975L292.165 131.96V149.584Z" fill="#FFC244"/>
<path d="M297.615 149.515L293.957 149.564V129.796L297.615 129.777V149.515Z" fill="#FFC244"/>
</g>
<path d="M217.437 173.774L146.51 175.232C144.611 175.271 143.07 173.881 143.07 172.126V123.792C143.07 122.038 144.611 120.617 146.51 120.618L217.437 120.662C219.23 120.663 220.681 122.043 220.681 123.745V170.627C220.681 172.328 219.23 173.737 217.437 173.774Z" fill="#41387C"/>
<path d="M221.093 155.21L142.947 156.239V157.64L221.093 156.568V155.21Z" fill="#0D006A"/>
<path d="M175.971 164.14L152.535 164.525C152.406 164.527 152.302 164.433 152.302 164.314V161.951C152.302 161.832 152.406 161.734 152.535 161.732L175.971 161.372C176.097 161.37 176.2 161.464 176.2 161.582V163.923C176.2 164.041 176.097 164.138 175.971 164.14Z" fill="#C281E8"/>
<path d="M194.858 169.053L152.535 169.836C152.406 169.839 152.302 169.744 152.302 169.625V167.262C152.302 167.144 152.406 167.045 152.535 167.043L194.858 166.306C194.982 166.304 195.083 166.397 195.083 166.514V168.837C195.083 168.954 194.982 169.051 194.858 169.053Z" fill="#332598"/>
<path d="M150.445 143.126C150.29 143.126 150.133 143.089 149.987 143.01C149.521 142.757 149.347 142.173 149.6 141.706C152.265 136.789 155.272 134.127 158.537 133.793C160.571 133.584 162.057 134.314 163.493 135.019C164.941 135.73 166.31 136.4 168.339 136.186C169.875 136.024 170.634 135.473 171.596 134.776C172.633 134.025 173.808 133.173 176.05 132.623C178.499 132.022 179.99 132.33 181.718 132.687C182.95 132.941 184.346 133.23 186.412 133.211C189.327 133.186 190.908 132.585 192.909 131.825C194.4 131.258 196.091 130.616 198.619 130.102C203.016 129.209 207.73 129.19 212.628 130.05C213.151 130.141 213.501 130.64 213.409 131.163C213.317 131.686 212.817 132.034 212.296 131.944C207.635 131.127 203.163 131.142 199.002 131.987C196.628 132.47 195.015 133.082 193.592 133.623C191.497 134.419 189.688 135.106 186.429 135.135C184.161 135.156 182.655 134.844 181.329 134.571C179.707 134.236 178.535 133.995 176.508 134.491C174.632 134.951 173.662 135.654 172.725 136.334C171.674 137.095 170.588 137.883 168.542 138.099C165.957 138.371 164.198 137.508 162.645 136.745C161.343 136.106 160.214 135.555 158.733 135.706C156.139 135.972 153.635 138.298 151.291 142.623C151.117 142.944 150.786 143.126 150.445 143.126Z" fill="url(#paint5_linear_223_3604)"/>
<path d="M212.769 149.532L188.546 149.795V140.181L212.769 140.009V149.532Z" fill="#332598"/>
<path d="M165.109 128.607L152.535 128.639C152.406 128.639 152.302 128.543 152.302 128.424V126.061C152.302 125.942 152.406 125.846 152.535 125.845L165.109 125.828C165.236 125.828 165.339 125.923 165.339 126.041V128.392C165.339 128.511 165.236 128.607 165.109 128.607Z" fill="#332598"/>
<path d="M20.8853 203.216V240.825C20.8853 244.767 24.5411 247.838 28.996 247.65L321.751 235.273C325.28 235.124 328.159 232.143 328.159 228.649V195.742L20.8853 203.216Z" fill="url(#paint6_linear_223_3604)"/>
<path d="M228.892 83.7421C228.892 120.567 200.097 149.535 163.294 148.405C124.993 147.229 92.7808 114.15 92.7808 74.5659C92.7808 34.9818 124.993 6.24657 163.294 10.2346C200.097 14.0667 228.892 46.9173 228.892 83.7421Z" fill="url(#paint7_linear_223_3604)"/>
<path d="M238.837 80.5669C238.837 117.392 210.042 146.36 173.239 145.23C134.938 144.053 102.726 110.975 102.726 71.3906C102.726 31.8062 134.938 3.07111 173.239 7.05929C210.042 10.8915 238.837 43.7422 238.837 80.5669Z" fill="url(#paint8_linear_223_3604)"/>
<path d="M235.947 80.3721C235.947 115.575 208.396 143.221 173.238 142.083C136.716 140.9 106.052 109.332 106.052 71.615C106.052 33.8983 136.716 6.46457 173.238 10.2064C208.396 13.8084 235.947 45.169 235.947 80.3721Z" fill="url(#paint9_linear_223_3604)"/>
<path d="M233.879 80.2327C233.879 114.274 207.219 140.976 173.239 139.835C137.985 138.651 108.421 108.161 108.421 71.7747C108.421 35.3882 137.985 8.88458 173.239 12.4543C207.219 15.8952 233.879 46.191 233.879 80.2327Z" fill="url(#paint10_linear_223_3604)"/>
<path d="M198.059 79.4594C196.187 77.2251 193.28 75.6014 189.317 74.5876C191.138 73.8942 192.691 73.0729 193.978 72.1241C195.261 71.1784 196.309 70.1412 197.124 69.0106C197.937 67.8831 198.532 66.6694 198.91 65.3683C199.288 64.069 199.477 62.7176 199.477 61.3134C199.477 58.7346 199.065 56.3898 198.241 54.2754C197.415 52.1572 196.091 50.3348 194.265 48.8076C192.43 47.2735 190.049 46.0466 187.112 45.1263C186.134 44.8202 185.078 44.5594 183.956 44.3361V34.0726L176.115 33.6787V43.4824L169.486 43.2281V33.3457L161.364 32.9376V42.9164L152.634 42.5815L149.396 42.4572V47.9249L152.634 48.0284V103.415L149.396 103.523V108.991L152.634 108.862L161.364 108.516V117.38L169.486 116.972V108.193L176.115 107.93V116.639L183.956 116.245V107.167C185.398 106.869 186.759 106.482 188.029 105.997C190.849 104.92 193.205 103.491 195.105 101.71C196.995 99.9376 198.424 97.8923 199.396 95.5717C200.366 93.2574 200.85 90.772 200.85 88.1116C200.85 84.5652 199.922 81.683 198.059 79.4594ZM185.566 62.8224C185.566 64.3679 185.336 65.6476 184.875 66.6631C184.413 67.6804 183.74 68.4775 182.856 69.055C181.97 69.6344 180.892 70.0375 179.619 70.2642C178.343 70.4923 176.905 70.6016 175.306 70.5926L167.68 70.5504V54.4641L176.249 54.6767C177.874 54.717 179.272 54.8838 180.447 55.1768C181.618 55.4689 182.582 55.9309 183.341 56.5626C184.098 57.193 184.658 58.0152 185.021 59.0292C185.384 60.0423 185.566 61.3071 185.566 62.8224ZM186.778 91.0464C186.528 92.0415 186.068 92.9393 185.398 93.7411C184.728 94.5443 183.796 95.2094 182.603 95.7358C181.406 96.2644 179.859 96.5532 177.959 96.6027L167.68 96.8703V80.6496L177.874 80.5824C179.689 80.5705 181.188 80.7364 182.371 81.0797C183.551 81.4218 184.497 81.9112 185.21 82.5464C185.922 83.1812 186.423 83.9626 186.716 84.8907C187.008 85.8189 187.154 86.8643 187.154 88.0277C187.154 89.0466 187.029 90.0525 186.778 91.0464Z" fill="url(#paint11_linear_223_3604)"/>
<path opacity="0.3" d="M162.265 88.569C164.314 68.3336 182.911 59.7673 180.484 41.1538C178.988 29.6816 170.293 20.0135 160.593 12.4646C131.172 15.5501 108.421 39.9117 108.421 71.7749C108.421 108.162 137.985 138.651 173.239 139.835C176.661 139.95 180.004 139.772 183.255 139.346C169.254 125.414 160.505 105.954 162.265 88.569Z" fill="url(#paint12_linear_223_3604)"/>
<path d="M145.445 164.945L184.443 86.8129L184.835 86.8255L146.873 165.97L145.445 164.945Z" fill="url(#paint13_linear_223_3604)"/>
<path d="M147.558 160.186L148.791 156.471L148.747 153.004C148.739 152.405 148.89 151.815 149.183 151.292L149.665 150.435C149.941 149.944 150.368 149.554 150.883 149.323L153.249 148.265C153.249 148.265 153.182 149.221 152.563 149.639C151.945 150.057 151.25 152.269 151.25 152.269L151.89 154.212L153.697 151.052L155.087 146.484L155.904 148.309C156.183 148.933 156.228 149.637 156.031 150.292L154.912 154.016C154.636 154.936 154.044 155.728 153.241 156.255L152.71 156.603C151.605 157.327 150.847 158.473 150.611 159.773L150.048 162.891L147.558 160.186Z" fill="url(#paint14_linear_223_3604)"/>
<path d="M147.599 157.296C134.716 162.425 126.451 160.418 122.598 158.972C117.76 157.155 113.122 153.822 113.122 153.822C106.572 149.114 104.008 144.43 97.551 143.415C97.0636 143.338 95.6228 143.136 94.0397 143.276C84.7268 144.1 74.3598 156.424 75.6931 164.621C78.0044 178.831 117.565 193.465 139.289 177.648C146.283 172.555 149.784 165.504 151.57 160.715C150.246 159.575 148.922 158.435 147.599 157.296Z" fill="url(#paint15_linear_223_3604)"/>
<path d="M63.4999 304.891C62.9699 305.379 62.9363 306.517 62.9145 307.261C62.9044 307.593 62.8997 307.76 62.9437 307.874C63.2651 308.709 64.922 308.698 67.528 308.805C71.6462 308.973 72.8835 309.221 73.1668 308.593C73.4322 308.004 72.6488 307.113 72.5608 307.015C72.0873 306.488 71.5352 306.32 70.4707 306.04C68.5011 305.522 67.1753 305.254 66.7739 305.172C64.2671 304.664 63.8478 304.572 63.4999 304.891Z" fill="url(#paint16_linear_223_3604)"/>
<path d="M66.3882 300.785L66.5488 305.472C66.4206 305.692 64.9976 306.293 63.927 305.655L63.1191 301.012L66.3882 300.785Z" fill="url(#paint17_linear_223_3604)"/>
<path d="M98.1889 304.243C97.4809 304.946 97.2559 306.298 97.8015 306.999C98.3377 307.688 99.2236 307.24 101.657 307.442C104.263 307.66 104.912 308.313 106.712 307.918C107.44 307.758 108.731 307.345 108.735 306.832C108.737 306.471 108.102 306.251 105.988 305.415C102.988 304.229 103.004 304.173 102.361 304.031C100.746 303.674 99.1241 303.316 98.1889 304.243Z" fill="url(#paint18_linear_223_3604)"/>
<path d="M100.089 300.075L101.165 304.5C101.054 304.729 99.6812 305.437 98.5652 304.882L96.8462 300.551L100.089 300.075Z" fill="url(#paint19_linear_223_3604)"/>
<path d="M93.5482 204.058C92.9542 218.706 93.0741 235.218 94.5161 253.228C95.9411 271.028 98.4081 287.174 101.279 301.41C99.5848 301.77 97.8902 302.131 96.1955 302.491C92.1681 298.312 87.1533 291.805 85.0429 282.876C83.7331 277.333 84.4165 274.558 83.7592 267.792C82.7127 257.019 79.7358 251.245 76.8102 242.447C74.1812 234.541 71.1918 222.984 70.0747 207.69C77.8992 206.479 85.7238 205.268 93.5482 204.058Z" fill="url(#paint20_linear_223_3604)"/>
<path opacity="0.3" d="M91.2078 272.516C89.3418 265.126 85.7469 263.172 85.6189 256.197C85.5283 251.262 87.3014 250.859 87.1838 246.136C87.0053 238.973 82.809 235.217 80.7006 230.711C78.4741 225.952 77.6209 218.308 83.6216 205.594C79.1061 206.292 74.5904 206.991 70.0747 207.69C71.1918 222.984 74.1812 234.541 76.8102 242.447C79.7358 251.245 82.7127 257.019 83.7592 267.792C84.4166 274.558 83.7332 277.334 85.0429 282.876C87.1535 291.805 92.1681 298.312 96.1955 302.491C96.6266 302.399 97.0575 302.308 97.4886 302.216C93.1349 297.019 91.5986 292.378 91.2078 288.612C90.572 282.485 93.089 279.967 91.2078 272.516Z" fill="url(#paint21_linear_223_3604)"/>
<path d="M76.6107 203.142C74.5939 221.705 72.7402 240.624 71.0724 259.89C69.8207 274.347 68.7059 288.627 67.7189 302.725C66.0012 302.845 64.2833 302.965 62.5655 303.084C61.0805 299.926 59.1409 295.115 57.9618 289.019C56.5296 281.615 57.1832 277.298 56.7886 269.683C56.3455 261.141 55.1418 259.222 53.4068 248.384C49.8853 226.389 48.1244 215.392 53.7092 208.907C55.522 206.802 61.1321 201.579 76.6107 203.142Z" fill="url(#paint22_linear_223_3604)"/>
<path d="M32.1221 145.419C41.4014 142.273 55.5599 138.786 72.8757 139.5C82.907 139.913 91.5309 141.634 98.3639 143.549C99.2879 148.716 100.212 153.883 101.136 159.05C101.348 164.231 101.416 171.249 100.834 179.541C100.252 187.832 99.6824 187.957 98.349 199.661C96.1751 218.744 97.0843 223.73 93.2491 226.022C90.7546 227.513 89.8523 225.713 77.1233 224.452C68.5879 223.606 64.2319 223.212 59.9096 224.675C54.0235 226.667 52.054 230.011 49.6259 228.923C47.2975 227.879 47.001 223.859 46.7197 216.851C46.2859 206.039 46.3127 198.69 46.2726 196.06C46.089 183.991 43.0329 174.776 39.1187 162.973C36.6706 155.592 34.0921 149.618 32.1221 145.419Z" fill="url(#paint23_linear_223_3604)"/>
<path d="M71.7299 127.544C71.5933 130.578 71.1266 132.965 70.7185 134.596C70.2509 136.463 69.9607 136.937 69.6024 137.315C69.0631 137.883 68.267 138.342 63.8631 139.187C61.4668 139.647 61.1632 139.615 61.0984 139.847C60.7827 140.978 67.0236 145.225 73.7369 144.64C77.8456 144.283 81.6801 142.154 81.5177 140.921C81.3541 139.679 77.2456 140.121 76.1502 137.832C75.3883 136.239 76.4524 134.093 77.6686 132.333C76.6928 130.245 72.7053 129.632 71.7299 127.544Z" fill="url(#paint24_linear_223_3604)"/>
<path d="M79.2344 129.147C80.2651 127.92 80.4436 125.691 79.4101 124.221C78.5205 122.956 77.0281 122.703 76.1346 122.551C73.5454 122.111 70.2002 123.023 68.9288 125.36C68.1757 126.744 69.4835 129.775 69.6845 130.318C69.9123 130.932 70.3725 131.163 70.7842 131.64C71.3546 132.302 72.2468 133.353 73.701 135.109C73.8474 134.622 74.0624 134.02 74.3874 133.373C74.5126 133.124 75.0137 132.151 75.7356 131.362C77.1818 129.778 78.2574 130.31 79.2344 129.147Z" fill="url(#paint25_linear_223_3604)"/>
<path d="M71.5745 133.584C71.5745 133.584 73.137 136.485 76.5589 136.446C79.6225 136.41 80.4353 129.587 78.5629 128.03C77.938 127.511 76.6459 127.24 75.5706 127.48C74.9355 127.622 74.7097 127.871 73.6674 128.082C72.706 128.278 72.4438 128.158 72.1448 128.384C71.7708 128.666 71.469 129.391 71.96 131.424C71.4089 130.804 70.7219 130.54 70.2139 130.747C70.1329 130.781 69.9157 130.912 69.7862 131.122C69.3177 131.881 69.9787 132.918 71.5745 133.584Z" fill="url(#paint26_linear_223_3604)"/>
<path d="M72.0283 127.967C72.1696 128.085 71.6903 128.61 71.6153 129.386C71.4693 130.891 72.9002 132.785 74.4503 133.022C75.3668 133.161 75.6497 132.62 77.1812 132.54C78.1296 132.491 78.9081 132.653 79.3962 132.787C79.7865 134.468 79.248 136.094 78.1007 136.801C76.8656 137.561 75.3708 136.98 74.7458 136.737C74.3278 136.574 72.9879 136.056 72.3419 134.767C71.669 133.425 72.4396 132.678 71.6348 131.751C71.2289 131.284 70.6747 131.061 70.1713 130.171C70.0347 129.929 69.9459 129.717 69.8926 129.575C70.7248 128.782 71.8235 127.797 72.0283 127.967Z" fill="url(#paint27_linear_223_3604)"/>
<path d="M78.255 133.341C78.255 133.341 77.5772 133.651 76.4413 133.525C76.3862 133.519 76.3241 133.532 76.3155 133.561C76.2836 133.667 76.9887 134.191 77.6723 134.038C78.1577 133.929 78.554 133.496 78.4959 133.377C78.471 133.327 78.3625 133.328 78.255 133.341Z" fill="url(#paint28_linear_223_3604)"/>
<path d="M40.6844 196.069L43.7562 195.898C43.7562 195.898 47.1218 193.081 48.6537 193.257C50.1855 193.433 52.477 194.496 52.7564 194.719C53.0358 194.942 51.918 196.191 50.8002 196.069C49.6824 195.948 47.1881 196.551 46.7421 197.536C46.296 198.52 44.3602 199.115 44.0312 198.537L39.9019 199.357L40.6844 196.069Z" fill="url(#paint29_linear_223_3604)"/>
<path d="M41.6137 194.995C41.8288 197.515 41.2797 199.226 40.3638 200.4C36.3039 205.602 22.5057 203.475 14.3048 196.507C8.23434 191.349 5.02023 183.34 5.13891 176.163C5.37069 162.16 18.3483 148.438 37.6525 143.698C40.51 152.24 43.3676 160.782 46.225 169.324C34.3237 169.505 27.0931 178.477 28.1653 184.882C28.964 189.653 34.5287 193.945 41.6137 194.995Z" fill="url(#paint30_linear_223_3604)"/>
<path opacity="0.3" d="M88.3014 219.757C82.0406 217.085 82.077 211.557 76.2295 209.25C67.8854 205.957 58.6664 213.606 57.2271 211.485C55.7293 209.278 66.7398 202.511 65.2752 195.836C64.1111 190.532 56.4252 191.472 52.3089 184.211C48.4039 177.324 52.1898 170.956 48.732 168.562C47.4919 167.704 45.3045 167.365 41.1572 169.19C44.0491 178.222 46.1228 186.187 46.2729 196.06C46.3129 198.69 46.2862 206.039 46.7201 216.85C47.0013 223.859 47.2978 227.879 49.6263 228.923C52.0543 230.011 54.024 226.667 59.9099 224.675C64.2322 223.212 68.5883 223.606 77.1236 224.451C89.8528 225.713 90.755 227.513 93.2494 226.022C94.8739 225.051 95.6463 223.591 96.1632 220.787C93.6113 221.062 90.9042 220.867 88.3014 219.757Z" fill="url(#paint31_linear_223_3604)"/>
<path d="M71.2407 144.668C71.2407 144.668 72.0113 148.782 73.2158 148.862C74.4204 148.942 75.3034 149.103 75.3034 149.103L76.6508 144.072C76.167 144.221 75.6357 144.357 75.0596 144.465C73.5994 144.738 72.2945 144.75 71.2407 144.668Z" fill="url(#paint32_linear_223_3604)"/>
<path d="M72.6446 148.519C72.6446 148.519 69.9642 178.612 60.5693 183.43C60.8102 184.394 60.5693 192.223 60.5693 192.223C60.5693 192.223 69.327 189.586 69.8262 189.76C70.3255 189.934 80.4327 173.181 75.304 149.103L72.6446 148.519Z" fill="url(#paint33_linear_223_3604)"/>
<path d="M214.521 304.91C214.29 304.91 214.096 304.734 214.074 304.502L205.942 216.615C205.919 216.368 206.1 216.15 206.347 216.127C206.593 216.106 206.812 216.286 206.835 216.532L214.072 294.743V214.629C214.072 214.381 214.273 214.18 214.521 214.18C214.769 214.18 214.97 214.381 214.97 214.629V304.461C214.97 304.701 214.781 304.898 214.542 304.909C214.535 304.91 214.527 304.91 214.521 304.91Z" fill="#C000FF"/>
<path opacity="0.81" d="M305.205 224.242L215.988 214.467L44.5879 222.258L134.356 233.007L305.205 224.242Z" fill="#41387C"/>
<path d="M134.356 233.008L305.205 224.242V228.476L134.356 237.241L44.5879 226.492V222.258L134.356 233.008Z" fill="#C000FF"/>
<path d="M134.963 335.563C134.957 335.563 134.951 335.562 134.945 335.562C134.705 335.553 134.514 335.355 134.514 335.114V236.211C134.514 235.964 134.715 235.763 134.963 235.763C135.21 235.763 135.411 235.964 135.411 236.211V323.621L142.249 236.176C142.269 235.929 142.482 235.745 142.732 235.764C142.978 235.783 143.163 235.999 143.144 236.246L135.41 335.149C135.392 335.383 135.196 335.563 134.963 335.563Z" fill="#C000FF"/>
<path d="M45.5681 317.993C45.5622 317.993 45.5563 317.993 45.5503 317.993C45.3096 317.983 45.1191 317.785 45.1191 317.544V226.258C45.1191 226.01 45.3201 225.809 45.5678 225.809C45.8156 225.809 46.0165 226.01 46.0165 226.258V306.098L52.2881 226.223C52.3076 225.976 52.5276 225.791 52.7704 225.811C53.0176 225.83 53.202 226.046 53.1828 226.293L46.0153 317.579C45.9968 317.814 45.8012 317.993 45.5681 317.993Z" fill="#C000FF"/>
<path d="M304.359 317.993C304.127 317.993 303.932 317.815 303.913 317.582L296.302 226.295C296.281 226.049 296.465 225.832 296.712 225.811C296.959 225.791 297.175 225.974 297.196 226.221L303.911 306.763V228.476C303.911 228.228 304.112 228.027 304.36 228.027C304.608 228.027 304.808 228.228 304.808 228.476V317.544C304.808 317.785 304.619 317.983 304.378 317.993C304.372 317.993 304.366 317.993 304.359 317.993Z" fill="#C000FF"/>
<path d="M269.066 225.934L207.766 225.478V226.827C207.766 227.194 208.033 227.505 208.396 227.561L225.73 230.219C225.935 230.25 226.144 230.258 226.351 230.243L268.4 227.213C268.776 227.186 269.066 226.874 269.066 226.497V225.934Z" fill="#BFC8D6"/>
<path d="M246.821 223.703L208.4 226.172C207.713 226.216 207.154 225.747 207.154 225.123V200.146C207.154 199.523 207.713 199.018 208.4 199.018H246.821C247.387 199.018 247.845 199.474 247.845 200.038V222.617C247.846 223.18 247.387 223.667 246.821 223.703Z" fill="#BFC8D6"/>
<path d="M247.433 223.703L209.013 226.172C208.325 226.216 207.766 225.747 207.766 225.123V200.146C207.766 199.523 208.325 199.018 209.013 199.018H247.433C248 199.018 248.458 199.474 248.458 200.038V222.617C248.458 223.18 248 223.667 247.433 223.703Z" fill="#332598"/>
<path d="M246.237 222.111L210.452 224.256C209.893 224.29 209.438 223.904 209.438 223.395V201.528C209.438 201.019 209.893 200.605 210.452 200.603L246.237 200.468C246.704 200.466 247.082 200.84 247.082 201.304V221.221C247.082 221.685 246.704 222.083 246.237 222.111Z" fill="url(#paint34_linear_223_3604)"/>
<path d="M229.58 199.701C229.58 199.933 229.382 200.122 229.138 200.122C228.894 200.123 228.695 199.935 228.695 199.702C228.695 199.47 228.894 199.281 229.138 199.281C229.382 199.281 229.58 199.469 229.58 199.701Z" fill="#0D006A"/>
<path opacity="0.48" d="M238.332 216.865C235.355 215.415 233.014 217.252 230.755 215.439C229.386 214.34 230.058 213.52 228.373 211.878C226.506 210.058 225.291 210.67 223.415 209.033C221.043 206.962 222.23 205.351 220.186 203.865C217.708 202.062 215.035 203.731 212.675 202.001C211.658 201.255 211.099 200.171 210.808 199.018H208.499C208.095 199.018 207.766 199.315 207.766 199.681V225.589C207.766 225.955 208.095 226.231 208.499 226.205L247.857 223.676C248.05 223.664 248.221 223.562 248.331 223.414C245.45 223.318 243.68 222.444 242.548 221.54C240.335 219.772 240.719 218.028 238.332 216.865Z" fill="#0D006A"/>
<path d="M248.965 223.634L207.766 226.233L225.73 228.987C225.935 229.019 226.144 229.027 226.351 229.012L269.066 225.934L249.62 223.652C249.403 223.626 249.183 223.62 248.965 223.634Z" fill="#0D006A"/>
<path opacity="0.47" d="M213.778 226.255L248.077 224.059L258.692 225.295L224.689 227.643L213.778 226.255Z" fill="#332598"/>
<path d="M256.768 304.835C256.768 304.835 247.757 305.462 247.625 306.05C247.492 306.638 253.741 308.913 255.924 308.998C258.108 309.083 259.904 308.437 259.706 307.513C259.509 306.588 258.744 304.262 258.744 304.262L256.768 304.835Z" fill="url(#paint35_linear_223_3604)"/>
<path d="M256.343 300.832L256.183 305.084C256.183 305.084 257.554 305.858 258.642 305.414L259.852 300.929L256.343 300.832Z" fill="url(#paint36_linear_223_3604)"/>
<path d="M231.567 303.121C231.567 303.121 222.556 303.747 222.423 304.335C222.291 304.924 228.54 307.198 230.723 307.283C232.907 307.368 234.703 306.722 234.505 305.798C234.307 304.873 233.543 302.547 233.543 302.547L231.567 303.121Z" fill="url(#paint37_linear_223_3604)"/>
<path d="M231.141 299.117L230.981 303.369C230.981 303.369 232.352 304.143 233.44 303.699L234.65 299.214L231.141 299.117Z" fill="url(#paint38_linear_223_3604)"/>
<path d="M255.385 301.433C257.069 301.62 258.753 301.807 260.437 301.994C262.711 299.473 266.106 295.078 267.92 288.898C271.418 276.983 266.352 268.397 269.604 266.26C274.206 263.236 284.181 280.649 300.193 280.201C306.762 280.018 315.337 276.8 318.633 269.793C319.131 268.736 321.574 263.198 319.194 258.007C316.737 252.647 304.547 250.315 280.268 245.868C269.846 243.96 264.583 243.008 262.469 244.017C247.483 251.171 253.732 291.622 255.385 301.433Z" fill="url(#paint39_linear_223_3604)"/>
<path d="M229.676 301.505C231.418 301.808 233.16 302.111 234.901 302.414C237.017 299.298 240.218 294.416 243.799 288.221C251.262 275.308 251.125 272.685 254.574 271.023C261.874 267.505 267.39 277.009 285.444 279.629C291.349 280.486 304.46 282.39 309.765 275.326C311.915 272.462 313.15 267.636 311.448 263.54C308.397 256.197 298.347 257.079 265.238 250.631C252.327 248.116 250.566 247.668 247.439 248.78C229.972 254.991 229.632 293.022 229.676 301.505Z" fill="url(#paint40_linear_223_3604)"/>
<path d="M265.847 200.382C267.566 196.179 271.255 193.762 273.168 192.508C274.126 191.881 275.01 191.411 275.908 191.044C282.837 188.215 289.754 188.41 290.988 188.502C293.98 188.726 301.371 189.279 306.846 194.024C309.496 196.32 311.615 199.526 314.704 217.597C319.011 242.798 315.515 240.215 318.913 250.43C320.711 255.835 323.512 262.037 320.549 265.998C319.593 267.277 318.225 267.644 315.438 268.898C305.027 273.583 295.693 272.776 290.021 272.214C283.78 271.596 280.625 271.242 278.97 269.037C276.326 265.514 279.048 261.037 279.523 253.289C279.863 247.726 278.599 243.318 276.069 234.502C270.188 214.007 262.554 208.435 265.847 200.382Z" fill="url(#paint41_linear_223_3604)"/>
<path d="M236.513 225.478L229.861 224.198C229.383 224.107 228.892 224.102 228.412 224.184L222.658 225.174C222.658 225.174 226.4 226.679 229.58 226.207C232.761 225.735 236.235 227.524 236.235 227.524L236.513 225.478Z" fill="url(#paint42_linear_223_3604)"/>
<path d="M280.563 183.843C279.444 182.153 281.119 178.901 281.781 177.615C281.804 177.57 281.833 177.512 281.896 177.397C282.913 175.52 283.174 175.263 283.659 174.938L284.334 174.522C284.334 174.522 284.373 174.506 284.414 174.492C284.847 174.338 286.324 174.293 286.623 174.357C287.578 174.561 288.595 178.452 288.305 183.954C288.344 184.164 288.382 184.376 288.419 184.589C288.57 185.458 288.689 186.309 288.782 187.142C288.87 187.938 290 187.92 290.799 187.869C294.046 187.662 295.634 187.938 295.772 188.422C296.031 189.328 292.181 192.29 287.426 192.956C281.045 193.003 275.855 192.324 276.413 191.319C276.66 190.873 281.604 189.581 282.995 188.301C284.268 187.128 284.164 185.918 284.269 185.051C283.611 185.086 281.416 185.132 280.563 183.843Z" fill="url(#paint43_linear_223_3604)"/>
<path d="M282.354 172.959C281.83 174.116 283.102 176.439 283.572 176.777C283.625 176.814 283.922 177.049 284.19 177.451C284.226 177.506 284.258 177.57 284.287 177.652C284.66 178.727 282.952 179.991 283.282 180.471C283.521 180.821 284.682 180.354 284.82 180.655C284.95 180.939 283.985 181.526 284.133 181.865C284.244 182.122 284.838 181.887 285.213 182.28C285.502 182.584 285.536 183.014 285.542 183.229C285.588 184.756 282.126 190.271 281.404 192.759C280.639 195.398 282.008 197.91 286.979 204.851C294.051 214.725 297.586 219.662 299.552 221.073C309.16 227.97 320.457 227.125 325.089 226.405C330.655 225.541 342.153 223.754 345.856 214.899C350.112 204.721 341.732 190.792 333.134 188.427C329.202 187.345 327.109 188.988 322.002 187.211C316.363 185.248 317.046 181.778 311.825 179.729C304.861 176.995 300.368 181.882 295.623 178.324C293.042 176.387 293.467 174.262 290.292 172.711C287.158 171.182 283.042 171.442 282.354 172.959Z" fill="#26264F"/>
<path d="M283.895 180.071C284.313 179.497 285.047 180.036 285.051 180.779C285.055 181.522 284.336 182.294 283.637 182.147C282.939 182 283.333 180.843 283.895 180.071Z" fill="url(#paint44_linear_223_3604)"/>
<path opacity="0.3" d="M295.409 264.892C293.573 261.236 298.072 256.376 295.133 250.802C292.636 246.068 288.101 247.129 286.015 242.791C283.497 237.55 288.974 233.634 288.778 225.661C288.544 216.131 280.343 206.591 275.517 207.427C272.394 207.969 271.993 212.627 269.796 217.727C271.74 221.99 274.012 227.33 276.069 234.502C278.599 243.318 279.864 247.726 279.523 253.289C279.048 261.037 276.327 265.514 278.97 269.037C280.625 271.242 283.78 271.596 290.021 272.214C295.694 272.776 305.028 273.583 315.439 268.899C316.757 268.306 317.743 267.862 318.548 267.424C302.283 269.866 296.865 267.793 295.409 264.892Z" fill="url(#paint45_linear_223_3604)"/>
<path d="M234.819 227.419C235.007 226.569 235.196 225.721 235.385 224.872C248.166 227.163 253.755 224.592 256.454 221.586C258.932 218.828 257.876 217.403 261.842 206.875C265.619 196.847 269.905 194.269 272.064 193.337C273.27 192.816 274.102 192.471 275.103 192.715C279.707 193.841 281.23 205.84 279.938 214.818C279.21 219.876 277.783 229.794 269.646 234.502C269.497 234.589 269.26 234.726 268.948 234.893C267.923 235.441 263.852 237.399 255.833 235.953C246.378 234.247 237.154 228.828 234.819 227.419Z" fill="url(#paint46_linear_223_3604)"/>
<path d="M159.284 315.069C159.432 314.254 162.063 313.516 163.366 314.608C164.013 315.15 164.459 316.248 164.084 316.744C163.948 316.925 164.506 317.242 163.972 317.249C162.199 317.269 159.137 315.878 159.284 315.069Z" fill="url(#paint47_linear_223_3604)"/>
<path d="M162.162 315.073L164.892 315.209C163.946 313.49 165.083 308.813 165.083 308.813L162.135 308.9C162.135 308.9 162.208 310.258 162.388 312.274C162.449 312.965 162.336 314.005 162.162 315.073Z" fill="url(#paint48_linear_223_3604)"/>
<path d="M161.802 315.032C161.802 315.032 165.06 314.281 165.413 314.927C165.765 315.574 166.039 317.304 163.972 317.249C161.904 317.193 161.618 315.58 161.802 315.032Z" fill="url(#paint49_linear_223_3604)"/>
<path d="M142.663 318.388C142.924 317.602 145.633 317.24 146.77 318.503C147.335 319.13 147.622 320.28 147.182 320.719C147.022 320.879 147.53 321.271 147 321.202C145.242 320.975 142.404 319.169 142.663 318.388Z" fill="url(#paint50_linear_223_3604)"/>
<path d="M145.865 319.145L148.547 319.671C147.858 317.834 149.654 313.369 149.654 313.369L146.724 313.031C146.724 313.031 146.601 314.386 146.49 316.407C146.451 317.099 146.19 318.113 145.865 319.145Z" fill="url(#paint51_linear_223_3604)"/>
<path d="M145.162 318.704C145.162 318.704 148.493 318.416 148.752 319.106C149.01 319.795 149.039 321.547 147 321.202C144.961 320.858 144.903 319.221 145.162 318.704Z" fill="url(#paint52_linear_223_3604)"/>
<path d="M159.413 237.074L147.902 210.111C147.327 208.764 148.1 207.223 149.523 206.877L170.607 201.757C171.747 201.48 172.917 202.078 173.361 203.164L183.948 229.078C184.475 230.369 183.78 231.833 182.447 232.241L162.286 238.41C161.128 238.764 159.888 238.188 159.413 237.074Z" fill="#26264F"/>
<path d="M159.934 235.777L149.182 210.592C148.645 209.334 149.366 207.894 150.696 207.571L170.39 202.788C171.455 202.53 172.548 203.089 172.962 204.103L182.851 228.309C183.344 229.514 182.695 230.882 181.45 231.263L162.618 237.025C161.536 237.356 160.378 236.818 159.934 235.777Z" fill="url(#paint53_linear_223_3604)"/>
<path d="M153.296 228.374L152.95 225.196L151.12 221.707C150.87 221.231 150.74 220.703 150.74 220.166V216.701L152.95 221.812C152.95 221.812 154.401 220.5 154.953 220.223C155.506 219.947 155.437 221.052 155.023 221.467C154.608 221.881 155.23 225.265 154.815 225.611L154.953 227.683L153.296 228.374Z" fill="url(#paint54_linear_223_3604)"/>
<path d="M170.84 208.136C172.558 203.933 176.248 201.516 178.161 200.262C182.688 197.296 185.585 197.838 195.981 196.256C209.834 194.149 211.493 192.151 216.149 193.77C222.265 195.896 225.46 201.448 226.924 203.992C234.304 216.818 225.675 223.337 227.891 248.887C228.795 259.321 231.115 268.389 225.542 273.752C224.369 274.881 223.056 275.471 220.431 276.653C210.02 281.337 200.686 280.529 195.014 279.968C188.772 279.35 185.618 278.996 183.963 276.791C181.319 273.268 184.04 268.791 184.515 261.043C184.856 255.48 183.591 251.072 181.062 242.256C175.181 221.761 167.546 216.189 170.84 208.136Z" fill="url(#paint55_linear_223_3604)"/>
<path d="M194.029 188.696C193.398 186.449 194.501 184.368 194.744 183.92C195.761 182.043 196.022 181.786 196.507 181.461L197.182 181.045C197.182 181.045 197.221 181.029 197.263 181.014C197.696 180.86 199.172 180.815 199.471 180.879C200.426 181.083 201.443 184.975 201.153 190.477C201.193 190.687 201.231 190.898 201.268 191.111C201.418 191.98 201.538 192.832 201.63 193.665C201.718 194.461 202.848 194.443 203.648 194.392C206.894 194.185 208.482 194.461 208.621 194.944C208.879 195.85 205.029 198.812 200.274 199.478C193.894 199.526 188.703 198.846 189.261 197.842C189.509 197.396 194.453 196.104 195.843 194.823C197.116 193.651 197.012 192.441 197.117 191.574C196.731 191.374 194.493 190.352 194.029 188.696Z" fill="url(#paint56_linear_223_3604)"/>
<path d="M195.202 179.482C195.208 181.186 196.011 183.007 196.42 183.299C196.473 183.337 196.77 183.572 197.038 183.974C197.074 184.028 197.106 184.092 197.135 184.175C197.508 185.249 195.8 186.513 196.13 186.994C196.369 187.343 197.53 186.877 197.668 187.178C197.798 187.462 196.833 188.049 196.981 188.388C197.092 188.645 197.686 188.41 198.06 188.803C198.247 188.999 198.192 189.154 198.39 189.752C198.502 190.09 198.658 190.46 198.779 190.666C199.369 191.667 201.037 192.032 201.358 191.632C201.447 191.52 201.371 191.426 201.462 191.052C201.462 191.052 201.547 190.704 201.788 190.303C202.133 189.73 202.966 189.32 203.807 188.714C205.364 187.593 205.787 186.638 205.914 186.315C205.959 186.2 205.987 186.113 206.007 186.051C206.412 184.794 206.414 182.949 205.849 181.814C204.903 179.913 202.768 180.815 201.021 178.932C199.005 176.758 200.206 173.787 199.112 173.459C197.906 173.097 195.192 176.33 195.202 179.482Z" fill="#26264F"/>
<path d="M196.742 186.594C197.16 186.02 197.894 186.559 197.899 187.302C197.903 188.045 197.183 188.817 196.485 188.67C195.787 188.524 196.18 187.366 196.742 186.594Z" fill="url(#paint57_linear_223_3604)"/>
<path d="M197.081 185.351L196.112 186.612C196.112 186.612 195.067 188.157 194.457 187.311C193.959 186.619 193.83 186.634 193.799 186.663C193.793 186.669 193.792 186.677 193.79 186.677C193.782 186.675 193.863 186.333 193.937 186.032C193.679 186.403 193.323 187.003 193.108 187.812C192.899 188.597 192.674 189.438 193.118 190.245C193.143 190.292 193.631 191.152 194.542 191.359C194.542 191.359 194.901 191.441 196.415 191.175C196.415 191.175 194.76 189.974 194.735 189.689C194.666 188.913 195.742 188.494 196.541 186.904C196.849 186.29 197.001 185.734 197.081 185.351Z" fill="#26264F"/>
<path opacity="0.3" d="M200.401 272.647C198.565 268.99 203.064 264.13 200.125 258.557C197.628 253.823 193.093 254.883 191.008 250.545C188.489 245.304 193.967 241.388 193.77 233.415C193.536 223.885 185.335 214.345 180.509 215.181C177.387 215.723 176.986 220.381 174.789 225.481C176.733 229.744 179.004 235.084 181.062 242.256C183.591 251.072 184.856 255.48 184.515 261.043C184.04 268.791 181.319 273.268 183.963 276.791C185.618 278.996 188.772 279.35 195.014 279.968C200.686 280.529 210.02 281.337 220.431 276.653C221.749 276.06 222.735 275.615 223.54 275.177C207.275 277.62 201.857 275.547 200.401 272.647Z" fill="url(#paint58_linear_223_3604)"/>
<path d="M152.674 227.752C153.687 227.314 154.7 226.877 155.713 226.44C157.426 228.191 159.609 229.893 161.446 229.34C164.184 228.516 163.5 223.479 166.834 214.629C170.611 204.601 174.897 202.023 177.056 201.091C178.262 200.571 179.094 200.225 180.095 200.47C184.699 201.595 186.222 213.594 184.93 222.572C184.202 227.63 182.775 237.548 174.638 242.256C173.483 242.925 167.121 246.607 160.825 243.707C155.446 241.23 152.122 234.874 152.674 227.752Z" fill="url(#paint59_linear_223_3604)"/>
<path d="M160.378 309.187C162.062 309.374 163.746 309.561 165.429 309.748C167.703 307.227 171.098 302.832 172.913 296.652C176.389 284.814 170.947 277.043 174.597 274.015C178.804 270.523 187.116 279.957 205.466 282.621C211.371 283.478 224.482 285.382 229.787 278.318C231.937 275.454 233.172 270.627 231.47 266.531C228.419 259.189 218.369 260.07 185.26 253.622C172.506 251.138 170.491 250.325 167.461 251.772C152.476 258.925 158.725 299.376 160.378 309.187Z" fill="url(#paint60_linear_223_3604)"/>
<path d="M145.348 313.949C147.032 314.136 148.716 314.324 150.4 314.511C152.674 311.99 156.069 307.595 157.883 301.415C161.359 289.576 155.917 281.806 159.567 278.777C163.775 275.285 172.087 284.72 190.436 287.383C196.342 288.241 209.452 290.144 214.757 283.08C216.907 280.216 218.143 275.39 216.441 271.294C213.389 263.951 203.339 264.833 170.23 258.385C157.476 255.901 155.461 255.087 152.431 256.534C137.446 263.688 143.695 304.138 145.348 313.949Z" fill="url(#paint61_linear_223_3604)"/>
<path d="M202.986 345.658C218.408 345.658 230.91 340.556 230.91 334.262C230.91 327.968 218.408 322.865 202.986 322.865C187.564 322.865 175.062 327.968 175.062 334.262C175.062 340.556 187.564 345.658 202.986 345.658Z" fill="#C000FF"/>
<path d="M230.91 332.925C230.91 338.867 218.408 343.684 202.986 343.684C187.564 343.684 175.062 338.867 175.062 332.925C175.062 326.984 187.564 317.262 202.986 317.262C218.408 317.262 230.91 326.984 230.91 332.925Z" fill="url(#paint62_linear_223_3604)"/>
<path opacity="0.3" d="M230.91 332.925C230.91 326.984 218.408 317.262 202.986 317.262C195.865 317.262 189.37 319.337 184.438 322.153C184.093 322.876 183.932 323.596 183.997 324.278C184.317 327.621 189.77 329.676 192.899 330.354C200.78 332.061 204.629 327.348 211.127 327.528C215.144 327.639 220.711 329.657 227.314 338.204C229.6 336.645 230.91 334.845 230.91 332.925Z" fill="url(#paint63_linear_223_3604)"/>
<path d="M204.515 322.659C203.399 322.937 202.358 322.926 201.379 322.677C200.491 322.451 199.881 321.629 199.881 320.713L199.881 289.226H206.09V320.676C206.09 321.62 205.432 322.431 204.515 322.659Z" fill="#0D006A"/>
<path opacity="0.65" d="M204.515 322.659C203.399 322.937 202.358 322.926 201.379 322.677C200.491 322.451 199.881 321.629 199.881 320.713L199.881 289.226H206.09V320.676C206.09 321.62 205.432 322.431 204.515 322.659Z" fill="url(#paint64_linear_223_3604)"/>
<path d="M170.176 275.974L179.662 269.978C180.057 267.737 184.528 244.304 202.681 236.945C210.063 233.952 218.007 234.307 222.367 234.502C231.07 234.891 237.278 235.168 240.264 239.32C244.098 244.651 237.667 249.485 238.999 264.733C239.542 270.951 240.923 273.713 239.203 277.832C237.142 282.767 232.365 285.502 228.65 287.042C224.209 289.621 216.477 293.296 206.264 294.19C189.062 295.698 176.22 288.319 171.804 285.495C169.84 284.876 168.364 283.243 167.947 281.227C167.523 279.183 168.412 277.09 170.176 275.974Z" fill="url(#paint65_linear_223_3604)"/>
<path opacity="0.26" d="M174.538 280.244C174.889 278.136 180.765 279.883 186.325 275.754C194.634 269.581 190.321 259.125 197.55 249.094C204.183 239.889 217.538 235.204 221.684 238.711C227.202 243.38 213.696 260.84 221.684 272.106C225.564 277.579 231.475 277.315 231.506 280.525C231.554 285.597 216.841 291.445 202.882 291.189C187.874 290.913 173.982 283.591 174.538 280.244Z" fill="#0D006A"/>
<path d="M298.58 326.108C312.36 326.108 323.531 321.549 323.531 315.925C323.531 310.301 312.36 305.741 298.58 305.741C284.8 305.741 273.629 310.301 273.629 315.925C273.629 321.549 284.8 326.108 298.58 326.108Z" fill="#C000FF"/>
<path d="M323.531 314.73C323.531 320.039 312.36 324.343 298.58 324.343C284.8 324.343 273.629 320.039 273.629 314.73C273.629 309.422 284.8 300.735 298.58 300.735C312.36 300.735 323.531 309.422 323.531 314.73Z" fill="url(#paint66_linear_223_3604)"/>
<path opacity="0.3" d="M323.531 314.73C323.531 309.422 312.36 300.735 298.58 300.735C292.217 300.735 286.414 302.589 282.007 305.105C281.698 305.751 281.554 306.394 281.613 307.004C281.899 309.991 286.771 311.827 289.567 312.433C296.609 313.958 300.048 309.747 305.854 309.908C309.443 310.007 314.418 311.81 320.318 319.447C322.36 318.054 323.531 316.445 323.531 314.73Z" fill="url(#paint67_linear_223_3604)"/>
<path d="M299.947 305.557C298.95 305.805 298.019 305.795 297.144 305.573C296.351 305.372 295.806 304.637 295.806 303.818L295.806 275.684H301.354V303.785C301.354 304.629 300.766 305.353 299.947 305.557Z" fill="#0D006A"/>
<path opacity="0.65" d="M299.947 305.557C298.95 305.805 298.019 305.795 297.144 305.573C296.351 305.372 295.806 304.637 295.806 303.818L295.806 275.684H301.354V303.785C301.354 304.629 300.766 305.353 299.947 305.557Z" fill="url(#paint68_linear_223_3604)"/>
<path d="M269.264 263.843L277.74 258.485C278.093 256.483 282.088 235.545 298.308 228.969C304.904 226.295 312.002 226.613 315.898 226.787C323.674 227.134 329.221 227.382 331.889 231.091C335.315 235.855 329.569 240.174 330.759 253.799C331.244 259.355 332.478 261.823 330.941 265.503C329.1 269.913 324.831 272.357 321.511 273.732C317.543 276.037 310.635 279.32 301.51 280.12C286.139 281.467 274.664 274.873 270.718 272.351C268.963 271.797 267.645 270.338 267.272 268.537C266.894 266.71 267.687 264.84 269.264 263.843Z" fill="url(#paint69_linear_223_3604)"/>
<path opacity="0.26" d="M273.161 267.658C273.475 265.774 278.726 267.336 283.693 263.646C291.118 258.131 287.264 248.788 293.723 239.825C299.65 231.6 311.583 227.414 315.287 230.548C320.218 234.719 308.15 250.32 315.287 260.387C318.754 265.277 324.036 265.041 324.063 267.909C324.107 272.441 310.96 277.666 298.487 277.438C285.077 277.192 272.664 270.649 273.161 267.658Z" fill="#0D006A"/>
<defs>
<linearGradient id="paint0_linear_223_3604" x1="240.177" y1="79.417" x2="295.218" y2="79.417" gradientUnits="userSpaceOnUse">
<stop stop-color="#FF9085"/>
<stop offset="1" stop-color="#FB6FBB"/>
</linearGradient>
<linearGradient id="paint1_linear_223_3604" x1="152.31" y1="77.6889" x2="178.526" y2="77.6889" gradientUnits="userSpaceOnUse">
<stop stop-color="#FF9085"/>
<stop offset="1" stop-color="#FB6FBB"/>
</linearGradient>
<linearGradient id="paint2_linear_223_3604" x1="89.5009" y1="73.8738" x2="117.458" y2="98.4932" gradientUnits="userSpaceOnUse">
<stop stop-color="#FF9085"/>
<stop offset="1" stop-color="#FB6FBB"/>
</linearGradient>
<linearGradient id="paint3_linear_223_3604" x1="96.6426" y1="67.2301" x2="124.194" y2="91.4923" gradientUnits="userSpaceOnUse">
<stop stop-color="#FF9085"/>
<stop offset="1" stop-color="#FB6FBB"/>
</linearGradient>
<linearGradient id="paint4_linear_223_3604" x1="101.237" y1="63.0777" x2="128.711" y2="87.2723" gradientUnits="userSpaceOnUse">
<stop stop-color="#FF9085"/>
<stop offset="1" stop-color="#FB6FBB"/>
</linearGradient>
<linearGradient id="paint5_linear_223_3604" x1="149.484" y1="136.698" x2="213.424" y2="136.698" gradientUnits="userSpaceOnUse">
<stop stop-color="#FF9085"/>
<stop offset="1" stop-color="#FB6FBB"/>
</linearGradient>
<linearGradient id="paint6_linear_223_3604" x1="133.751" y1="297.46" x2="200.723" y2="164.791" gradientUnits="userSpaceOnUse">
<stop offset="0.0108" stop-color="#D8DEE8"/>
<stop offset="1" stop-color="#97A6B7"/>
</linearGradient>
<linearGradient id="paint7_linear_223_3604" x1="137.51" y1="86.6223" x2="58.1312" y2="112.097" gradientUnits="userSpaceOnUse">
<stop stop-color="#FCB148"/>
<stop offset="0.0521" stop-color="#FDBA46"/>
<stop offset="0.1424" stop-color="#FFC244"/>
<stop offset="0.3183" stop-color="#FFC444"/>
<stop offset="0.4849" stop-color="#FDB946"/>
<stop offset="0.7754" stop-color="#F99C4D"/>
<stop offset="0.8658" stop-color="#F8924F"/>
<stop offset="1" stop-color="#F8924F"/>
</linearGradient>
<linearGradient id="paint8_linear_223_3604" x1="201.723" y1="7.60884" x2="130.858" y2="163.949" gradientUnits="userSpaceOnUse">
<stop stop-color="#FFDB44"/>
<stop offset="1" stop-color="#FEEF06"/>
</linearGradient>
<linearGradient id="paint9_linear_223_3604" x1="188.687" y1="172.687" x2="175.013" y2="97.9894" gradientUnits="userSpaceOnUse">
<stop stop-color="#FCB148"/>
<stop offset="0.0521" stop-color="#FDBA46"/>
<stop offset="0.1424" stop-color="#FFC244"/>
<stop offset="0.3183" stop-color="#FFC444"/>
<stop offset="0.4849" stop-color="#FDB946"/>
<stop offset="0.7754" stop-color="#F99C4D"/>
<stop offset="0.8658" stop-color="#F8924F"/>
<stop offset="1" stop-color="#F8924F"/>
</linearGradient>
<linearGradient id="paint10_linear_223_3604" x1="159.696" y1="51.7807" x2="216.047" y2="171.401" gradientUnits="userSpaceOnUse">
<stop stop-color="#FCB148"/>
<stop offset="0.0521" stop-color="#FDBA46"/>
<stop offset="0.1424" stop-color="#FFC244"/>
<stop offset="0.3183" stop-color="#FFC444"/>
<stop offset="0.4849" stop-color="#FDB946"/>
<stop offset="0.7754" stop-color="#F99C4D"/>
<stop offset="0.8658" stop-color="#F8924F"/>
<stop offset="1" stop-color="#F8924F"/>
</linearGradient>
<linearGradient id="paint11_linear_223_3604" x1="149.395" y1="75.1591" x2="200.85" y2="75.1591" gradientUnits="userSpaceOnUse">
<stop stop-color="#FFDB44"/>
<stop offset="1" stop-color="#FEEF06"/>
</linearGradient>
<linearGradient id="paint12_linear_223_3604" x1="143.118" y1="59.522" x2="199.355" y2="178.901" gradientUnits="userSpaceOnUse">
<stop stop-color="#FCB148"/>
<stop offset="0.0521" stop-color="#FDBA46"/>
<stop offset="0.1424" stop-color="#FFC244"/>
<stop offset="0.3183" stop-color="#FFC444"/>
<stop offset="0.4849" stop-color="#FDB946"/>
<stop offset="0.7754" stop-color="#F99C4D"/>
<stop offset="0.8658" stop-color="#F8924F"/>
<stop offset="1" stop-color="#F8924F"/>
</linearGradient>
<linearGradient id="paint13_linear_223_3604" x1="178.262" y1="79.2053" x2="150.057" y2="179.54" gradientUnits="userSpaceOnUse">
<stop stop-color="#311944"/>
<stop offset="1" stop-color="#A03976"/>
</linearGradient>
<linearGradient id="paint14_linear_223_3604" x1="155.555" y1="144.589" x2="137.459" y2="186.27" gradientUnits="userSpaceOnUse">
<stop stop-color="#FFC444"/>
<stop offset="0.9964" stop-color="#F36F56"/>
</linearGradient>
<linearGradient id="paint15_linear_223_3604" x1="105.671" y1="163.863" x2="181.664" y2="163.863" gradientUnits="userSpaceOnUse">
<stop offset="0.0036" stop-color="#E38DDD"/>
<stop offset="1" stop-color="#9571F6"/>
</linearGradient>
<linearGradient id="paint16_linear_223_3604" x1="73.0518" y1="306.403" x2="62.8765" y2="307.319" gradientUnits="userSpaceOnUse">
<stop stop-color="#444B8C"/>
<stop offset="0.9964" stop-color="#26264F"/>
</linearGradient>
<linearGradient id="paint17_linear_223_3604" x1="67.2156" y1="306.818" x2="62.1003" y2="297.874" gradientUnits="userSpaceOnUse">
<stop stop-color="#FFC444"/>
<stop offset="0.9964" stop-color="#F36F56"/>
</linearGradient>
<linearGradient id="paint18_linear_223_3604" x1="108.268" y1="304.66" x2="97.6633" y2="306.975" gradientUnits="userSpaceOnUse">
<stop stop-color="#444B8C"/>
<stop offset="0.9964" stop-color="#26264F"/>
</linearGradient>
<linearGradient id="paint19_linear_223_3604" x1="101.704" y1="305.984" x2="95.7987" y2="297.276" gradientUnits="userSpaceOnUse">
<stop stop-color="#FFC444"/>
<stop offset="0.9964" stop-color="#F36F56"/>
</linearGradient>
<linearGradient id="paint20_linear_223_3604" x1="105.65" y1="286.827" x2="80.2192" y2="220.116" gradientUnits="userSpaceOnUse">
<stop stop-color="#311944"/>
<stop offset="1" stop-color="#893976"/>
</linearGradient>
<linearGradient id="paint21_linear_223_3604" x1="101.061" y1="288.576" x2="75.6301" y2="221.866" gradientUnits="userSpaceOnUse">
<stop stop-color="#311944"/>
<stop offset="1" stop-color="#893976"/>
</linearGradient>
<linearGradient id="paint22_linear_223_3604" x1="89.3551" y1="290.443" x2="55.9452" y2="227.348" gradientUnits="userSpaceOnUse">
<stop stop-color="#311944"/>
<stop offset="1" stop-color="#893976"/>
</linearGradient>
<linearGradient id="paint23_linear_223_3604" x1="66.0795" y1="143.207" x2="77.125" y2="324.735" gradientUnits="userSpaceOnUse">
<stop offset="0.0036" stop-color="#E38DDD"/>
<stop offset="1" stop-color="#9571F6"/>
</linearGradient>
<linearGradient id="paint24_linear_223_3604" x1="65.6085" y1="150.924" x2="80.1981" y2="124.287" gradientUnits="userSpaceOnUse">
<stop stop-color="#FFC444"/>
<stop offset="0.9964" stop-color="#F36F56"/>
</linearGradient>
<linearGradient id="paint25_linear_223_3604" x1="67.1329" y1="142.76" x2="75.8226" y2="123.545" gradientUnits="userSpaceOnUse">
<stop stop-color="#311944"/>
<stop offset="1" stop-color="#6B3976"/>
</linearGradient>
<linearGradient id="paint26_linear_223_3604" x1="74.6021" y1="128.957" x2="74.5789" y2="157.585" gradientUnits="userSpaceOnUse">
<stop stop-color="#FFC444"/>
<stop offset="0.9964" stop-color="#F36F56"/>
</linearGradient>
<linearGradient id="paint27_linear_223_3604" x1="69.4431" y1="143.816" x2="78.1418" y2="124.581" gradientUnits="userSpaceOnUse">
<stop stop-color="#311944"/>
<stop offset="1" stop-color="#6B3976"/>
</linearGradient>
<linearGradient id="paint28_linear_223_3604" x1="77.59" y1="132.371" x2="77.0104" y2="135.932" gradientUnits="userSpaceOnUse">
<stop stop-color="#FFC444"/>
<stop offset="1" stop-color="#F36F56"/>
</linearGradient>
<linearGradient id="paint29_linear_223_3604" x1="45.3411" y1="193.993" x2="47.3958" y2="200.264" gradientUnits="userSpaceOnUse">
<stop stop-color="#FFC444"/>
<stop offset="0.9964" stop-color="#F36F56"/>
</linearGradient>
<linearGradient id="paint30_linear_223_3604" x1="24.0051" y1="145.767" x2="35.0506" y2="327.295" gradientUnits="userSpaceOnUse">
<stop offset="0.0036" stop-color="#E38DDD"/>
<stop offset="1" stop-color="#9571F6"/>
</linearGradient>
<linearGradient id="paint31_linear_223_3604" x1="65.5115" y1="143.242" x2="76.557" y2="324.77" gradientUnits="userSpaceOnUse">
<stop offset="0.0036" stop-color="#E38DDD"/>
<stop offset="1" stop-color="#9571F6"/>
</linearGradient>
<linearGradient id="paint32_linear_223_3604" x1="73.0066" y1="130.611" x2="74.6125" y2="154.138" gradientUnits="userSpaceOnUse">
<stop stop-color="#311944"/>
<stop offset="1" stop-color="#6B3976"/>
</linearGradient>
<linearGradient id="paint33_linear_223_3604" x1="68.6606" y1="177.484" x2="68.6606" y2="124.636" gradientUnits="userSpaceOnUse">
<stop stop-color="#311944"/>
<stop offset="1" stop-color="#6B3976"/>
</linearGradient>
<linearGradient id="paint34_linear_223_3604" x1="209.438" y1="212.363" x2="247.082" y2="212.363" gradientUnits="userSpaceOnUse">
<stop stop-color="#FF9085"/>
<stop offset="1" stop-color="#FB6FBB"/>
</linearGradient>
<linearGradient id="paint35_linear_223_3604" x1="252.511" y1="292.072" x2="254.526" y2="317.716" gradientUnits="userSpaceOnUse">
<stop offset="0.0036" stop-color="#26264F"/>
<stop offset="1" stop-color="#444B8C"/>
</linearGradient>
<linearGradient id="paint36_linear_223_3604" x1="257.244" y1="306.239" x2="262.072" y2="275.945" gradientUnits="userSpaceOnUse">
<stop stop-color="#FFC444"/>
<stop offset="0.9964" stop-color="#F36F56"/>
</linearGradient>
<linearGradient id="paint37_linear_223_3604" x1="227.31" y1="290.357" x2="229.325" y2="316.001" gradientUnits="userSpaceOnUse">
<stop offset="0.0036" stop-color="#26264F"/>
<stop offset="1" stop-color="#444B8C"/>
</linearGradient>
<linearGradient id="paint38_linear_223_3604" x1="232.042" y1="304.524" x2="236.87" y2="274.23" gradientUnits="userSpaceOnUse">
<stop stop-color="#FFC444"/>
<stop offset="0.9964" stop-color="#F36F56"/>
</linearGradient>
<linearGradient id="paint39_linear_223_3604" x1="302.659" y1="237.618" x2="291.153" y2="254.737" gradientUnits="userSpaceOnUse">
<stop stop-color="#444B8C"/>
<stop offset="0.9964" stop-color="#26264F"/>
</linearGradient>
<linearGradient id="paint40_linear_223_3604" x1="229.674" y1="275.31" x2="312.247" y2="275.31" gradientUnits="userSpaceOnUse">
<stop stop-color="#444B8C"/>
<stop offset="0.9964" stop-color="#26264F"/>
</linearGradient>
<linearGradient id="paint41_linear_223_3604" x1="273.828" y1="213.343" x2="310.581" y2="248.439" gradientUnits="userSpaceOnUse">
<stop stop-color="#FF9085"/>
<stop offset="1" stop-color="#FB6FBB"/>
</linearGradient>
<linearGradient id="paint42_linear_223_3604" x1="229.879" y1="224.377" x2="229.041" y2="228.201" gradientUnits="userSpaceOnUse">
<stop stop-color="#FFC444"/>
<stop offset="0.9964" stop-color="#F36F56"/>
</linearGradient>
<linearGradient id="paint43_linear_223_3604" x1="278.58" y1="172.781" x2="293.301" y2="206.552" gradientUnits="userSpaceOnUse">
<stop stop-color="#FFC444"/>
<stop offset="0.9964" stop-color="#F36F56"/>
</linearGradient>
<linearGradient id="paint44_linear_223_3604" x1="280.015" y1="171.661" x2="296.45" y2="209.367" gradientUnits="userSpaceOnUse">
<stop stop-color="#FFC444"/>
<stop offset="0.9964" stop-color="#F36F56"/>
</linearGradient>
<linearGradient id="paint45_linear_223_3604" x1="263.771" y1="223.87" x2="300.516" y2="258.957" gradientUnits="userSpaceOnUse">
<stop stop-color="#FF9085"/>
<stop offset="1" stop-color="#FB6FBB"/>
</linearGradient>
<linearGradient id="paint46_linear_223_3604" x1="265.423" y1="219.754" x2="307.107" y2="259.557" gradientUnits="userSpaceOnUse">
<stop stop-color="#FF9085"/>
<stop offset="1" stop-color="#FB6FBB"/>
</linearGradient>
<linearGradient id="paint47_linear_223_3604" x1="157.822" y1="312.717" x2="163.617" y2="316.568" gradientUnits="userSpaceOnUse">
<stop stop-color="#444B8C"/>
<stop offset="0.9964" stop-color="#26264F"/>
</linearGradient>
<linearGradient id="paint48_linear_223_3604" x1="163.289" y1="316.551" x2="163.74" y2="307.507" gradientUnits="userSpaceOnUse">
<stop stop-color="#FFC444"/>
<stop offset="0.9964" stop-color="#F36F56"/>
</linearGradient>
<linearGradient id="paint49_linear_223_3604" x1="158.258" y1="312.062" x2="164.052" y2="315.913" gradientUnits="userSpaceOnUse">
<stop stop-color="#444B8C"/>
<stop offset="0.9964" stop-color="#26264F"/>
</linearGradient>
<linearGradient id="paint50_linear_223_3604" x1="141.545" y1="315.854" x2="146.743" y2="320.478" gradientUnits="userSpaceOnUse">
<stop stop-color="#444B8C"/>
<stop offset="0.9964" stop-color="#26264F"/>
</linearGradient>
<linearGradient id="paint51_linear_223_3604" x1="146.768" y1="320.769" x2="148.512" y2="311.883" gradientUnits="userSpaceOnUse">
<stop stop-color="#FFC444"/>
<stop offset="0.9964" stop-color="#F36F56"/>
</linearGradient>
<linearGradient id="paint52_linear_223_3604" x1="142.068" y1="315.267" x2="147.266" y2="319.891" gradientUnits="userSpaceOnUse">
<stop stop-color="#444B8C"/>
<stop offset="0.9964" stop-color="#26264F"/>
</linearGradient>
<linearGradient id="paint53_linear_223_3604" x1="166.895" y1="220.819" x2="156.673" y2="200.651" gradientUnits="userSpaceOnUse">
<stop stop-color="#FF9085"/>
<stop offset="1" stop-color="#FB6FBB"/>
</linearGradient>
<linearGradient id="paint54_linear_223_3604" x1="153.619" y1="218.666" x2="150.442" y2="233.171" gradientUnits="userSpaceOnUse">
<stop stop-color="#FFC444"/>
<stop offset="0.9964" stop-color="#F36F56"/>
</linearGradient>
<linearGradient id="paint55_linear_223_3604" x1="182.328" y1="217.418" x2="219.073" y2="252.505" gradientUnits="userSpaceOnUse">
<stop offset="0.0036" stop-color="#E38DDD"/>
<stop offset="1" stop-color="#9571F6"/>
</linearGradient>
<linearGradient id="paint56_linear_223_3604" x1="191.429" y1="179.304" x2="206.149" y2="213.075" gradientUnits="userSpaceOnUse">
<stop stop-color="#FFC444"/>
<stop offset="0.9964" stop-color="#F36F56"/>
</linearGradient>
<linearGradient id="paint57_linear_223_3604" x1="192.862" y1="178.184" x2="209.297" y2="215.889" gradientUnits="userSpaceOnUse">
<stop stop-color="#FFC444"/>
<stop offset="0.9964" stop-color="#F36F56"/>
</linearGradient>
<linearGradient id="paint58_linear_223_3604" x1="168.763" y1="231.624" x2="205.508" y2="266.711" gradientUnits="userSpaceOnUse">
<stop offset="0.0036" stop-color="#E38DDD"/>
<stop offset="1" stop-color="#9571F6"/>
</linearGradient>
<linearGradient id="paint59_linear_223_3604" x1="174.256" y1="225.872" x2="211.001" y2="260.959" gradientUnits="userSpaceOnUse">
<stop offset="0.0036" stop-color="#E38DDD"/>
<stop offset="1" stop-color="#9571F6"/>
</linearGradient>
<linearGradient id="paint60_linear_223_3604" x1="207.61" y1="258.82" x2="177.49" y2="280.335" gradientUnits="userSpaceOnUse">
<stop stop-color="#444B8C"/>
<stop offset="0.9964" stop-color="#26264F"/>
</linearGradient>
<linearGradient id="paint61_linear_223_3604" x1="142.646" y1="285.165" x2="217.239" y2="285.165" gradientUnits="userSpaceOnUse">
<stop stop-color="#444B8C"/>
<stop offset="0.9964" stop-color="#26264F"/>
</linearGradient>
<linearGradient id="paint62_linear_223_3604" x1="230.91" y1="330.473" x2="175.062" y2="330.473" gradientUnits="userSpaceOnUse">
<stop stop-color="#AA80F9"/>
<stop offset="0.9964" stop-color="#6165D7"/>
</linearGradient>
<linearGradient id="paint63_linear_223_3604" x1="183.983" y1="327.733" x2="230.91" y2="327.733" gradientUnits="userSpaceOnUse">
<stop stop-color="#AA80F9"/>
<stop offset="0.9964" stop-color="#6165D7"/>
</linearGradient>
<linearGradient id="paint64_linear_223_3604" x1="199.881" y1="306.045" x2="206.09" y2="306.045" gradientUnits="userSpaceOnUse">
<stop stop-color="#AA80F9"/>
<stop offset="0.9964" stop-color="#6165D7"/>
</linearGradient>
<linearGradient id="paint65_linear_223_3604" x1="233.81" y1="299.443" x2="222.426" y2="284.608" gradientUnits="userSpaceOnUse">
<stop stop-color="#311944"/>
<stop offset="1" stop-color="#893976"/>
</linearGradient>
<linearGradient id="paint66_linear_223_3604" x1="273.629" y1="312.539" x2="323.531" y2="312.539" gradientUnits="userSpaceOnUse">
<stop stop-color="#AA80F9"/>
<stop offset="0.9964" stop-color="#6165D7"/>
</linearGradient>
<linearGradient id="paint67_linear_223_3604" x1="281.6" y1="310.091" x2="323.531" y2="310.091" gradientUnits="userSpaceOnUse">
<stop stop-color="#AA80F9"/>
<stop offset="0.9964" stop-color="#6165D7"/>
</linearGradient>
<linearGradient id="paint68_linear_223_3604" x1="295.806" y1="290.713" x2="301.354" y2="290.713" gradientUnits="userSpaceOnUse">
<stop stop-color="#AA80F9"/>
<stop offset="0.9964" stop-color="#6165D7"/>
</linearGradient>
<linearGradient id="paint69_linear_223_3604" x1="326.123" y1="284.813" x2="315.951" y2="271.558" gradientUnits="userSpaceOnUse">
<stop stop-color="#311944"/>
<stop offset="1" stop-color="#893976"/>
</linearGradient>
</defs>
</svg>
